<svg id="Layer_1" data-name="Layer 1" xmlns="http://www.w3.org/2000/svg" viewBox="0 0 2000 2122.13"><defs><style>.cls-1{fill:#012664;}</style></defs><title>SVG export Illustrator</title><path class="cls-1" d="M1147.69,0c4.6,3.32,9.26,6.64,13.66,10.18,176.34,156.52,328.9,343.53,427.89,558.6,3.81,7.66,6.59,17.46,15.7,20.41C1687.06,628,1773.84,668,1866.83,664c46.34,1.39,90.26-14.94,133.17-30.27-34.82,229.7-110.67,455.38-238,650.8-8.94,14.09-19.82,27-27.16,42.1-2.3,67.6,4.08,135.47,16.72,202,10.92,51.43,29,102.32,60.26,145.12,13.93,20,32.19,36.42,49.28,53.72C1638.37,1814.28,1395.81,1856,1157,1831.74c-16.45-.37-34.93-6.42-49.61,3.75-71.13,40.55-142.81,82.66-201.09,141-24.69,26.14-47.62,54.64-63.48,87.21-9.64,18.85-15.37,39.37-24.58,58.38-70.87-65.08-139.44-133.22-198.69-209.18-92.24-114.79-166.86-243.89-218.45-381.83-2.67-7.34-5.94-15.16-13.49-18.59-65.73-40.17-134.08-79.06-209.67-97-58.33-14.89-120.31-11.73-177.95,4.76,45.26-195.62,125.13-384,240.2-548.9,25.87-38.46,56.67-73.28,84.53-110.14,3.59-48.21-2.09-96.69-9.59-144.31-9.59-62.62-34.55-123.42-75.59-172.11-16.17-21.32-38.3-36.91-56.19-56.73C315.94,347.44,453.07,320,591.65,311.5,698.52,304.85,806,309.25,912,323.33c61.77-36.05,120.48-80.62,164.51-137.5C1117.8,132.53,1141,66.69,1147.69,0m32.94,274.21c-54.26,62-125.88,105.8-198.63,142.71-41.46-5.47-82.12-16.29-123.69-21.43-56.51-6.16-113.18-11.57-170-12.32a1581,1581,0,0,0-290,26,171.13,171.13,0,0,0,11.14,26c33.43,62.08,47.35,133.54,46,203.71-1.12,37.88,2.52,76.82-7.28,113.73-21.59,24.8-46.18,46.76-67.71,71.67C269.28,950.61,184.06,1099,126.85,1257c31.55,3.53,63.64,5.62,93.85,16.17C295.75,1295.43,361.9,1339,425,1384.13c9,6.75,19,12.48,26.68,20.84,11.35,29.41,16.77,60.85,27.91,90.42,42.53,125.67,106.92,243.47,186,349.85,25.88,33.22,50.57,67.61,80.73,97.17,73.07-103.33,191.4-157.91,302.55-210,17-10.29,36.16-.43,54,1.5,56,8.2,112.17,17.73,169,17.57,63.37.27,127.12,2.25,190-7.07,67.22-8.09,134.93-17.41,199.75-37.5-49.18-105.74-46.71-225.89-39.43-339.62,1.29-16.12-3.37-34.82,9.16-47.62,106.76-133.38,185.24-288.35,235.38-451.36,7.12-20.78,13.66-41.89,16.23-63.8-30-1.44-60.48,0-89.72-8.19C1710.84,779,1637.24,736.23,1565.51,694c-7.5-4.93-16.44-9.59-19.12-18.85-67.12-182.51-175.33-348.84-308.76-489.72C1220.81,216.36,1204.09,247.7,1180.63,274.21Z"/><path class="cls-1" d="M1188.4,485.22c38-22.4,70.81-51.75,104.19-80.3,40.6,58.55,75.21,121.22,104.94,186C1329.66,552.12,1260.28,515.91,1188.4,485.22Z"/><path class="cls-1" d="M610.46,483.13c71.08-1.61,142.7,1.28,212.93,12.64-38.57,22.12-78.75,41.41-116.67,64.71-27.43,14.68-52.45,33.37-79.87,48A532.29,532.29,0,0,0,610.46,483.13Z"/><path class="cls-1" d="M1038.73,555.82c3.11-.32,9.43-1,12.53-1.34C1193.81,605.37,1321.19,689.9,1441,781c11.2,9.75,28.23,16.13,32.09,31.82C1510,975,1506.59,1144,1481.3,1307.69c-9.69,16.93-27.15,27.32-40.71,40.93-122.45,108.26-272.76,179.93-426.5,231.62-14.2,1.77-26.89-6.21-39.64-11.08-81.91-33.16-160.12-76.07-231.09-128.89-55.71-39.69-106-86.35-157-131.77-11.51-11.47-24.48-21.65-34.65-34.39-15.7-141.48,8.51-283.27,38.73-421.15,6.91-29.14,9.74-59.46,20.35-87.59C739,669.27,890.51,612.76,1038.73,555.82Z"/><path class="cls-1" d="M1607,900.1c37.76,18.32,74.35,39.48,114.58,52.33,8.89,1.23,3.75,10.77,1.82,15.64-27.69,58.29-58.82,115.07-95,168.53-.27-43-4.66-85.71-6.53-128.56C1618.6,971.82,1611.37,936.15,1607,900.1Z"/><path class="cls-1" d="M328.21,1066.48c30.26-47,63.32-92.41,100.6-134.19-6.7,78.8-11.2,157.76-10.23,236.88-37.34-21.32-75.21-41.68-116-55.66C307.48,1096.05,318.94,1081.74,328.21,1066.48Z"/><path class="cls-1" d="M1248.18,1635.9c73.06-41.67,144.58-86.62,209.82-140,.91,39.37-3.91,79,2.41,118.12,1.24,8.35,1,16.87.81,25.33C1390.35,1644.85,1318.73,1645.06,1248.18,1635.9Z"/><path class="cls-1" d="M608.53,1521.59C680.84,1569.48,755,1615,834.1,1651c-25.12,13.07-51,25-74.89,40.33-17.51,10.77-33.21,24.22-51.31,34C667.56,1661.35,633.65,1593,608.53,1521.59Z"/></svg>