<?xml version="1.0" encoding="UTF-8" standalone="no"?>
<!DOCTYPE svg PUBLIC "-//W3C//DTD SVG 1.1//EN" "http://www.w3.org/Graphics/SVG/1.1/DTD/svg11.dtd">
<svg version="1.1" xmlns="http://www.w3.org/2000/svg" xmlns:xlink="http://www.w3.org/1999/xlink" preserveAspectRatio="xMidYMid meet" viewBox="0 0 640 640" width="640" height="640"><defs><path d="M65.59 428L65.59 185.39L319.55 64.12L319.55 4.34L3 155.52L3 457.91L319.55 609.06L319.55 549.3L65.59 428Z" id="b2TfidaB0O"></path><path d="M258.06 278.02L258.06 172.89L146.65 226.65L146.65 231.99L146.63 231.99L146.63 388.5L258.05 442.34L258.05 349.36L258.06 349.36L258.06 332.64L319.55 332.64L319.55 278.02L258.06 278.02Z" id="b1JZdLYlIS"></path><path d="M318.91 508.31L107.85 407.44L107.85 205.96L318.91 105.1L319.55 105.44L319.55 79.81L318.91 79.49L81.07 193.11L81.07 420.29L318.91 533.91L319.55 533.59L319.55 507.99L318.91 508.31Z" id="a1W7LqkXuC"></path><radialGradient id="gradientb17JTDXqZn" gradientUnits="userSpaceOnUse" cx="200.31" cy="306.7" dx="321.5" dy="296.52" r="121.62"><stop style="stop-color: #0090c3;stop-opacity: 1" offset="0%"></stop><stop style="stop-color: #0a4e95;stop-opacity: 1" offset="100%"></stop></radialGradient><path d="M576.66 428L576.66 185.39L319.55 64.12L319.55 4.34L640 155.52L640 457.91L319.55 609.06L319.55 549.3L576.66 428Z" id="b4OjeLrXsR"></path><radialGradient id="gradientb11RVqA2rY" gradientUnits="userSpaceOnUse" cx="479.77" cy="306.7" dx="321.5" dy="296.52" r="158.6"><stop style="stop-color: #0090c3;stop-opacity: 1" offset="0%"></stop><stop style="stop-color: #0a4e95;stop-opacity: 1" offset="100%"></stop></radialGradient><path d="M381.76 278.02L381.76 172.89L494.59 226.65L494.59 231.99L494.59 231.99L494.59 388.5L381.8 442.34L381.8 349.36L381.76 349.36L381.76 332.64L319.55 332.64L319.55 278.02L381.76 278.02Z" id="axHp1po1l"></path><path d="M320.19 508.31L533.87 407.44L533.87 205.96L320.19 105.1L319.55 105.44L319.55 79.81L320.19 79.49L560.99 193.11L560.99 420.29L320.19 533.91L319.55 533.59L319.55 507.99L320.19 508.31Z" id="a1CKLBBAhb"></path></defs><g><g><g><use xlink:href="#b2TfidaB0O" opacity="1" fill="#00abe6" fill-opacity="1"></use><g><use xlink:href="#b2TfidaB0O" opacity="1" fill-opacity="0" stroke="#000000" stroke-width="1" stroke-opacity="0"></use></g></g><g><use xlink:href="#b1JZdLYlIS" opacity="1" fill="#0d4e96" fill-opacity="1"></use><g><use xlink:href="#b1JZdLYlIS" opacity="1" fill-opacity="0" stroke="#000000" stroke-width="1" stroke-opacity="0"></use></g></g><g><use xlink:href="#a1W7LqkXuC" opacity="1" fill="url(#gradientb17JTDXqZn)"></use><g><use xlink:href="#a1W7LqkXuC" opacity="1" fill-opacity="0" stroke="#000000" stroke-width="1" stroke-opacity="0"></use></g></g><g><use xlink:href="#b4OjeLrXsR" opacity="1" fill="url(#gradientb11RVqA2rY)"></use><g><use xlink:href="#b4OjeLrXsR" opacity="1" fill-opacity="0" stroke="#000000" stroke-width="1" stroke-opacity="0"></use></g></g><g><use xlink:href="#axHp1po1l" opacity="1" fill="#0d4e96" fill-opacity="1"></use><g><use xlink:href="#axHp1po1l" opacity="1" fill-opacity="0" stroke="#000000" stroke-width="1" stroke-opacity="0"></use></g></g><g><use xlink:href="#a1CKLBBAhb" opacity="1" fill="#649dd4" fill-opacity="1"></use><g><use xlink:href="#a1CKLBBAhb" opacity="1" fill-opacity="0" stroke="#000000" stroke-width="1" stroke-opacity="0"></use></g></g></g></g></svg>