<?xml version="1.0" encoding="UTF-8"?>
<svg width="18px" height="18px" viewBox="0 0 18 18" version="1.1" xmlns="http://www.w3.org/2000/svg" xmlns:xlink="http://www.w3.org/1999/xlink">
    <!-- Generator: sketchtool 53 (72520) - https://sketchapp.com -->
    <title>3620DE1B-D841-4090-87E0-E53956829B14</title>
    <desc>Created with sketchtool.</desc>
    <g id="Symbols" stroke="none" stroke-width="1" fill="none" fill-rule="evenodd">
        <g id="Icon/AlertTriangle-18-Error500" fill-rule="nonzero">
            <rect id="zone" fill-opacity="0" fill="#D8D8D8" x="0" y="0" width="18" height="18"></rect>
            <path d="M7.04629935,2.0916884 L7.04843527,2.08812484 C7.46162331,1.40307409 8.20154946,0.984118542 9,0.984118542 C9.79845054,0.984118542 10.5383767,1.40307409 10.9537007,2.0916884 L17.4451905,12.9905889 C17.8493284,13.694447 17.8517398,14.5605508 17.4515333,15.2666637 C17.0505396,15.9741654 16.3052834,16.415183 15.48544,16.4241995 L2.50627019,16.4241537 C1.69471659,16.415183 0.949460357,15.9741654 0.548466721,15.2666637 C0.14826019,14.5605508 0.150671558,13.694447 0.560859348,12.9802446 L7.04629935,2.0916884 Z M8.33378323,2.86135785 L1.85563228,13.7374892 C1.71557765,13.9814123 1.71473988,14.2823204 1.85343985,14.5270387 C1.99135272,14.7703682 2.24621551,14.9211875 2.51456,14.9241995 L15.4771502,14.9242453 C15.7537845,14.9211875 16.0086473,14.7703682 16.1465601,14.5270387 C16.2852601,14.2823204 16.2844223,13.9814123 16.1504176,13.7478336 L9.66711352,2.86284098 C9.52507184,2.62734104 9.27212359,2.48411854 9,2.48411854 C8.72844814,2.48411854 8.47599113,2.62673985 8.33378323,2.86135785 Z" id="Path" fill="#EF4829"></path>
            <path d="M8.25,6.72727273 C8.25,6.31305916 8.58578644,5.97727273 9,5.97727273 C9.41421356,5.97727273 9.75,6.31305916 9.75,6.72727273 L9.75,10 C9.75,10.4142136 9.41421356,10.75 9,10.75 C8.58578644,10.75 8.25,10.4142136 8.25,10 L8.25,6.72727273 Z" id="Path" fill="#EF4829"></path>
            <path d="M9,13.5 C8.44771525,13.5 8,13.0522847 8,12.5 C8,11.9477153 8.44771525,11.5 9,11.5 C9.55228475,11.5 10,11.9477153 10,12.5 C10,13.0522847 9.55228475,13.5 9,13.5 Z" id="Oval" fill="#EF4829"></path>
        </g>
    </g>
</svg>
