<?xml version="1.0" encoding="UTF-8"?>
<svg width="18px" height="18px" viewBox="0 0 18 18" version="1.1" xmlns="http://www.w3.org/2000/svg" xmlns:xlink="http://www.w3.org/1999/xlink">
    <!-- Generator: sketchtool 53 (72520) - https://sketchapp.com -->
    <title>4D6512F7-67A0-4B6F-9007-7266598C89A8</title>
    <desc>Created with sketchtool.</desc>
    <g id="Symbols" stroke="none" stroke-width="1" fill="none" fill-rule="evenodd">
        <g id="Icon/Check-18-Success400">
            <polygon id="Path" fill-opacity="0" fill="#D8D8D8" points="0 0 18 0 18 18 0 18"></polygon>
            <path d="M15.133,3.306 L6.057,12.61 L2.834,9.159 C2.53355689,8.90146143 2.12165624,8.81681396 1.744,8.935 C1.364,9.053 1.084,9.356 1.016,9.723 C0.950143437,10.0967498 1.10645336,10.4748561 1.417,10.693 L5.406,14.756 C5.84593677,15.1003061 6.46985462,15.0779329 6.884,14.703 L16.674,4.735 C16.9912973,4.45531969 17.0886953,4.0012015 16.914,3.616 C16.738,3.233 16.328,2.988 15.881,3 C15.598,3.008 15.331,3.118 15.133,3.306 Z" id="Path" fill="#4AAD02"></path>
        </g>
    </g>
</svg>
