<svg xmlns="http://www.w3.org/2000/svg" width="42" height="42" viewBox="0 0 42 42">
    <g fill="none" fill-rule="evenodd">
        <path fill="#D8D8D8" fill-opacity="0" d="M0 0h42v42H0z"/>
        <path fill="#1F5AF6" fill-rule="nonzero" d="M21 40c10.493 0 19-8.507 19-19S31.493 2 21 2 2 10.507 2 21s8.507 19 19 19zm0 2C9.402 42 0 32.598 0 21S9.402 0 21 0s21 9.402 21 21-9.402 21-21 21z"/>
        <path fill="#1F5AF6" fill-rule="nonzero" d="M21.02 27.97a7 7 0 1 0 0-14 7 7 0 0 0 0 14zm0 2a9 9 0 1 1 0-18 9 9 0 0 1 0 18z"/>
        <path fill="#1F5AF6" fill-rule="nonzero" d="M27.287 24.1l1.732 1-9.425 16.325-1.732-1L27.287 24.1zM5.337 8.626l9.576 15.78-1.71 1.037-9.577-15.78 1.71-1.037zM40 12.006v2H21.147v-2H40z"/>
    </g>
</svg>
