<svg xmlns="http://www.w3.org/2000/svg" width="24" height="24" viewBox="0 0 24 24">
    <g fill="none" fill-rule="evenodd">
        <path fill="none" d="M0 0h24v24H0z"/>
        <path fill="#000" fill-rule="nonzero" d="M23.28 4.5H6.032c-.347 0-.693.158-.907.449L.14 11.789a.748.748 0 0 0 0 .871l4.985 6.417c.214.265.533.423.88.423H23.28c.4 0 .72-.317.72-.713V5.213a.713.713 0 0 0-.72-.713zm-6.025 9.586l-1.6 1.585-2.105-2.086-2.107 2.086-1.6-1.585L11.95 12 9.844 9.914l1.6-1.585 2.106 2.086 2.106-2.086 1.6 1.585L15.148 12l2.106 2.086z"/>
    </g>
</svg>
