<svg xmlns="http://www.w3.org/2000/svg" width="88" height="88" viewBox="0 0 88 88">
    <g fill="none" fill-rule="evenodd">
        <path fill="none" d="M0 0h88v88H0z"/>
        <path fill="#BACAF4" fill-rule="nonzero" d="M44 88c-.913 0-1.834-.027-2.738-.084l.304-4.955c1.62.1 3.294.097 4.906-.004l.31 4.957A45.05 45.05 0 0 1 44 88zm-8.219-.767a43.95 43.95 0 0 1-5.355-1.368l1.53-4.725c1.55.503 3.147.91 4.746 1.213l-.92 4.88zm16.48-.01l-.926-4.878a38.963 38.963 0 0 0 4.746-1.218l1.535 4.723c-1.75.57-3.55 1.032-5.356 1.373zM25.285 83.83a44.15 44.15 0 0 1-4.843-2.667l2.66-4.192a39.033 39.033 0 0 0 4.296 2.364l-2.113 4.495zm37.466-.019l-2.116-4.492a39.214 39.214 0 0 0 4.29-2.366l2.663 4.19a43.989 43.989 0 0 1-4.837 2.668zm-46.779-5.898a44.335 44.335 0 0 1-4.027-3.784l3.613-3.403a39.516 39.516 0 0 0 3.576 3.36l-3.162 3.827zm56.08-.022l-3.165-3.826a39.235 39.235 0 0 0 3.572-3.36l3.617 3.399a44.36 44.36 0 0 1-4.025 3.787zM8.42 69.876a44.43 44.43 0 0 1-2.966-4.661l4.343-2.4a39.148 39.148 0 0 0 2.631 4.135L8.42 69.876zm71.18-.03l-4.012-2.922a39.296 39.296 0 0 0 2.63-4.141l4.346 2.395a44.105 44.105 0 0 1-2.965 4.668zm-76.505-9.63a44.204 44.204 0 0 1-1.712-5.26l4.805-1.237a38.78 38.78 0 0 0 1.517 4.663l-4.61 1.834zm81.825-.042l-4.612-1.83a38.828 38.828 0 0 0 1.512-4.668l4.807 1.232a43.546 43.546 0 0 1-1.707 5.266zM.348 49.524A44.576 44.576 0 0 1 0 44.01l4.962-.006c.002 1.64.105 3.287.309 4.899l-4.923.621zm87.31-.05l-4.924-.615c.202-1.614.304-3.262.304-4.9v-.092H88v.093a45.222 45.222 0 0 1-.342 5.514zM5.26 39.104l-4.923-.61c.226-1.83.57-3.658 1.023-5.436l4.808 1.226a39.004 39.004 0 0 0-.908 4.82zm77.463-.13a39.145 39.145 0 0 0-.924-4.818l4.802-1.241c.46 1.778.81 3.606 1.042 5.43l-4.92.628zm-75.05-9.359L3.06 27.792a44.103 44.103 0 0 1 2.35-5.008l4.349 2.39a39.4 39.4 0 0 0-2.085 4.441zm72.604-.12c-.603-1.51-1.307-3-2.096-4.428l4.34-2.405a43.755 43.755 0 0 1 2.363 4.996l-4.607 1.837zM12.386 21.03L8.37 18.112a44.18 44.18 0 0 1 3.519-4.263l3.619 3.396a39.51 39.51 0 0 0-3.123 3.785zm63.156-.096a39.176 39.176 0 0 0-3.133-3.773l3.61-3.407a44.421 44.421 0 0 1 3.53 4.251l-4.007 2.93zM19.08 13.882l-3.17-3.821a44.37 44.37 0 0 1 4.46-3.258l2.667 4.186a39.445 39.445 0 0 0-3.957 2.893zm49.751-.076a39.437 39.437 0 0 0-3.97-2.882l2.656-4.194a44.296 44.296 0 0 1 4.472 3.245l-3.158 3.83zM27.324 8.618L25.203 4.13a44.206 44.206 0 0 1 5.134-2.046l1.54 4.72a39.022 39.022 0 0 0-4.553 1.814zm33.238-.053A38.786 38.786 0 0 0 56 6.766l1.524-4.725a43.61 43.61 0 0 1 5.143 2.03l-2.106 4.494zM36.62 5.582L35.689.704c1.8-.345 3.643-.578 5.479-.696l.315 4.955c-1.63.105-3.267.312-4.863.619zm14.632-.024a39.159 39.159 0 0 0-4.863-.6L46.687 0c1.838.11 3.682.34 5.482.677l-.917 4.881z"/>
        <path fill="#1F5AF6" fill-rule="nonzero" d="M63.974 27L37.879 53.048l-10.34-10.32L23 47.259 37.88 62.11l30.637-30.58z"/>
    </g>
</svg>
