<svg width="18" height="18" viewBox="0 0 18 18" fill="none" xmlns="http://www.w3.org/2000/svg">
<path d="M6.02275 3.77275C6.24242 3.55308 6.24242 3.19692 6.02275 2.97725C5.80308 2.75758 5.44692 2.75758 5.22725 2.97725L2.97725 5.22725C2.75758 5.44692 2.75758 5.80308 2.97725 6.02275L5.22725 8.27275C5.44692 8.49242 5.80308 8.49242 6.02275 8.27275C6.24242 8.05308 6.24242 7.69692 6.02275 7.47725L4.73299 6.1875L13.5 6.1875C13.8107 6.1875 14.0625 5.93566 14.0625 5.625C14.0625 5.31434 13.8107 5.0625 13.5 5.0625L4.733 5.0625L6.02275 3.77275Z" fill="#292C30"/>
<path d="M4.5 11.8125C4.18934 11.8125 3.9375 12.0643 3.9375 12.375C3.9375 12.6857 4.18934 12.9375 4.5 12.9375L13.267 12.9375L11.9773 14.2273C11.7576 14.4469 11.7576 14.8031 11.9773 15.0227C12.1969 15.2424 12.5531 15.2424 12.7727 15.0227L15.0227 12.7727C15.2424 12.5531 15.2424 12.1969 15.0227 11.9773L12.7727 9.72725C12.5531 9.50758 12.1969 9.50758 11.9773 9.72725C11.7576 9.94692 11.7576 10.3031 11.9773 10.5227L13.267 11.8125L4.5 11.8125Z" fill="#292C30"/>
</svg>
