<svg width="11" height="12" viewBox="0 0 11 12" fill="none" xmlns="http://www.w3.org/2000/svg">
<path d="M0.784097 3.47476C0.672585 3.72738 0.78698 4.02257 1.03961 4.13408C1.29223 4.2456 1.58742 4.1312 1.69894 3.87858L0.784097 3.47476ZM3.31266 1.4819L3.0846 1.03694L3.0846 1.03694L3.31266 1.4819ZM6.30378 1.08204L6.40696 0.592805L6.30378 1.08204ZM8.8787 2.65572L9.26702 2.34075V2.34075L8.8787 2.65572ZM1.69894 3.87858C2.07085 3.03602 2.72112 2.34694 3.54072 1.92686L3.0846 1.03694C2.06087 1.56165 1.24864 2.42235 0.784097 3.47476L1.69894 3.87858ZM3.54072 1.92686C4.36033 1.50678 5.29944 1.38123 6.2006 1.57128L6.40696 0.592805C5.28134 0.355424 4.10834 0.512232 3.0846 1.03694L3.54072 1.92686ZM6.2006 1.57128C7.10177 1.76133 7.91021 2.25541 8.49037 2.97069L9.26702 2.34075C8.54235 1.44732 7.53257 0.830185 6.40696 0.592805L6.2006 1.57128ZM8.49037 2.97069C9.07054 3.68597 9.38717 4.57896 9.38717 5.49995H10.3872C10.3872 4.34958 9.99168 3.23418 9.26702 2.34075L8.49037 2.97069Z" fill="white"/>
<path d="M9.90015 7L9.03412 5.5L10.7662 5.5L9.90015 7Z" fill="white"/>
<path d="M10.1068 8.32508C10.2183 8.07245 10.104 7.77726 9.85132 7.66575C9.5987 7.55424 9.30351 7.66863 9.192 7.92126L10.1068 8.32508ZM7.57827 10.3179L7.80633 10.7629L7.80633 10.7629L7.57827 10.3179ZM4.58715 10.7178L4.48397 11.207L4.58715 10.7178ZM2.01223 9.14411L1.62391 9.45908L1.62391 9.45908L2.01223 9.14411ZM9.192 7.92126C8.82008 8.76381 8.16981 9.4529 7.35021 9.87298L7.80633 10.7629C8.83006 10.2382 9.64229 9.37748 10.1068 8.32508L9.192 7.92126ZM7.35021 9.87298C6.5306 10.2931 5.59149 10.4186 4.69033 10.2286L4.48397 11.207C5.60959 11.4444 6.78259 11.2876 7.80633 10.7629L7.35021 9.87298ZM4.69033 10.2286C3.78916 10.0385 2.98072 9.54442 2.40056 8.82914L1.62391 9.45908C2.34858 10.3525 3.35836 10.9696 4.48397 11.207L4.69033 10.2286ZM2.40056 8.82914C1.82039 8.11386 1.50376 7.22087 1.50376 6.29988L0.503764 6.29988C0.503763 7.45025 0.899248 8.56565 1.62391 9.45908L2.40056 8.82914Z" fill="white"/>
<path d="M1 4.80008L1.86603 6.30008L0.133974 6.30008L1 4.80008Z" fill="white"/>
</svg>
