<svg xmlns="http://www.w3.org/2000/svg" width="14" height="14" viewBox="0 0 14 14">
    <g fill="none" fill-rule="evenodd">
        <path fill="none" d="M0 0h14v14H0z"/>
        <path fill="#1F5AF6" fill-rule="nonzero" d="M13.025 0H4.876a.976.976 0 0 0-.974.975v8.149c0 .537.437.974.974.974h8.15A.976.976 0 0 0 14 9.124V.974A.976.976 0 0 0 13.025 0zm-.296 8.827H5.173V1.271h7.556v7.556zM8.827 12.73H1.271V5.173h2.136V3.902H.975A.976.976 0 0 0 0 4.876v8.15c0 .537.437.974.975.974h8.149a.976.976 0 0 0 .974-.975v-2.432h-1.27v2.136z"/>
    </g>
</svg>
