<svg xmlns="http://www.w3.org/2000/svg" width="28" height="28" viewBox="0 0 28 28">
    <g fill="none" fill-rule="evenodd" opacity=".3">
        <circle cx="14" cy="14" r="14" fill="#7289DA"/>
        <path fill="#FFF" fill-rule="nonzero" d="M18.284 20.5s-.555-.665-1.017-1.254c2.019-.572 2.79-1.841 2.79-1.841a8.805 8.805 0 0 1-1.773.913c-.77.325-1.51.542-2.234.665-1.48.279-2.836.202-3.992-.015a12.895 12.895 0 0 1-2.265-.666c-.355-.139-.74-.31-1.125-.526-.046-.03-.093-.046-.139-.077a.213.213 0 0 1-.062-.047 5.403 5.403 0 0 1-.431-.263s.74 1.238 2.697 1.826C10.27 19.804 9.7 20.5 9.7 20.5 6.295 20.392 5 18.148 5 18.148c0-4.984 2.22-9.023 2.22-9.023C9.437 7.454 11.55 7.5 11.55 7.5l.154.186C8.93 8.49 7.65 9.713 7.65 9.713s.339-.186.909-.449c1.649-.727 2.959-.928 3.498-.975.093-.015.17-.03.262-.03.94-.124 2.004-.155 3.113-.031 1.464.17 3.036.603 4.639 1.485 0 0-1.218-1.16-3.837-1.965l.215-.248s2.112-.046 4.33 1.625c0 0 2.22 4.04 2.22 9.023 0 0-1.31 2.244-4.716 2.352zm-7.166-7.227c-.878 0-1.572.773-1.572 1.718 0 .944.71 1.717 1.572 1.717.879 0 1.572-.773 1.572-1.717.015-.945-.693-1.718-1.572-1.718zm5.625 0c-.878 0-1.572.773-1.572 1.718 0 .944.71 1.717 1.572 1.717.879 0 1.572-.773 1.572-1.717 0-.945-.693-1.718-1.572-1.718z"/>
    </g>
</svg>
