<?xml version="1.0" encoding="UTF-8" standalone="no"?>
<svg
   width="88"
   height="88"
   viewBox="0 0 88 88"
   version="1.1"
   id="svg14129"
   sodipodi:docname="empty-88.svg"
   inkscape:version="1.1 (c68e22c387, 2021-05-23)"
   xmlns:inkscape="http://www.inkscape.org/namespaces/inkscape"
   xmlns:sodipodi="http://sodipodi.sourceforge.net/DTD/sodipodi-0.dtd"
   xmlns="http://www.w3.org/2000/svg"
   xmlns:svg="http://www.w3.org/2000/svg"
   xmlns:rdf="http://www.w3.org/1999/02/22-rdf-syntax-ns#"
   xmlns:cc="http://creativecommons.org/ns#"
   xmlns:dc="http://purl.org/dc/elements/1.1/">
  <metadata
     id="metadata14135">
    <rdf:RDF>
      <cc:Work
         rdf:about="">
        <dc:format>image/svg+xml</dc:format>
        <dc:type
           rdf:resource="http://purl.org/dc/dcmitype/StillImage" />
      </cc:Work>
    </rdf:RDF>
  </metadata>
  <defs
     id="defs14133" />
  <sodipodi:namedview
     pagecolor="#ffffff"
     bordercolor="#666666"
     borderopacity="1"
     objecttolerance="10"
     gridtolerance="10"
     guidetolerance="10"
     inkscape:pageopacity="0"
     inkscape:pageshadow="2"
     inkscape:window-width="2560"
     inkscape:window-height="1377"
     id="namedview14131"
     showgrid="false"
     inkscape:zoom="2.6818182"
     inkscape:cx="-29.271186"
     inkscape:cy="44.18644"
     inkscape:window-x="-8"
     inkscape:window-y="-8"
     inkscape:window-maximized="1"
     inkscape:current-layer="g14127"
     inkscape:pagecheckerboard="0" />
  <g
     fill="none"
     fill-rule="evenodd"
     id="g14127">
    <path
       fill="none"
       d="M0 0h88v88H0z"
       id="path14123" />
    <path
       fill="#BACAF4"
       fill-rule="nonzero"
       d="M3.667 9.167H0V2.75A2.758 2.758 0 0 1 2.75 0h4.583v3.667H3.667v5.5zm75.166-5.5V0h6.417A2.758 2.758 0 0 1 88 2.75v4.583h-3.667V3.667h-5.5zM12.833 0h5.5v3.667h-5.5V0zm11 0h5.5v3.667h-5.5V0zm11 0h5.5v3.667h-5.5V0zm11 0h5.5v3.667h-5.5V0zm11 0h5.5v3.667h-5.5V0zm11 0h5.5v3.667h-5.5V0zm16.5 12.833H88v5.5h-3.667v-5.5zm0 11H88v5.5h-3.667v-5.5zm0 11H88v5.5h-3.667v-5.5zm0 11H88v5.5h-3.667v-5.5zm0 11H88v5.5h-3.667v-5.5zm0 11H88v5.5h-3.667v-5.5zM0 69.667h3.667v5.5H0v-5.5zm0-11h3.667v5.5H0v-5.5zm0-11h3.667v5.5H0v-5.5zm0-11h3.667v5.5H0v-5.5zm0-11h3.667v5.5H0v-5.5zm0-11h3.667v5.5H0v-5.5zm84.333 64.166H88v6.417A2.758 2.758 0 0 1 85.25 88h-4.583v-3.667h3.666v-5.5zm-75.166 5.5V88H2.75A2.758 2.758 0 0 1 0 85.25v-4.583h3.667v3.666h5.5zm60.5 0h5.5V88h-5.5v-3.667zm-11 0h5.5V88h-5.5v-3.667zm-11 0h5.5V88h-5.5v-3.667zm-11 0h5.5V88h-5.5v-3.667zm-11 0h5.5V88h-5.5v-3.667zm-11 0h5.5V88h-5.5v-3.667z"
       id="path14125"
       style="fill:#6800ff;fill-opacity:0.41960785" />
  </g>
</svg>
