<svg xmlns="http://www.w3.org/2000/svg" width="88" height="88" viewBox="0 0 88 88">
    <g fill="none" fill-rule="evenodd">
        <path fill="none" d="M0 0h88v88H0z"/>
        <path fill="#BACAF4" fill-rule="nonzero" d="M3.667 9.167H0V2.75A2.758 2.758 0 0 1 2.75 0h4.583v3.667H3.667v5.5zm75.166-5.5V0h6.417A2.758 2.758 0 0 1 88 2.75v4.583h-3.667V3.667h-5.5zM12.833 0h5.5v3.667h-5.5V0zm11 0h5.5v3.667h-5.5V0zm11 0h5.5v3.667h-5.5V0zm11 0h5.5v3.667h-5.5V0zm11 0h5.5v3.667h-5.5V0zm11 0h5.5v3.667h-5.5V0zm16.5 12.833H88v5.5h-3.667v-5.5zm0 11H88v5.5h-3.667v-5.5zm0 11H88v5.5h-3.667v-5.5zm0 11H88v5.5h-3.667v-5.5zm0 11H88v5.5h-3.667v-5.5zm0 11H88v5.5h-3.667v-5.5zM0 69.667h3.667v5.5H0v-5.5zm0-11h3.667v5.5H0v-5.5zm0-11h3.667v5.5H0v-5.5zm0-11h3.667v5.5H0v-5.5zm0-11h3.667v5.5H0v-5.5zm0-11h3.667v5.5H0v-5.5zm84.333 64.166H88v6.417A2.758 2.758 0 0 1 85.25 88h-4.583v-3.667h3.666v-5.5zm-75.166 5.5V88H2.75A2.758 2.758 0 0 1 0 85.25v-4.583h3.667v3.666h5.5zm60.5 0h5.5V88h-5.5v-3.667zm-11 0h5.5V88h-5.5v-3.667zm-11 0h5.5V88h-5.5v-3.667zm-11 0h5.5V88h-5.5v-3.667zm-11 0h5.5V88h-5.5v-3.667zm-11 0h5.5V88h-5.5v-3.667z"/>
    </g>
</svg>
