<svg xmlns="http://www.w3.org/2000/svg" width="88" height="88" viewBox="0 0 88 88">
    <g fill="none" fill-rule="evenodd">
        <path fill="#D8D8D8" fill-opacity="0" d="M0 0h88v88H0z"/>
        <path fill="#9BA6B2" fill-rule="nonzero" d="M2.75 8C1.23 8 0 9.346 0 11.002v65.996C0 78.657 1.23 80 2.75 80h82.5c1.52 0 2.75-1.343 2.75-3.002V11.002C88 9.343 86.77 8 85.25 8H2.75zm60.5 2.77c1.52 0 2.75 1.237 2.75 2.768 0 1.532-1.23 2.77-2.75 2.77a2.757 2.757 0 0 1-2.75-2.77c0-1.53 1.23-2.769 2.75-2.769zm8.25 0c1.52 0 2.75 1.237 2.75 2.768 0 1.532-1.23 2.77-2.75 2.77a2.757 2.757 0 0 1-2.75-2.77c0-1.53 1.23-2.769 2.75-2.769zm8.25 0c1.52 0 2.75 1.237 2.75 2.768 0 1.532-1.23 2.77-2.75 2.77a2.757 2.757 0 0 1-2.75-2.77c0-1.53 1.23-2.769 2.75-2.769zM5.328 19.076h77.344c1.424 0 2.578 1.085 2.578 2.423v53.308c0 1.337-1.154 2.423-2.578 2.423H5.328c-1.424 0-2.583-1.086-2.583-2.423V21.5c.002-1.338 1.161-2.423 2.583-2.423zm24.76 19.39a2.714 2.714 0 0 0-2.706 2.72 2.714 2.714 0 0 0 2.707 2.721 2.71 2.71 0 0 0 2.702-2.72 2.71 2.71 0 0 0-2.702-2.721zm27.56 0a2.714 2.714 0 0 0-2.707 2.72 2.714 2.714 0 0 0 2.707 2.721 2.71 2.71 0 0 0 2.702-2.72 2.71 2.71 0 0 0-2.702-2.721zm-13.637 16.6c-4.557 0-8.256 3.713-8.261 8.301v.027l16.5-.01c.005-4.586-3.683-8.316-8.24-8.319z"/>
    </g>
</svg>
