<svg width="24" height="24" viewBox="0 0 24 24" fill="none" xmlns="http://www.w3.org/2000/svg">
<circle cx="12" cy="12" r="12" fill="#151C2F"/>
<path d="M11.8813 16.2053L8.52381 13.8899C8.48628 13.864 8.44014 13.9084 8.46556 13.9459L11.8278 18.9093C11.9099 19.0303 12.0906 19.0303 12.1726 18.9093L15.5349 13.9459C15.5603 13.9084 15.5142 13.864 15.4767 13.8899L12.1192 16.2053C12.0477 16.2545 11.9527 16.2545 11.8813 16.2053Z" fill="white"/>
<path d="M15.9735 11.8452L12.1805 5.10511C12.1016 4.96496 11.8968 4.96496 11.8179 5.10511L8.02484 11.8452H15.9735Z" fill="white"/>
<path d="M12.0003 11.8452H15.9746L12.1815 5.10511C12.1421 5.03504 12.0712 5 12.0003 5V11.8452Z" fill="#B5B5B5"/>
<path d="M11.8809 14.724L8.08831 12.1085C7.97056 12.0273 7.97056 11.8557 8.08831 11.7745L11.8809 9.159C11.9522 9.10976 12.0473 9.10976 12.1187 9.159L15.9112 11.7745C16.029 11.8557 16.029 12.0273 15.9112 12.1085L12.1187 14.724C12.0473 14.7732 11.9522 14.7732 11.8809 14.724Z" fill="#BBBBBB"/>
<path d="M12.1191 14.724L15.9117 12.1085C16.0295 12.0273 16.0295 11.8557 15.9117 11.7745L12.1191 9.159C12.0835 9.13438 12.0419 9.12207 12.0002 9.12207V14.7609C12.0419 14.7609 12.0835 14.7486 12.1191 14.724Z" fill="#979797"/>
<path d="M12.1726 18.9093L15.5349 13.9459C15.5603 13.9084 15.5142 13.864 15.4767 13.8899L12.1191 16.2053C12.0835 16.23 12.0419 16.2423 12.0002 16.2423V19.0001C12.066 19.0001 12.1317 18.9698 12.1726 18.9093Z" fill="#AEAEAE"/>
</svg>
