<svg xmlns="http://www.w3.org/2000/svg" width="42" height="42" viewBox="0 0 42 42">
    <g fill="none" fill-rule="evenodd">
        <path fill="#D8D8D8" fill-opacity="0" d="M0 0h42v42H0z"/>
        <path fill="#1F5AF6" fill-rule="nonzero" d="M21 42C9.42 42 0 32.627 0 21.105c0-3.387.833-6.742 2.41-9.721-.877-1.848-.903-5.198 1.347-7.437a.87.87 0 0 1 .952-.188.87.87 0 0 1 .541.804c0 .695.478 2.139 1.088 3.284.345.641.587.928.706 1.047.863-.133 2.808-.193 3.96-.06.905-1.171 2.78-3.4 5.621-3.4.354 0 .674.212.808.538a.863.863 0 0 1-.189.947c-1.445 1.438-2.764 3.484-2.364 4.447.273.657 1.547 1.033 3.495 1.033h1.75a.869.869 0 1 1 .486 1.595L15.927 17.1c.145.587.18 1.398-.434 2.008a.879.879 0 0 1-1.238 0c-.001.06-.63.202-1.24.702-.487.4-.765.872-.765 1.295 0 1.405 1.67 3.483 5.25 3.483 2.032 0 2.518-.434 2.989-.852.448-.395 1.003-.89 2.261-.89 2.27 0 3.265 1.57 3.474 2.402a.873.873 0 0 1-.849 1.081c-1.186 0-2.324.726-3.53 1.496-.86.548-1.788 1.142-2.838 1.535.782.32 1.625.451 2.868.451 5.308 0 9.625-4.295 9.625-9.577a9.476 9.476 0 0 0-1.893-5.697.866.866 0 0 1 .085-1.133.874.874 0 0 1 1.141-.084 11.377 11.377 0 0 1 3.287 3.836c-.128-4.949-2.252-11.257-5.737-13.613a.868.868 0 0 1-.297-1.094.882.882 0 0 1 1.041-.46C35.35 3.847 42 9.616 42 20.235v1.742C42 33.205 32.776 42 21 42zM4.069 11.965c-1.538 2.886-2.319 5.997-2.319 9.14 0 10.56 8.636 19.154 19.25 19.154 10.794 0 19.25-8.03 19.25-18.283v-1.742c0-7.483-3.6-12.31-7.835-14.887 2.265 3.486 3.46 8.374 3.46 12.276 0 1.379-.175 2.754-.518 4.081-.108.411-.521.669-.917.651a.873.873 0 0 1-.801-.788 9.6 9.6 0 0 0-.408-2.026c.012.23.019.462.019.693 0 6.241-5.103 11.319-11.375 11.319-2.433 0-3.782-.446-5.77-1.912a.869.869 0 0 1 .52-1.57c1.594 0 2.896-.833 4.275-1.713.928-.592 1.878-1.198 2.925-1.525-.258-.143-.606-.245-1.075-.245-.59 0-.737.13-1.094.447-.768.683-1.664 1.294-4.156 1.294-4.382 0-7-2.656-7-5.224 0-1.584 1.325-2.838 2.637-3.38a3.354 3.354 0 0 1 1.076-.266 1.7 1.7 0 0 0-.115-.308.866.866 0 0 1 .292-1.123l2.902-1.924c-2.195-.16-3.518-.843-4.029-2.07-.507-1.223-.002-2.634.73-3.835-.79.63-1.383 1.409-1.762 1.907l-.163.214a.88.88 0 0 1-1.071.252c-.424-.11-3.078-.11-3.792.061-1.066.244-1.892-1.006-2.41-1.967a13.792 13.792 0 0 1-.838-1.92c-.65 1.618-.34 3.377.184 4.159a.868.868 0 0 1-.072 1.06z"/>
        <path fill="#1F5AF6" fill-rule="nonzero" d="M7.051 7.881l-.723.675-1.382-1.412.723-.675C9.497 2.895 13.443.834 17.502.319c4.021-.51 8.266.195 12.724 2.1l.916.392-.802 1.79-.916-.392c-4.14-1.77-8.024-2.415-11.664-1.953-3.602.457-7.17 2.321-10.709 5.625z"/>
    </g>
</svg>
