<svg xmlns="http://www.w3.org/2000/svg" width="28" height="28" viewBox="0 0 28 28">
    <g fill="none" fill-rule="evenodd">
        <circle cx="14" cy="14" r="14" fill="none"/>
        <path fill="#000" fill-rule="nonzero" d="M26.122 6.892a13.86 13.86 0 0 0-5.095-5.036C18.882.619 16.54 0 14 0S9.117.619 6.973 1.856a13.858 13.858 0 0 0-5.095 5.036C.626 9.012 0 11.328 0 13.838c0 3.015.89 5.727 2.67 8.135 1.78 2.409 4.08 4.076 6.9 5 .328.06.571.018.73-.126a.7.7 0 0 0 .236-.54l-.01-.973c-.005-.613-.008-1.147-.008-1.603l-.42.071a5.41 5.41 0 0 1-1.011.064 7.795 7.795 0 0 1-1.267-.127 2.847 2.847 0 0 1-1.222-.54 2.287 2.287 0 0 1-.801-1.108l-.183-.414a4.494 4.494 0 0 0-.574-.92c-.261-.336-.525-.564-.793-.684l-.127-.09a1.332 1.332 0 0 1-.237-.217.987.987 0 0 1-.164-.252c-.037-.084-.007-.153.09-.207.098-.055.274-.08.53-.08l.364.053c.243.048.544.192.902.432.359.24.653.553.884.937.28.493.617.868 1.012 1.126.395.259.793.388 1.194.388.4 0 .747-.03 1.039-.09.291-.06.565-.15.82-.27.11-.806.407-1.424.893-1.857a12.614 12.614 0 0 1-1.868-.324 7.488 7.488 0 0 1-1.714-.703 4.895 4.895 0 0 1-1.467-1.207c-.389-.48-.708-1.112-.957-1.892-.249-.781-.374-1.682-.374-2.703 0-1.454.48-2.69 1.44-3.712-.45-1.093-.407-2.318.128-3.676.353-.108.875-.027 1.568.244.693.27 1.2.501 1.522.693.322.192.58.355.775.487a13.086 13.086 0 0 1 3.5-.468c1.203 0 2.37.156 3.5.468l.693-.432a9.86 9.86 0 0 1 1.676-.793c.645-.24 1.137-.307 1.478-.198.546 1.357.595 2.582.145 3.675.96 1.021 1.44 2.259 1.44 3.712 0 1.021-.125 1.925-.373 2.712-.25.787-.571 1.417-.966 1.892a5.084 5.084 0 0 1-1.477 1.198c-.59.324-1.16.559-1.714.703a12.6 12.6 0 0 1-1.868.325c.632.54.948 1.393.948 2.558v3.802c0 .216.076.396.228.54.152.144.392.186.72.126 2.82-.925 5.12-2.592 6.9-5 1.78-2.409 2.67-5.12 2.67-8.135 0-2.51-.627-4.826-1.878-6.946z"/>
    </g>
</svg>
