<?xml version="1.0" encoding="UTF-8" standalone="no"?>
<svg
   width="14"
   height="14"
   viewBox="0 0 14 14"
   version="1.1"
   id="svg16345"
   sodipodi:docname="info-active-14.svg"
   inkscape:version="1.1 (c68e22c387, 2021-05-23)"
   xmlns:inkscape="http://www.inkscape.org/namespaces/inkscape"
   xmlns:sodipodi="http://sodipodi.sourceforge.net/DTD/sodipodi-0.dtd"
   xmlns="http://www.w3.org/2000/svg"
   xmlns:svg="http://www.w3.org/2000/svg"
   xmlns:rdf="http://www.w3.org/1999/02/22-rdf-syntax-ns#"
   xmlns:cc="http://creativecommons.org/ns#"
   xmlns:dc="http://purl.org/dc/elements/1.1/">
  <metadata
     id="metadata16351">
    <rdf:RDF>
      <cc:Work
         rdf:about="">
        <dc:format>image/svg+xml</dc:format>
        <dc:type
           rdf:resource="http://purl.org/dc/dcmitype/StillImage" />
      </cc:Work>
    </rdf:RDF>
  </metadata>
  <defs
     id="defs16349" />
  <sodipodi:namedview
     pagecolor="#ffffff"
     bordercolor="#666666"
     borderopacity="1"
     objecttolerance="10"
     gridtolerance="10"
     guidetolerance="10"
     inkscape:pageopacity="0"
     inkscape:pageshadow="2"
     inkscape:window-width="2560"
     inkscape:window-height="1377"
     id="namedview16347"
     showgrid="false"
     inkscape:zoom="16.857143"
     inkscape:cx="7.029661"
     inkscape:cy="7.029661"
     inkscape:window-x="-8"
     inkscape:window-y="-8"
     inkscape:window-maximized="1"
     inkscape:current-layer="svg16345"
     inkscape:pagecheckerboard="0" />
  <path
     fill="#1F5AF6"
     fill-rule="evenodd"
     d="M0 7c0 3.864 3.136 7 7 7s7-3.136 7-7-3.136-7-7-7-7 3.136-7 7zm6.2-2.844a.84.84 0 0 1 .202-.568c.139-.16.34-.238.595-.238.254 0 .457.078.597.237a.832.832 0 0 1 .206.57c0 .223-.07.414-.207.564-.141.154-.343.229-.596.229-.254 0-.455-.075-.594-.23a.816.816 0 0 1-.203-.564zM7 5.65a.7.7 0 0 1 .7.7v3.6a.7.7 0 0 1-1.4 0v-3.6a.7.7 0 0 1 .7-.7z"
     id="path16343"
     style="fill:#6800ff;fill-opacity:1" />
</svg>
