<svg xmlns="http://www.w3.org/2000/svg" width="24" height="24" viewBox="0 0 24 24">
    <g fill="none" fill-rule="evenodd">
        <path fill="#D8D8D8" fill-opacity="0" d="M0 0h24v24H0z"/>
        <path fill="#1F5AF6" d="M12.01 0C5.786 0 0 5.362 0 12c.012.603.05 1.19.125 1.71.224 1.466 1.02 1.81 1.679 1.751.335-.03.636-.185.834-.438.188-.24.304-.572.23-1.063-.017-.068-.022-.144-.032-.208A9.2 9.2 0 0 1 2.648 12c0-5.16 4.204-9.341 9.362-9.341 5.148 0 9.342 4.181 9.342 9.341 0 5.149-4.193 9.341-9.342 9.341a9.358 9.358 0 0 1-3.273-.583c-1.662-.704-2.744 1.544-1.053 2.44 1.317.622 3.02.793 4.326.802C18.636 24 24 18.638 24 12 23.886 5.044 17.933.098 12.01 0z"/>
    </g>
</svg>
