<svg xmlns="http://www.w3.org/2000/svg" width="18" height="18" viewBox="0 0 18 18">
    <g fill="none" fill-rule="nonzero">
        <path fill="none" d="M18 0H0v18h18z"/>
        <path fill="#000" d="M7.79 2.4h2V.6h-5.8v1.8h2v1.1H5a1 1 0 0 0-.866.5H1.8V2H0v9h1.8V8.9h2.283A1 1 0 0 0 5 9.5h4a1 1 0 0 0 .954-.7H12.7v2h5.1V7A2.8 2.8 0 0 0 15 4.2H9.954A1 1 0 0 0 9 3.5H7.79V2.4zM4 7.1H1.8V5.8H4v1.3zM10.5 6H15a1 1 0 0 1 1 1v2h-1.5V8a1 1 0 0 0-1-1h-3V6zM5.8 7.7V5.3h2.4v2.4H5.8z"/>
        <path fill="#1F5AF6" d="M15.144 17.9c1.525 0 2.845-1.013 2.845-2.844 0-.078-.004-.155-.01-.233-.073-.84-.508-1.647-1.174-2.438a8.248 8.248 0 0 0-1.098-1.088l-.563-.45-.562.45c-.285.228-.69.604-1.098 1.088-.667.79-1.102 1.599-1.174 2.438-.007.078-.01.155-.01.233 0 1.83 1.32 2.844 2.844 2.844zm.285-4.354c.449.532.723 1.041.756 1.432a.908.908 0 0 1 .004.078c0 .717-.426 1.044-1.045 1.044-.618 0-1.044-.327-1.044-1.044l.003-.078c.034-.391.308-.9.757-1.432.092-.11.187-.215.284-.316.098.101.193.207.285.316z"/>
    </g>
</svg>
