<?xml version="1.0" encoding="UTF-8" standalone="no"?>
<svg
   xmlns:dc="http://purl.org/dc/elements/1.1/"
   xmlns:cc="http://creativecommons.org/ns#"
   xmlns:rdf="http://www.w3.org/1999/02/22-rdf-syntax-ns#"
   xmlns:svg="http://www.w3.org/2000/svg"
   xmlns="http://www.w3.org/2000/svg"
   xmlns:sodipodi="http://sodipodi.sourceforge.net/DTD/sodipodi-0.dtd"
   xmlns:inkscape="http://www.inkscape.org/namespaces/inkscape"
   width="46px"
   height="129px"
   viewBox="0 0 46 129"
   version="1.1"
   id="svg2806"
   sodipodi:docname="menu-sprite.svg"
   inkscape:version="0.92.4 (5da689c313, 2019-01-14)">
  <metadata
     id="metadata2812">
    <rdf:RDF>
      <cc:Work
         rdf:about="">
        <dc:format>image/svg+xml</dc:format>
        <dc:type
           rdf:resource="http://purl.org/dc/dcmitype/StillImage" />
      </cc:Work>
    </rdf:RDF>
  </metadata>
  <defs
     id="defs2810" />
  <sodipodi:namedview
     pagecolor="#ffffff"
     bordercolor="#666666"
     borderopacity="1"
     objecttolerance="10"
     gridtolerance="10"
     guidetolerance="10"
     inkscape:pageopacity="0"
     inkscape:pageshadow="2"
     inkscape:window-width="1600"
     inkscape:window-height="837"
     id="namedview2808"
     showgrid="false"
     inkscape:zoom="10.348974"
     inkscape:cx="-3.1628926"
     inkscape:cy="6.0316284"
     inkscape:window-x="-8"
     inkscape:window-y="-8"
     inkscape:window-maximized="1"
     inkscape:current-layer="menu-sprite" />
 <!-- Generator: Sketch 53 (72520) - https://sketchapp.com -->
 <title id="title2737">menu-sprite</title>
 <desc id="desc2739">Created with Sketch.</desc>
 <g>
  <title>Layer 1</title>
  <g fill-rule="evenodd" fill="none" id="Page-1">
   <g id="menu-sprite">
    <g fill-rule="nonzero" id="menu-blocks-active">
     <polygon points="0,-1 18,-1 18,17 0,17 " fill="#D8D8D8" fill-opacity="0" id="Path"/>
     <path fill="#000000" id="Shape" d="m0.48,13.775l4.014,0l0,1.752c0,0.26 0.216,0.473 0.48,0.473l12.546,0c0.265,0 0.481,-0.213 0.481,-0.473l0,-5.278c-0.0022,-0.26321 -0.21678,-0.47511 -0.48,-0.474l-12.547,0c-0.26361,-0.00166 -0.4788,0.2104 -0.481,0.474l0,1.751l-2.691,0l0,-6.225l2.692,0l0,1.752c0,0.26 0.216,0.473 0.48,0.473l12.546,0c0.265,0 0.481,-0.213 0.481,-0.473l0,-5.278c-0.0022,-0.26321 -0.21678,-0.47511 -0.48,-0.474l-12.547,0c-0.26361,-0.00166 -0.4788,0.2104 -0.481,0.474l0,1.751l-2.691,0l0,-3.527c-0.00275,-0.26282 -0.21717,-0.47411 -0.48,-0.473l-0.842,0c-0.26283,-0.00111 -0.47725,0.21018 -0.48,0.473l0,12.805c0,0.284 0.216,0.497 0.48,0.497zm5.84,0l0,-2.225l9.902,0l0,2.651l-9.902,0l0,-0.426zm0,-8l0,-2.225l9.902,0l0,2.651l-9.902,0l0,-0.426z"/>
     <path fill="#6800ff" id="path2743" d="m1.802,5.775l2.692,0l0,1.752c0,0.26 0.216,0.473 0.48,0.473l12.546,0c0.265,0 0.481,-0.213 0.481,-0.473l0,-5.278c-0.0022,-0.26321 -0.21678,-0.47511 -0.48,-0.474l-12.547,0c-0.26361,-0.00166 -0.4788,0.2104 -0.481,0.474l0,1.751l-2.691,0l0,1.775zm4.518,0l0,-2.225l9.902,0l0,2.651l-9.902,0l0,-0.426z"/>
    </g>
    <g id="menu-faucet-active">
     <polygon points="18,111 0,111 0,129 18,129 " id="polygon2746"/>
     <path fill-rule="nonzero" fill="#000000" id="path2748" d="m7.79,113.4l2,0l0,-1.8l-5.8,0l0,1.8l2,0l0,1.1l-0.99,0c-0.35726,0.00001 -0.68737,0.19061 -0.866,0.5l-2.334,0l0,-2l-1.8,0l0,9l1.8,0l0,-2.1l2.283,0c0.15912,0.36459 0.5192,0.60019 0.917,0.6l4,0c0.43674,0.00003 0.82298,-0.28338 0.954,-0.7l2.746,0l0,2l5.1,0l0,-3.8c0,-1.5464 -1.2536,-2.8 -2.8,-2.8l-5.046,0c-0.13102,-0.41662 -0.51726,-0.70003 -0.954,-0.7l-1.21,0l0,-1.1zm-3.79,4.7l-2.2,0l0,-1.3l2.2,0l0,1.3zm6.5,-1.1l4.5,0c0.55228,0 1,0.44772 1,1l0,2l-1.5,0l0,-1c0,-0.55228 -0.44772,-1 -1,-1l-3,0l0,-1zm-4.7,1.7l0,-2.4l2.4,0l0,2.4l-2.4,0l0,0z"/>
     <path fill-rule="nonzero" fill="#6800ff" id="path2750" d="m15.144,128.9c1.525,0 2.845,-1.013 2.845,-2.844c0,-0.078 -0.004,-0.155 -0.01,-0.233c-0.073,-0.84 -0.508,-1.647 -1.174,-2.438c-0.33113,-0.39624 -0.69875,-0.7605 -1.098,-1.088l-0.563,-0.45l-0.562,0.45c-0.285,0.228 -0.69,0.604 -1.098,1.088c-0.667,0.79 -1.102,1.599 -1.174,2.438c-0.007,0.078 -0.01,0.155 -0.01,0.233c0,1.83 1.32,2.844 2.844,2.844l0,0zm0.285,-4.354c0.449,0.532 0.723,1.041 0.756,1.432c0.00245,0.02593 0.00379,0.05195 0.004,0.078c0,0.717 -0.426,1.044 -1.045,1.044c-0.618,0 -1.044,-0.327 -1.044,-1.044l0.003,-0.078c0.034,-0.391 0.308,-0.9 0.757,-1.432c0.092,-0.11 0.187,-0.215 0.284,-0.316c0.098,0.101 0.193,0.207 0.285,0.316l0,0z"/>
    </g>
    <g id="g2759">
     <polygon points="46,111 28,111 28,129 46,129 " id="polygon2753"/>
     <path fill-rule="nonzero" fill="#9BA6B2" id="path2755" d="m35.79,113.4l2,0l0,-1.8l-5.8,0l0,1.8l2,0l0,1.1l-0.99,0c-0.35726,0.00001 -0.68737,0.19061 -0.866,0.5l-2.334,0l0,-2l-1.8,0l0,9l1.8,0l0,-2.1l2.283,0c0.15912,0.36459 0.5192,0.60019 0.917,0.6l4,0c0.43674,0.00003 0.82298,-0.28338 0.954,-0.7l2.746,0l0,2l5.1,0l0,-3.8c0,-1.5464 -1.2536,-2.8 -2.8,-2.8l-5.046,0c-0.13102,-0.41662 -0.51726,-0.70003 -0.954,-0.7l-1.21,0l0,-1.1zm-3.79,4.7l-2.2,0l0,-1.3l2.2,0l0,1.3zm6.5,-1.1l4.5,0c0.55228,0 1,0.44772 1,1l0,2l-1.5,0l0,-1c0,-0.55228 -0.44772,-1 -1,-1l-3,0l0,-1zm-4.7,1.7l0,-2.4l2.4,0l0,2.4l-2.4,0l0,0z"/>
     <path fill-rule="nonzero" fill="#9BA6B2" id="path2757" d="m43.144,128.9c1.525,0 2.845,-1.013 2.845,-2.844c0,-0.078 -0.004,-0.155 -0.01,-0.233c-0.073,-0.84 -0.508,-1.647 -1.174,-2.438c-0.33113,-0.39624 -0.69875,-0.7605 -1.098,-1.088l-0.563,-0.45l-0.562,0.45c-0.285,0.228 -0.69,0.604 -1.098,1.088c-0.667,0.79 -1.102,1.599 -1.174,2.438c-0.007,0.078 -0.01,0.155 -0.01,0.233c0,1.83 1.32,2.844 2.844,2.844l0,0zm0.285,-4.354c0.449,0.532 0.723,1.041 0.756,1.432c0.00245,0.02593 0.00379,0.05195 0.004,0.078c0,0.717 -0.426,1.044 -1.045,1.044c-0.618,0 -1.044,-0.327 -1.044,-1.044l0.003,-0.078c0.034,-0.391 0.308,-0.9 0.757,-1.432c0.092,-0.11 0.187,-0.215 0.284,-0.316c0.098,0.101 0.193,0.207 0.285,0.316l0,0z"/>
    </g>
    <g id="menu-blocks-default">
     <polygon points="28,-1 46,-1 46,17 28,17 " id="polygon2761"/>
     <path fill-rule="nonzero" fill="#9BA6B2" id="path2763" d="m28.48,13.775l4.014,0l0,1.752c0,0.26 0.216,0.473 0.48,0.473l12.546,0c0.265,0 0.481,-0.213 0.481,-0.473l0,-5.278c-0.0022,-0.26321 -0.21678,-0.47511 -0.48,-0.474l-12.547,0c-0.26361,-0.00166 -0.4788,0.2104 -0.481,0.474l0,1.751l-2.691,0l0,-6.225l2.692,0l0,1.752c0,0.26 0.216,0.473 0.48,0.473l12.546,0c0.265,0 0.481,-0.213 0.481,-0.473l0,-5.278c-0.0022,-0.26321 -0.21678,-0.47511 -0.48,-0.474l-12.547,0c-0.26361,-0.00166 -0.4788,0.2104 -0.481,0.474l0,1.751l-2.691,0l0,-3.527c-0.00275,-0.26282 -0.21717,-0.47411 -0.48,-0.473l-0.842,0c-0.26283,-0.00111 -0.47725,0.21018 -0.48,0.473l0,12.805c0,0.284 0.216,0.497 0.48,0.497zm5.84,0l0,-2.225l9.902,0l0,2.651l-9.902,0l0,-0.426zm0,-8l0,-2.225l9.902,0l0,2.651l-9.902,0l0,-0.426z"/>
    </g>
    <g fill-rule="nonzero" id="menu-general-active">
     <path fill="#000000" id="path2766" d="m9,27.024l0,17.952l8.976,0l0,-17.952l-8.976,0zm7.18,16.157l-5.385,0l0,-14.362l5.386,0l0,14.362l-0.001,0z"/>
     <path fill="#6800ff" id="path2768" d="m8.2,28.867l-0.195,-1.786c-3.03351,0.33178 -5.68764,2.18944 -7.038,4.926c-1.0899,2.17272 -1.24205,4.6971 -0.421,6.985l0.838,-0.297l-0.838,0.297c1.15391,3.2351 4.04589,5.53341 7.458,5.927l0.197,-1.786c-0.34,-0.038 -0.67,-0.1 -0.996,-0.182l0,-3.36l0.9,0l0,-1.796l-0.9,0l0,-4.49l0.9,0l0,-1.795l-0.9,0l0,-2.456c0.325,-0.082 0.656,-0.149 0.996,-0.187l-0.001,0zm-2.79,13.337c-1.07778,-0.6323 -1.9735,-1.53284 -2.6,-2.614l2.6,0l0,2.614zm0,-4.409l-3.356,0c-0.15393,-0.58599 -0.2329,-1.18914 -0.235,-1.795c0,-0.929 0.192,-1.834 0.541,-2.695l3.05,0l0,4.49zm0,-6.28l-1.992,0c0.5501,-0.69334 1.22588,-1.27684 1.992,-1.72l0,1.72z"/>
     <path fill="#000000" id="path2770" d="m11.695,30.614l3.59,0l0,1.796l-3.59,0l0,-1.796zm0.895,7.181l1.796,0l0,1.795l-1.796,0l0,-1.795z"/>
    </g>
    <g fill-rule="nonzero" fill="#9BA6B2" id="menu-general-default">
     <path id="path2773" d="m37,27.024l0,17.952l8.976,0l0,-17.952l-8.976,0zm7.18,16.157l-5.385,0l0,-14.362l5.386,0l0,14.362l-0.001,0zm-7.98,-14.314l-0.195,-1.786c-3.03351,0.33178 -5.68764,2.18944 -7.038,4.926c-1.0899,2.17272 -1.24205,4.6971 -0.421,6.985l0.838,-0.297l-0.838,0.297c1.15391,3.2351 4.04589,5.53341 7.458,5.927l0.197,-1.786c-0.34,-0.038 -0.67,-0.1 -0.996,-0.182l0,-3.36l0.9,0l0,-1.796l-0.9,0l0,-4.49l0.9,0l0,-1.795l-0.9,0l0,-2.456c0.325,-0.082 0.656,-0.149 0.996,-0.187l-0.001,0zm-2.79,13.337c-1.07778,-0.6323 -1.9735,-1.53284 -2.6,-2.614l2.6,0l0,2.614zm0,-4.409l-3.356,0c-0.15393,-0.58599 -0.2329,-1.18914 -0.235,-1.795c0,-0.929 0.192,-1.834 0.541,-2.695l3.05,0l0,4.49zm0,-6.28l-1.992,0c0.5501,-0.69334 1.22588,-1.27684 1.992,-1.72l0,1.72z"/>
     <path id="path2775" d="m39.695,30.614l3.59,0l0,1.796l-3.59,0l0,-1.796zm0.895,7.181l1.796,0l0,1.795l-1.796,0l0,-1.795z"/>
    </g>
    <g fill-rule="nonzero" id="menu-nodes-active">
     <path fill="#6800ff" id="path2778" d="m11.695,64c-3.125,0 -6.285,0.833 -6.285,2.695l0,3.59c0,1.863 3.154,2.696 6.285,2.696c3.126,0 6.286,-0.833 6.286,-2.695l0,-3.59c-0.005,-1.864 -3.161,-2.696 -6.286,-2.696zm0,1.795c2.48,0 3.983,0.565 4.404,0.9c-0.42,0.33 -1.924,0.9 -4.404,0.9c-2.48,0 -3.983,-0.565 -4.404,-0.9c0.416,-0.335 1.92,-0.9 4.404,-0.9zm0,5.386c-2.68,0 -4.222,-0.66 -4.49,-0.972l0,-1.541c1.197,0.488 2.843,0.722 4.49,0.722c1.642,0 3.289,-0.234 4.49,-0.722l0,1.541c-0.267,0.311 -1.809,0.972 -4.49,0.972z"/>
     <path fill="#000000" id="path2780" d="m2.72,62.205l7.18,0c1.48772,-0.00165 2.69335,-1.20728 2.695,-2.695c-0.00037,-0.7949 -0.35178,-1.54906 -0.96017,-2.06064c-0.60839,-0.51159 -1.41166,-0.72838 -2.19483,-0.59236c-0.63114,-1.13593 -1.83052,-1.83832 -3.13,-1.833c-1.29949,-0.00439 -2.49873,0.69769 -3.131,1.833c-0.78363,-0.13468 -1.58676,0.08315 -2.19494,0.59533c-0.60818,0.51218 -0.95947,1.26655 -0.96006,2.06167c0,0.7143 0.28409,1.39927 0.78965,1.90389c0.50555,0.50461 1.19105,0.78744 1.90535,0.78611l0.001,0.001zm0,-3.59c0.171,0 0.339,0.052 0.483,0.143c0.24568,0.15682 0.55146,0.18691 0.823,0.081c0.27272,-0.10968 0.4747,-0.34563 0.541,-0.632c0.18486,-0.81324 0.90902,-1.38949 1.743,-1.387c0.837,0 1.55,0.57 1.742,1.388c0.06601,0.28443 0.26633,0.51893 0.53695,0.62857c0.27063,0.10964 0.57768,0.0807 0.82305,-0.07757c0.584,-0.373 1.383,0.086 1.383,0.752c0,0.493 -0.402,0.9 -0.9,0.9l-7.18,0c-0.4966,-0.0011 -0.8989,-0.4034 -0.9,-0.9c0,-0.498 0.406,-0.896 0.904,-0.896l0.001,0z"/>
     <path fill="#000000" id="path2782" d="m0.024,64l1.795,0l0,1.795l-1.795,0l0,-1.795zm0,3.59l1.795,0l0,1.796l-1.795,0l0,-1.796zm2.695,0l1.795,0l0,1.796l-1.794,0l0,-1.796l-0.001,0z"/>
    </g>
    <g fill-rule="nonzero" fill="#9BA6B2" id="menu-nodes-default">
     <path id="path2785" d="m39.695,64c-3.125,0 -6.285,0.833 -6.285,2.695l0,3.59c0,1.863 3.154,2.696 6.285,2.696c3.126,0 6.286,-0.833 6.286,-2.695l0,-3.59c-0.005,-1.864 -3.161,-2.696 -6.286,-2.696zm0,1.795c2.48,0 3.983,0.565 4.404,0.9c-0.42,0.33 -1.924,0.9 -4.404,0.9c-2.48,0 -3.983,-0.565 -4.404,-0.9c0.416,-0.335 1.92,-0.9 4.404,-0.9zm0,5.386c-2.68,0 -4.222,-0.66 -4.49,-0.972l0,-1.541c1.197,0.488 2.843,0.722 4.49,0.722c1.642,0 3.289,-0.234 4.49,-0.722l0,1.541c-0.267,0.311 -1.809,0.972 -4.49,0.972zm-8.975,-8.976l7.18,0c1.48772,-0.00165 2.69335,-1.20728 2.695,-2.695c-0.00037,-0.7949 -0.35178,-1.54906 -0.96017,-2.06064c-0.60839,-0.51159 -1.41166,-0.72838 -2.19483,-0.59236c-0.63114,-1.13593 -1.83052,-1.83832 -3.13,-1.833c-1.29949,-0.00439 -2.49873,0.69769 -3.131,1.833c-0.78363,-0.13468 -1.58676,0.08315 -2.19494,0.59533c-0.60818,0.51218 -0.95947,1.26655 -0.96006,2.06167c0,0.7143 0.28409,1.39927 0.78965,1.90389c0.50555,0.50461 1.19105,0.78744 1.90535,0.78611l0.001,0.001zm0,-3.59c0.171,0 0.339,0.052 0.483,0.143c0.24568,0.15682 0.55146,0.18691 0.823,0.081c0.27272,-0.10968 0.4747,-0.34563 0.541,-0.632c0.18486,-0.81324 0.90902,-1.38949 1.743,-1.387c0.837,0 1.55,0.57 1.742,1.388c0.06601,0.28443 0.26633,0.51893 0.53695,0.62857c0.27063,0.10964 0.57768,0.0807 0.82305,-0.07757c0.584,-0.373 1.383,0.086 1.383,0.752c0,0.493 -0.402,0.9 -0.9,0.9l-7.18,0c-0.4966,-0.0011 -0.8989,-0.4034 -0.9,-0.9c0,-0.498 0.406,-0.896 0.904,-0.896l0.001,0z"/>
     <path id="path2787" d="m28.024,64l1.795,0l0,1.795l-1.795,0l0,-1.795zm0,3.59l1.795,0l0,1.795l-1.795,0l0,-1.795zm2.695,0l1.795,0l0,1.795l-1.795,0l0,-1.795z"/>
    </g>
    <g fill-rule="nonzero" id="menu-peers-active">
     <polygon points="0,83 18,83 18,101 0,101 " fill="#D8D8D8" fill-opacity="0" id="polygon2790"/>
     <path fill="#000000" id="path2792" d="m14.912,85.662c-0.694,-1.597 -2.302,-2.662 -4.117,-2.662c-1.095,0 -2.14,0.397 -2.954,1.102c-0.403,-0.14897 -0.82935,-0.22483 -1.259,-0.224c-1.2703,-0.00382 -2.44805,0.66396 -3.097,1.756c-1.92,0.07 -3.455,1.611 -3.455,3.498c0,1.934 1.608,3.503 3.59,3.503l10.77,0c1.982,0 3.59,-1.57 3.59,-3.503c-0.004,-1.76 -1.335,-3.218 -3.068,-3.47zm-0.526,5.217l-10.772,0c-0.99,0 -1.795,-0.785 -1.795,-1.752c0,-0.966 0.804,-1.75 1.795,-1.75c0.096,0 0.192,0.013 0.283,0.032c0.42752,0.06885 0.84347,-0.17652 0.99,-0.584c0.25225,-0.71706 0.92987,-1.19661 1.69,-1.196c0.34,0 0.67,0.098 0.968,0.28c0.38316,0.2397 0.88413,0.16223 1.177,-0.182c0.51185,-0.61694 1.27138,-0.97453 2.073,-0.976c1.226,0 2.293,0.813 2.6,1.98c0.105,0.402 0.478,0.668 0.91,0.66c0.047,0 0.095,-0.01 0.085,-0.01c0.991,0 1.796,0.784 1.796,1.751c0,0.967 -0.81,1.747 -1.8,1.747z"/>
     <path fill="#6800ff" id="path2794" d="m6.31,97.651l0,-4.143l-1.796,0l0,4.143l-1.163,-1.135l-1.269,1.238l3.328,3.246l3.327,-3.246l-1.269,-1.238l-1.158,1.135zm3.849,-1.261l1.273,1.237l1.158,-1.13l0,4.143l1.796,0l0,-4.143l1.158,1.13l1.274,-1.237l-3.328,-3.246l-3.331,3.246z"/>
    </g>
    <g id="menu-peers-default">
     <polygon points="28,83 46,83 46,101 28,101 " id="polygon2797"/>
     <path fill-rule="nonzero" fill="#9BA6B2" id="path2799" d="m42.912,85.662c-0.694,-1.597 -2.302,-2.662 -4.117,-2.662c-1.095,0 -2.14,0.397 -2.954,1.102c-0.403,-0.14897 -0.82935,-0.22483 -1.259,-0.224c-1.2703,-0.00382 -2.44805,0.66396 -3.097,1.756c-1.92,0.07 -3.455,1.611 -3.455,3.498c0,1.934 1.608,3.503 3.59,3.503l10.77,0c1.982,0 3.59,-1.57 3.59,-3.503c-0.004,-1.76 -1.335,-3.218 -3.068,-3.47zm-0.526,5.217l-10.772,0c-0.99,0 -1.795,-0.785 -1.795,-1.752c0,-0.966 0.804,-1.75 1.795,-1.75c0.096,0 0.192,0.013 0.283,0.032c0.42752,0.06885 0.84347,-0.17652 0.99,-0.584c0.25225,-0.71706 0.92987,-1.19661 1.69,-1.196c0.34,0 0.67,0.098 0.968,0.28c0.38316,0.2397 0.88413,0.16223 1.177,-0.182c0.51185,-0.61694 1.27138,-0.97453 2.073,-0.976c1.226,0 2.293,0.813 2.6,1.98c0.105,0.402 0.478,0.668 0.91,0.66c0.047,0 0.095,-0.01 0.085,-0.01c0.991,0 1.796,0.784 1.796,1.751c0,0.967 -0.81,1.747 -1.8,1.747z"/>
     <path fill-rule="nonzero" fill="#9BA6B2" id="path2801" d="m34.31,97.651l0,-4.143l-1.796,0l0,4.143l-1.163,-1.135l-1.269,1.238l3.328,3.246l3.327,-3.246l-1.269,-1.238l-1.158,1.135zm3.849,-1.261l1.273,1.237l1.158,-1.13l0,4.143l1.796,0l0,-4.143l1.158,1.13l1.274,-1.237l-3.328,-3.246l-3.331,3.246z"/>
    </g>
   </g>
  </g>
 </g>
</svg>