<?xml version="1.0" encoding="UTF-8"?>
<svg width="46px" height="102px" viewBox="0 0 46 102" version="1.1" xmlns="http://www.w3.org/2000/svg" xmlns:xlink="http://www.w3.org/1999/xlink">
    <!-- Generator: Sketch 52.5 (67469) - http://www.bohemiancoding.com/sketch -->
    <title>menu-sprite</title>
    <desc>Created with Sketch.</desc>
    <g id="menu-sprite" stroke="none" stroke-width="1" fill="none" fill-rule="evenodd">
        <g id="menu-blocks-active">
            <polygon id="Path" fill-opacity="0" fill="#D8D8D8" points="0 0 18 0 18 18 0 18"></polygon>
            <path d="M0.48,14.775 L4.494,14.775 L4.494,16.527 C4.494,16.787 4.71,17 4.974,17 L17.52,17 C17.785,17 18.001,16.787 18.001,16.527 L18.001,11.249 C17.9987997,10.9857896 17.7842172,10.7738895 17.521,10.775 L4.974,10.775 C4.71039337,10.7733363 4.49520071,10.9853973 4.493,11.249 L4.493,13 L1.802,13 L1.802,6.775 L4.494,6.775 L4.494,8.527 C4.494,8.787 4.71,9 4.974,9 L17.52,9 C17.785,9 18.001,8.787 18.001,8.527 L18.001,3.249 C17.9987997,2.98578964 17.7842172,2.77388947 17.521,2.775 L4.974,2.775 C4.71039337,2.77333635 4.49520071,2.98539731 4.493,3.249 L4.493,5 L1.802,5 L1.802,1.473 C1.79925306,1.21018123 1.58483076,0.998885925 1.322,1 L0.48,1 C0.21716924,0.998885925 0.0027469393,1.21018123 0,1.473 L0,14.278 C0,14.562 0.216,14.775 0.48,14.775 Z M6.32,14.775 L6.32,12.55 L16.222,12.55 L16.222,15.201 L6.32,15.201 L6.32,14.775 Z M6.32,6.775 L6.32,4.55 L16.222,4.55 L16.222,7.201 L6.32,7.201 L6.32,6.775 Z" id="Shape" fill="#000000" fill-rule="nonzero"></path>
            <path d="M1.802,6.775 L4.494,6.775 L4.494,8.527 C4.494,8.787 4.71,9 4.974,9 L17.52,9 C17.785,9 18.001,8.787 18.001,8.527 L18.001,3.249 C17.9987997,2.98578964 17.7842172,2.77388947 17.521,2.775 L4.974,2.775 C4.71039337,2.77333635 4.49520071,2.98539731 4.493,3.249 L4.493,5 L1.802,5 L1.802,6.775 Z M6.32,6.775 L6.32,4.55 L16.222,4.55 L16.222,7.201 L6.32,7.201 L6.32,6.775 Z" id="Shape" fill="#1F5AF6" fill-rule="nonzero"></path>
        </g>
        <g id="menu-blocks-default" transform="translate(28.000000, 0.000000)">
            <polygon id="Path" points="0 0 18 0 18 18 0 18"></polygon>
            <path d="M0.48,14.775 L4.494,14.775 L4.494,16.527 C4.494,16.787 4.71,17 4.974,17 L17.52,17 C17.785,17 18.001,16.787 18.001,16.527 L18.001,11.249 C17.9987997,10.9857896 17.7842172,10.7738895 17.521,10.775 L4.974,10.775 C4.71039337,10.7733363 4.49520071,10.9853973 4.493,11.249 L4.493,13 L1.802,13 L1.802,6.775 L4.494,6.775 L4.494,8.527 C4.494,8.787 4.71,9 4.974,9 L17.52,9 C17.785,9 18.001,8.787 18.001,8.527 L18.001,3.249 C17.9987997,2.98578964 17.7842172,2.77388947 17.521,2.775 L4.974,2.775 C4.71039337,2.77333635 4.49520071,2.98539731 4.493,3.249 L4.493,5 L1.802,5 L1.802,1.473 C1.79925306,1.21018123 1.58483076,0.998885925 1.322,1 L0.48,1 C0.21716924,0.998885925 0.0027469393,1.21018123 0,1.473 L0,14.278 C0,14.562 0.216,14.775 0.48,14.775 Z M6.32,14.775 L6.32,12.55 L16.222,12.55 L16.222,15.201 L6.32,15.201 L6.32,14.775 Z M6.32,6.775 L6.32,4.55 L16.222,4.55 L16.222,7.201 L6.32,7.201 L6.32,6.775 Z" id="Shape" fill="#9BA6B2" fill-rule="nonzero"></path>
        </g>
        <g id="menu-general-active" transform="translate(0.000000, 28.000000)" fill-rule="nonzero">
            <path d="M9,0.024 L9,17.976 L17.976,17.976 L17.976,0.024 L9,0.024 Z M16.18,16.181 L10.795,16.181 L10.795,1.819 L16.181,1.819 L16.181,16.181 L16.18,16.181 Z" id="Shape" fill="#000000"></path>
            <path d="M8.2,1.867 L8.005,0.081 C4.97149295,0.412775031 2.31736259,2.27044002 0.967,5.007 C-0.12290462,7.1797195 -0.275054301,9.70410316 0.546,11.992 L1.384,11.695 L0.546,11.992 C1.69990885,15.2271023 4.59189218,17.5254108 8.004,17.919 L8.201,16.133 C7.861,16.095 7.531,16.033 7.205,15.951 L7.205,12.591 L8.105,12.591 L8.105,10.795 L7.205,10.795 L7.205,6.305 L8.105,6.305 L8.105,4.51 L7.205,4.51 L7.205,2.054 C7.53,1.972 7.861,1.905 8.201,1.867 L8.2,1.867 Z M5.41,15.204 C4.33222401,14.5717048 3.43649831,13.671156 2.81,12.59 L5.41,12.59 L5.41,15.204 Z M5.41,10.795 L2.054,10.795 C1.90006871,10.209013 1.82110491,9.60586397 1.819,9 C1.819,8.071 2.011,7.166 2.36,6.305 L5.41,6.305 L5.41,10.795 Z M5.41,4.515 L3.418,4.515 C3.96809825,3.82166271 4.64388119,3.23815534 5.41,2.795 L5.41,4.515 Z" id="Shape" fill="#1F5AF6"></path>
            <path d="M11.695,3.614 L15.285,3.614 L15.285,5.41 L11.695,5.41 L11.695,3.614 Z M12.59,10.795 L14.386,10.795 L14.386,12.59 L12.59,12.59 L12.59,10.795 Z" id="Shape" fill="#000000"></path>
        </g>
        <g id="menu-general-default" transform="translate(28.000000, 28.000000)" fill="#9BA6B2">
            <path d="M9,0.024 L9,17.976 L17.976,17.976 L17.976,0.024 L9,0.024 Z M16.18,16.181 L10.795,16.181 L10.795,1.819 L16.181,1.819 L16.181,16.181 L16.18,16.181 Z M8.2,1.867 L8.005,0.081 C4.97149295,0.412775031 2.31736259,2.27044002 0.967,5.007 C-0.12290462,7.1797195 -0.275054301,9.70410316 0.546,11.992 L1.384,11.695 L0.546,11.992 C1.69990885,15.2271023 4.59189218,17.5254108 8.004,17.919 L8.201,16.133 C7.861,16.095 7.531,16.033 7.205,15.951 L7.205,12.591 L8.105,12.591 L8.105,10.795 L7.205,10.795 L7.205,6.305 L8.105,6.305 L8.105,4.51 L7.205,4.51 L7.205,2.054 C7.53,1.972 7.861,1.905 8.201,1.867 L8.2,1.867 Z M5.41,15.204 C4.33222401,14.5717048 3.43649831,13.671156 2.81,12.59 L5.41,12.59 L5.41,15.204 Z M5.41,10.795 L2.054,10.795 C1.90006871,10.209013 1.82110491,9.60586397 1.819,9 C1.819,8.071 2.011,7.166 2.36,6.305 L5.41,6.305 L5.41,10.795 Z M5.41,4.515 L3.418,4.515 C3.96809825,3.82166271 4.64388119,3.23815534 5.41,2.795 L5.41,4.515 Z" id="Shape"></path>
            <path d="M11.695,3.614 L15.285,3.614 L15.285,5.41 L11.695,5.41 L11.695,3.614 Z M12.59,10.795 L14.386,10.795 L14.386,12.59 L12.59,12.59 L12.59,10.795 Z" id="Shape"></path>
        </g>
        <g id="menu-nodes-active" transform="translate(0.000000, 56.000000)" fill-rule="nonzero">
            <path d="M11.695,9 C8.57,9 5.41,9.833 5.41,11.695 L5.41,15.285 C5.41,17.148 8.564,17.981 11.695,17.981 C14.821,17.981 17.981,17.148 17.981,15.286 L17.981,11.696 C17.976,9.832 14.82,9 11.695,9 Z M11.695,10.795 C14.175,10.795 15.678,11.36 16.099,11.695 C15.679,12.025 14.175,12.595 11.695,12.595 C9.215,12.595 7.712,12.03 7.291,11.695 C7.707,11.36 9.211,10.795 11.695,10.795 Z M11.695,16.181 C9.015,16.181 7.473,15.521 7.205,15.209 L7.205,13.668 C8.402,14.156 10.048,14.39 11.695,14.39 C13.337,14.39 14.984,14.156 16.185,13.668 L16.185,15.209 C15.918,15.52 14.376,16.181 11.695,16.181 Z" id="Shape" fill="#1F5AF6"></path>
            <path d="M2.72,7.205 L9.9,7.205 C11.387722,7.20334667 12.5933467,5.99772203 12.595,4.51 C12.5946272,3.71510218 12.2432236,2.96094463 11.6348324,2.44935609 C11.0264412,1.93776755 10.2231732,1.72097618 9.44,1.857 C8.80885982,0.721066857 7.60948212,0.0186836862 6.31,0.024 C5.01050812,0.019610971 3.81126997,0.721688113 3.179,1.857 C2.39537313,1.72231921 1.59223897,1.9401536 0.98406058,2.45233426 C0.37588219,2.96451492 0.0245934744,3.71888389 0.024,4.514 C0.0239987661,5.22829951 0.30809492,5.91327036 0.813649703,6.41788719 C1.31920449,6.92250403 2.00470173,7.20532769 2.719,7.204 L2.72,7.205 Z M2.72,3.615 C2.891,3.615 3.059,3.667 3.203,3.758 C3.44867828,3.91481712 3.75446374,3.94491265 4.026,3.839 C4.29872141,3.72932232 4.50069629,3.49337385 4.567,3.207 C4.75185796,2.39376192 5.47602013,1.81750665 6.31,1.82 C7.147,1.82 7.86,2.39 8.052,3.208 C8.11801097,3.49242959 8.31833179,3.72693029 8.5889539,3.83657204 C8.85957601,3.9462138 9.16662894,3.91727408 9.412,3.759 C9.996,3.386 10.795,3.845 10.795,4.511 C10.795,5.004 10.393,5.411 9.895,5.411 L2.715,5.411 C2.21840003,5.40990011 1.81609989,5.00759997 1.815,4.511 C1.815,4.013 2.221,3.615 2.719,3.615 L2.72,3.615 Z" id="Shape" fill="#000000"></path>
            <path d="M0.024,9 L1.819,9 L1.819,10.795 L0.024,10.795 L0.024,9 Z M0.024,12.59 L1.819,12.59 L1.819,14.386 L0.024,14.386 L0.024,12.59 Z M2.719,12.59 L4.514,12.59 L4.514,14.386 L2.72,14.386 L2.72,12.59 L2.719,12.59 Z" id="Shape" fill="#000000"></path>
        </g>
        <g id="menu-nodes-default" transform="translate(28.000000, 56.000000)" fill="#9BA6B2">
            <path d="M11.695,9 C8.57,9 5.41,9.833 5.41,11.695 L5.41,15.285 C5.41,17.148 8.564,17.981 11.695,17.981 C14.821,17.981 17.981,17.148 17.981,15.286 L17.981,11.696 C17.976,9.832 14.82,9 11.695,9 Z M11.695,10.795 C14.175,10.795 15.678,11.36 16.099,11.695 C15.679,12.025 14.175,12.595 11.695,12.595 C9.215,12.595 7.712,12.03 7.291,11.695 C7.707,11.36 9.211,10.795 11.695,10.795 Z M11.695,16.181 C9.015,16.181 7.473,15.521 7.205,15.209 L7.205,13.668 C8.402,14.156 10.048,14.39 11.695,14.39 C13.337,14.39 14.984,14.156 16.185,13.668 L16.185,15.209 C15.918,15.52 14.376,16.181 11.695,16.181 Z M2.72,7.205 L9.9,7.205 C11.387722,7.20334667 12.5933467,5.99772203 12.595,4.51 C12.5946272,3.71510218 12.2432236,2.96094463 11.6348324,2.44935609 C11.0264412,1.93776755 10.2231732,1.72097618 9.44,1.857 C8.80885982,0.721066857 7.60948212,0.0186836862 6.31,0.024 C5.01050812,0.019610971 3.81126997,0.721688113 3.179,1.857 C2.39537313,1.72231921 1.59223897,1.9401536 0.98406058,2.45233426 C0.37588219,2.96451492 0.0245934744,3.71888389 0.024,4.514 C0.0239987661,5.22829951 0.30809492,5.91327036 0.813649703,6.41788719 C1.31920449,6.92250403 2.00470173,7.20532769 2.719,7.204 L2.72,7.205 Z M2.72,3.615 C2.891,3.615 3.059,3.667 3.203,3.758 C3.44867828,3.91481712 3.75446374,3.94491265 4.026,3.839 C4.29872141,3.72932232 4.50069629,3.49337385 4.567,3.207 C4.75185796,2.39376192 5.47602013,1.81750665 6.31,1.82 C7.147,1.82 7.86,2.39 8.052,3.208 C8.11801097,3.49242959 8.31833179,3.72693029 8.5889539,3.83657204 C8.85957601,3.9462138 9.16662894,3.91727408 9.412,3.759 C9.996,3.386 10.795,3.845 10.795,4.511 C10.795,5.004 10.393,5.411 9.895,5.411 L2.715,5.411 C2.21840003,5.40990011 1.81609989,5.00759997 1.815,4.511 C1.815,4.013 2.221,3.615 2.719,3.615 L2.72,3.615 Z" id="Shape"></path>
            <path d="M0.024,9 L1.819,9 L1.819,10.795 L0.024,10.795 L0.024,9 Z M0.024,12.59 L1.819,12.59 L1.819,14.385 L0.024,14.385 L0.024,12.59 Z M2.719,12.59 L4.514,12.59 L4.514,14.385 L2.719,14.385 L2.719,12.59 Z" id="Shape"></path>
        </g>
        <g id="menu-peers-active" transform="translate(0.000000, 84.000000)">
            <polygon id="Path" fill-opacity="0" fill="#D8D8D8" points="0 0 18 0 18 18 0 18"></polygon>
            <path d="M14.912,2.662 C14.218,1.065 12.61,0 10.795,0 C9.7,0 8.655,0.397 7.841,1.102 C7.43800155,0.953027426 7.0116509,0.877171553 6.582,0.878 C5.31169562,0.874176918 4.13394934,1.54195944 3.485,2.634 C1.565,2.704 0.03,4.245 0.03,6.132 C0.03,8.066 1.638,9.635 3.62,9.635 L14.39,9.635 C16.372,9.635 17.98,8.065 17.98,6.132 C17.976,4.372 16.645,2.914 14.912,2.662 Z M14.386,7.879 L3.614,7.879 C2.624,7.879 1.819,7.094 1.819,6.127 C1.819,5.161 2.623,4.377 3.614,4.377 C3.71,4.377 3.806,4.39 3.897,4.409 C4.32452205,4.47784935 4.74046657,4.2324841 4.887,3.825 C5.1392457,3.10793831 5.81686515,2.62839224 6.577,2.629 C6.917,2.629 7.247,2.727 7.545,2.909 C7.9281622,3.14869503 8.42913038,3.07123011 8.722,2.727 C9.23385136,2.11006276 9.99337588,1.75246703 10.795,1.751 C12.021,1.751 13.088,2.564 13.395,3.731 C13.5,4.133 13.873,4.399 14.305,4.391 C14.352,4.391 14.4,4.381 14.39,4.381 C15.381,4.381 16.186,5.165 16.186,6.132 C16.186,7.099 15.376,7.879 14.386,7.879 Z" id="Shape" fill="#000000" fill-rule="nonzero"></path>
            <path d="M6.31,14.651 L6.31,10.508 L4.514,10.508 L4.514,14.651 L3.351,13.516 L2.082,14.754 L5.41,18 L8.737,14.754 L7.468,13.516 L6.31,14.651 Z M10.159,13.39 L11.432,14.627 L12.59,13.497 L12.59,17.64 L14.386,17.64 L14.386,13.497 L15.544,14.627 L16.818,13.39 L13.49,10.144 L10.159,13.39 Z" id="Shape" fill="#1F5AF6" fill-rule="nonzero"></path>
        </g>
        <g id="menu-peers-default" transform="translate(28.000000, 84.000000)">
            <polygon id="Path" points="0 0 18 0 18 18 0 18"></polygon>
            <path d="M14.912,2.662 C14.218,1.065 12.61,0 10.795,0 C9.7,0 8.655,0.397 7.841,1.102 C7.43800155,0.953027426 7.0116509,0.877171553 6.582,0.878 C5.31169562,0.874176918 4.13394934,1.54195944 3.485,2.634 C1.565,2.704 0.03,4.245 0.03,6.132 C0.03,8.066 1.638,9.635 3.62,9.635 L14.39,9.635 C16.372,9.635 17.98,8.065 17.98,6.132 C17.976,4.372 16.645,2.914 14.912,2.662 Z M14.386,7.879 L3.614,7.879 C2.624,7.879 1.819,7.094 1.819,6.127 C1.819,5.161 2.623,4.377 3.614,4.377 C3.71,4.377 3.806,4.39 3.897,4.409 C4.32452205,4.47784935 4.74046657,4.2324841 4.887,3.825 C5.1392457,3.10793831 5.81686515,2.62839224 6.577,2.629 C6.917,2.629 7.247,2.727 7.545,2.909 C7.9281622,3.14869503 8.42913038,3.07123011 8.722,2.727 C9.23385136,2.11006276 9.99337588,1.75246703 10.795,1.751 C12.021,1.751 13.088,2.564 13.395,3.731 C13.5,4.133 13.873,4.399 14.305,4.391 C14.352,4.391 14.4,4.381 14.39,4.381 C15.381,4.381 16.186,5.165 16.186,6.132 C16.186,7.099 15.376,7.879 14.386,7.879 Z" id="Shape" fill="#9BA6B2" fill-rule="nonzero"></path>
            <path d="M6.31,14.651 L6.31,10.508 L4.514,10.508 L4.514,14.651 L3.351,13.516 L2.082,14.754 L5.41,18 L8.737,14.754 L7.468,13.516 L6.31,14.651 Z M10.159,13.39 L11.432,14.627 L12.59,13.497 L12.59,17.64 L14.386,17.64 L14.386,13.497 L15.544,14.627 L16.818,13.39 L13.49,10.144 L10.159,13.39 Z" id="Shape" fill="#9BA6B2" fill-rule="nonzero"></path>
        </g>
    </g>
</svg>
