<?xml version="1.0" encoding="UTF-8" standalone="no"?>
<svg
   xmlns:dc="http://purl.org/dc/elements/1.1/"
   xmlns:cc="http://creativecommons.org/ns#"
   xmlns:rdf="http://www.w3.org/1999/02/22-rdf-syntax-ns#"
   xmlns:svg="http://www.w3.org/2000/svg"
   xmlns="http://www.w3.org/2000/svg"
   xmlns:sodipodi="http://sodipodi.sourceforge.net/DTD/sodipodi-0.dtd"
   xmlns:inkscape="http://www.inkscape.org/namespaces/inkscape"
   width="18"
   height="18"
   viewBox="0 0 18 18"
   version="1.1"
   id="svg17101"
   sodipodi:docname="money-plus-18-white.svg"
   inkscape:version="0.92.4 (5da689c313, 2019-01-14)">
  <metadata
     id="metadata17107">
    <rdf:RDF>
      <cc:Work
         rdf:about="">
        <dc:format>image/svg+xml</dc:format>
        <dc:type
           rdf:resource="http://purl.org/dc/dcmitype/StillImage" />
      </cc:Work>
    </rdf:RDF>
  </metadata>
  <defs
     id="defs17105" />
  <sodipodi:namedview
     pagecolor="#ffffff"
     bordercolor="#666666"
     borderopacity="1"
     objecttolerance="10"
     gridtolerance="10"
     guidetolerance="10"
     inkscape:pageopacity="0"
     inkscape:pageshadow="2"
     inkscape:window-width="1600"
     inkscape:window-height="837"
     id="namedview17103"
     showgrid="false"
     inkscape:zoom="2.3177389"
     inkscape:cx="94.762161"
     inkscape:cy="-11.51521"
     inkscape:window-x="-8"
     inkscape:window-y="-8"
     inkscape:window-maximized="1"
     inkscape:current-layer="svg17101" />
  <g
     fill="none"
     fill-rule="nonzero"
     id="g17099">
    <path
       fill="none"
       d="M0 0h18v18H0z"
       id="path17093" />
    <path
       fill="#FFF"
       d="M17.75 9.014a.75.75 0 0 1-1.5-.002 7.25 7.25 0 1 0-7.19 7.238.75.75 0 0 1 .013 1.5 8.75 8.75 0 1 1 8.677-8.736z"
       id="path17095" />
    <path
       fill="#FFF"
       d="M6.667 9L9 11.333 11.333 9 9 6.667 6.667 9zM9.53 5.076l3.394 3.394a.75.75 0 0 1 0 1.06L9.53 12.924a.75.75 0 0 1-1.06 0L5.076 9.53a.75.75 0 0 1 0-1.06L8.47 5.076a.75.75 0 0 1 1.06 0zM17 13.795c1 0 1 1.5 0 1.5h-2.455a.75.75 0 0 1-.75-.75v-2.454c0-1 1.5-1 1.5 0v1.704H17zm-4.91 1.5c-1 0-1-1.5 0-1.5h2.455a.75.75 0 0 1 .75.75V17c0 1-1.5 1-1.5 0v-1.705h-1.704z"
       id="path17097" />
  </g>
</svg>
