<svg xmlns="http://www.w3.org/2000/svg" width="18" height="18" viewBox="0 0 18 18">
    <g fill="none" fill-rule="nonzero">
        <path fill="none" d="M0 0h18v18H0z"/>
        <path fill="#FFF" d="M17.75 9.014a.75.75 0 0 1-1.5-.002 7.25 7.25 0 1 0-7.19 7.238.75.75 0 0 1 .013 1.5 8.75 8.75 0 1 1 8.677-8.736z"/>
        <path fill="#FFF" d="M6.667 9L9 11.333 11.333 9 9 6.667 6.667 9zM9.53 5.076l3.394 3.394a.75.75 0 0 1 0 1.06L9.53 12.924a.75.75 0 0 1-1.06 0L5.076 9.53a.75.75 0 0 1 0-1.06L8.47 5.076a.75.75 0 0 1 1.06 0zM17 13.795c1 0 1 1.5 0 1.5h-2.455a.75.75 0 0 1-.75-.75v-2.454c0-1 1.5-1 1.5 0v1.704H17zm-4.91 1.5c-1 0-1-1.5 0-1.5h2.455a.75.75 0 0 1 .75.75V17c0 1-1.5 1-1.5 0v-1.705h-1.704z"/>
    </g>
</svg>
