<?xml version="1.0" encoding="UTF-8" standalone="no"?>
<svg
   xmlns:dc="http://purl.org/dc/elements/1.1/"
   xmlns:cc="http://creativecommons.org/ns#"
   xmlns:rdf="http://www.w3.org/1999/02/22-rdf-syntax-ns#"
   xmlns:svg="http://www.w3.org/2000/svg"
   xmlns="http://www.w3.org/2000/svg"
   xmlns:sodipodi="http://sodipodi.sourceforge.net/DTD/sodipodi-0.dtd"
   xmlns:inkscape="http://www.inkscape.org/namespaces/inkscape"
   width="18"
   height="18"
   viewBox="0 0 18 18"
   version="1.1"
   id="svg1646"
   sodipodi:docname="network-18-submit-400.svg"
   inkscape:version="0.92.4 (5da689c313, 2019-01-14)">
  <metadata
     id="metadata1652">
    <rdf:RDF>
      <cc:Work
         rdf:about="">
        <dc:format>image/svg+xml</dc:format>
        <dc:type
           rdf:resource="http://purl.org/dc/dcmitype/StillImage" />
      </cc:Work>
    </rdf:RDF>
  </metadata>
  <defs
     id="defs1650" />
  <sodipodi:namedview
     pagecolor="#ffffff"
     bordercolor="#666666"
     borderopacity="1"
     objecttolerance="10"
     gridtolerance="10"
     guidetolerance="10"
     inkscape:pageopacity="0"
     inkscape:pageshadow="2"
     inkscape:window-width="1600"
     inkscape:window-height="837"
     id="namedview1648"
     showgrid="false"
     inkscape:zoom="13.111111"
     inkscape:cx="9"
     inkscape:cy="-0.15254237"
     inkscape:window-x="-8"
     inkscape:window-y="-8"
     inkscape:window-maximized="1"
     inkscape:current-layer="g1644" />
  <g
     fill="none"
     fill-rule="evenodd"
     id="g1644">
    <path
       fill="#D8D8D8"
       fill-opacity="0"
       fill-rule="nonzero"
       d="M0 0h18v18H0z"
       id="path1640" />
    <path
       fill="#1F5AF6"
       d="M15.364 2.5c3.515 3.582 3.515 9.413 0 12.995l-1.272-1.298c2.809-2.867 2.809-7.532 0-10.398L15.364 2.5zM3.904 3.799c-2.808 2.866-2.808 7.531 0 10.402L2.632 15.5c-3.51-3.582-3.51-9.418 0-13l1.272 1.299zm8.916 1.298a5.54 5.54 0 0 1 1.58 3.9 5.54 5.54 0 0 1-1.58 3.901L11.548 11.6a3.705 3.705 0 0 0 1.05-2.602c0-.985-.374-1.911-1.05-2.602l1.272-1.299zM6.449 6.396a3.705 3.705 0 0 0-1.052 2.602c0 .984.375 1.91 1.052 2.602l-1.272 1.298a5.54 5.54 0 0 1-1.58-3.9 5.54 5.54 0 0 1 1.58-3.9l1.272 1.298zm2.55.764c.988 0 1.8.823 1.8 1.838 0 1.009-.812 1.837-1.8 1.837-.995 0-1.801-.828-1.801-1.837 0-1.015.806-1.838 1.8-1.838z"
       id="path1642"
       style="fill:#076600;fill-opacity:1" />
  </g>
</svg>
