<svg xmlns="http://www.w3.org/2000/svg" width="18" height="18" viewBox="0 0 18 18">
    <g fill="none" fill-rule="evenodd">
        <path fill="#D8D8D8" fill-opacity="0" fill-rule="nonzero" d="M0 0h18v18H0z"/>
        <path fill="#1F5AF6" d="M15.364 2.5c3.515 3.582 3.515 9.413 0 12.995l-1.272-1.298c2.809-2.867 2.809-7.532 0-10.398L15.364 2.5zM3.904 3.799c-2.808 2.866-2.808 7.531 0 10.402L2.632 15.5c-3.51-3.582-3.51-9.418 0-13l1.272 1.299zm8.916 1.298a5.54 5.54 0 0 1 1.58 3.9 5.54 5.54 0 0 1-1.58 3.901L11.548 11.6a3.705 3.705 0 0 0 1.05-2.602c0-.985-.374-1.911-1.05-2.602l1.272-1.299zM6.449 6.396a3.705 3.705 0 0 0-1.052 2.602c0 .984.375 1.91 1.052 2.602l-1.272 1.298a5.54 5.54 0 0 1-1.58-3.9 5.54 5.54 0 0 1 1.58-3.9l1.272 1.298zm2.55.764c.988 0 1.8.823 1.8 1.838 0 1.009-.812 1.837-1.8 1.837-.995 0-1.801-.828-1.801-1.837 0-1.015.806-1.838 1.8-1.838z"/>
    </g>
</svg>
