<svg xmlns="http://www.w3.org/2000/svg" width="14" height="14" viewBox="0 0 14 14">
    <g fill="#FFF" fill-rule="nonzero">
        <path d="M13.357 0H8.214a.643.643 0 0 0 0 1.286h3.591L5.188 7.903a.643.643 0 1 0 .91.909l6.616-6.617v3.59a.643.643 0 0 0 1.286 0V.644A.643.643 0 0 0 13.357 0z"/>
        <path d="M10.389 6.667a.611.611 0 0 0-.611.61v5.5H1.222V4.223h5.5a.611.611 0 0 0 0-1.222H.612A.611.611 0 0 0 0 3.611v9.778c0 .337.274.611.611.611h9.778a.611.611 0 0 0 .611-.611V7.278a.611.611 0 0 0-.611-.611z"/>
    </g>
</svg>
