<?xml version="1.0" encoding="UTF-8" standalone="no"?>
<svg
   xmlns:dc="http://purl.org/dc/elements/1.1/"
   xmlns:cc="http://creativecommons.org/ns#"
   xmlns:rdf="http://www.w3.org/1999/02/22-rdf-syntax-ns#"
   xmlns:svg="http://www.w3.org/2000/svg"
   xmlns="http://www.w3.org/2000/svg"
   xmlns:sodipodi="http://sodipodi.sourceforge.net/DTD/sodipodi-0.dtd"
   xmlns:inkscape="http://www.inkscape.org/namespaces/inkscape"
   width="14"
   height="14"
   viewBox="0 0 14 14"
   version="1.1"
   id="svg1322"
   sodipodi:docname="question-14.svg"
   inkscape:version="0.92.4 (5da689c313, 2019-01-14)">
  <metadata
     id="metadata1328">
    <rdf:RDF>
      <cc:Work
         rdf:about="">
        <dc:format>image/svg+xml</dc:format>
        <dc:type
           rdf:resource="http://purl.org/dc/dcmitype/StillImage" />
      </cc:Work>
    </rdf:RDF>
  </metadata>
  <defs
     id="defs1326" />
  <sodipodi:namedview
     pagecolor="#ffffff"
     bordercolor="#666666"
     borderopacity="1"
     objecttolerance="10"
     gridtolerance="10"
     guidetolerance="10"
     inkscape:pageopacity="0"
     inkscape:pageshadow="2"
     inkscape:window-width="1600"
     inkscape:window-height="837"
     id="namedview1324"
     showgrid="false"
     inkscape:zoom="32"
     inkscape:cx="3.5016626"
     inkscape:cy="4.484901"
     inkscape:window-x="-8"
     inkscape:window-y="-8"
     inkscape:window-maximized="1"
     inkscape:current-layer="svg1322" />
  <path
     d="m 1.8884469,6.6877476 c 0,3.1315888 2.5415793,5.6731684 5.6731681,5.6731684 3.131589,0 5.673168,-2.5415796 5.673168,-5.6731684 0,-3.1315887 -2.541579,-5.6731681 -5.673168,-5.6731681 -3.1315888,0 -5.6731681,2.5415794 -5.6731681,5.6731681 z M 6.9578278,8.0274258 C 6.963501,7.6870357 7.0024027,7.4163446 7.0761539,7.2129209 7.1499051,7.0086869 7.2982179,6.7858124 7.5219028,6.5426766 L 8.066527,5.981033 C 8.2861596,5.732224 8.3947603,5.468827 8.3947603,5.1875999 8.3947603,4.9169087 8.3258717,4.7094329 8.1889053,4.56112 8.0535597,4.4152386 7.8549988,4.340677 7.5859285,4.340677 7.321721,4.340677 7.1142451,4.4095656 6.9586383,4.544911 6.8062732,4.6778252 6.7300906,4.8553143 6.7300906,5.083862 v 0.08915 H 5.7794297 V 5.0822411 C 5.7851029,4.6065054 5.9577293,4.2182986 6.2924463,3.9241043 6.6255422,3.6323414 7.0583239,3.4864599 7.5859285,3.4864599 c 0.547866,0 0.9806477,0.1491233 1.2918615,0.4489907 0.3120242,0.2998675 0.4676312,0.7115774 0.4676312,1.2278357 0,0.5122061 -0.2350313,1.0130657 -0.7026624,1.5042 L 8.1905262,7.1148562 C 8.0041221,7.322332 7.9084887,7.6254413 7.9084887,8.0290467 v 0.08915 H 6.9586383 Z m 0.051059,1.3259002 c 0,-0.1466917 0.045385,-0.2731223 0.1377769,-0.3752393 0.094823,-0.1053588 0.2326,-0.1564174 0.4060368,-0.1564174 0.1742473,0 0.3120242,0.051059 0.4084681,0.1564174 A 0.53733007,0.53733007 0 0 1 8.1013764,9.353326 0.52274192,0.52274192 0 0 1 7.9595472,9.7261345 C 7.8639138,9.8274408 7.7261369,9.8768784 7.5527,9.8768784 c -0.1734368,0 -0.3104034,-0.05025 -0.4052262,-0.1515549 A 0.52679419,0.52679419 0 0 1 7.0088863,9.3525159 Z"
     id="path1320"
     style="fill:#f8f9fb;fill-opacity:0;fill-rule:nonzero;stroke-width:0.00648362;stroke-miterlimit:4;stroke-dasharray:none"
     inkscape:connector-curvature="0" />
  <path
     style="opacity:1;fill:#f8f9fb;fill-opacity:1;stroke:#9ba6b2;stroke-width:0.469;stroke-linecap:round;stroke-linejoin:round;stroke-miterlimit:4;stroke-dasharray:none;stroke-dashoffset:0;stroke-opacity:1;paint-order:stroke fill markers"
     d="M 6.5544763,12.735333 C 5.6339701,12.646853 4.7389872,12.328714 3.9652795,11.814952 2.0823998,10.564671 1.124401,8.3362046 1.5133815,6.1114254 1.7873151,4.5446581 2.7251167,3.1524477 4.086377,2.291693 4.3056507,2.1530416 4.8079507,1.9005355 5.0529799,1.8057822 5.4718645,1.6437987 5.9909133,1.5179753 6.4621712,1.4641784 c 0.447237,-0.051055 1.07822,-0.035955 1.5325527,0.036675 1.1556183,0.1847389 2.2523741,0.7435538 3.0862251,1.5724825 0.922695,0.9172475 1.484419,2.0742974 1.644467,3.3873075 0.03539,0.2902726 0.03031,1.0504159 -0.009,1.3341938 -0.127767,0.9244716 -0.410161,1.6828913 -0.905237,2.4311718 -0.430905,0.651292 -1.042435,1.248819 -1.7058,1.666743 -0.7434709,0.46839 -1.6242694,0.765254 -2.5047272,0.844192 -0.2395486,0.02147 -0.8152776,0.0206 -1.0462573,-0.0016 z M 7.3217205,10.247317 C 7.445137,10.201142 7.5672286,10.071708 7.6106325,9.9410307 7.6533709,9.8123579 7.6393589,9.6243556 7.5780583,9.5039764 7.4760614,9.3036803 7.3101811,9.2181725 7.0480657,9.2307773 c -0.1289764,0.0062 -0.1708773,0.016236 -0.2517985,0.060299 -0.1736963,0.09458 -0.262391,0.2644367 -0.258766,0.4955541 0.0034,0.2163356 0.1400784,0.4119396 0.3284298,0.4700016 0.1255138,0.03869 0.3391508,0.03432 0.4557895,-0.0093 z M 7.440159,8.4798431 C 7.4417232,8.3522825 7.4768888,8.0615872 7.5024051,7.9653224 7.5680527,7.7176503 7.6036718,7.6661569 7.9673754,7.2931248 8.1547876,7.1009059 8.3540314,6.8833159 8.4101389,6.8095916 8.7724741,6.3334909 8.922839,5.8655778 8.872507,5.3707708 8.7866826,4.5270412 8.2915606,4.021277 7.4389738,3.9064255 7.2221423,3.8772163 6.7718955,3.8964806 6.5847464,3.9429747 5.9536364,4.0997636 5.5205001,4.4937249 5.3623457,5.0548155 5.339905,5.1344303 5.3201267,5.271302 5.313781,5.3909 L 5.3030757,5.5926699 5.784808,5.5878964 6.26654,5.5831228 6.2773149,5.4255167 C 6.2862846,5.2943244 6.2982912,5.2479156 6.3489498,5.1486256 6.4946461,4.8630638 6.861662,4.708651 7.2606056,4.7650689 c 0.205831,0.029108 0.3376701,0.092829 0.4555894,0.2201959 0.1124348,0.121443 0.1636723,0.2416468 0.1916651,0.4496494 0.024217,0.1799433 0.00829,0.3285108 -0.054747,0.5105439 C 7.7798554,6.1570215 7.676487,6.2952262 7.2924593,6.6950585 6.9261697,7.076423 6.8401426,7.1784325 6.7274573,7.3650303 6.5733476,7.6202236 6.5109491,7.8644481 6.4952465,8.2738937 l -0.00979,0.2551982 h 0.4770482 0.4770482 z"
     id="path1334"
     inkscape:connector-curvature="0" />
</svg>
