<svg xmlns="http://www.w3.org/2000/svg" width="14" height="14" viewBox="0 0 14 14">
    <path fill="#9BA6B2" fill-rule="nonzero" d="M0 7c0 3.864 3.136 7 7 7s7-3.136 7-7-3.136-7-7-7-7 3.136-7 7zm6.255 1.653c.007-.42.055-.754.146-1.005.091-.252.274-.527.55-.827l.672-.693c.271-.307.405-.632.405-.979 0-.334-.085-.59-.254-.773-.167-.18-.412-.272-.744-.272-.326 0-.582.085-.774.252-.188.164-.282.383-.282.665v.11H4.801v-.112c.007-.587.22-1.066.633-1.429.411-.36.945-.54 1.596-.54.676 0 1.21.184 1.594.554.385.37.577.878.577 1.515 0 .632-.29 1.25-.867 1.856l-.558.552c-.23.256-.348.63-.348 1.128v.11H6.256l-.001-.112zm.063 1.636c0-.181.056-.337.17-.463.117-.13.287-.193.501-.193.215 0 .385.063.504.193a.663.663 0 0 1 .173.463.645.645 0 0 1-.175.46c-.118.125-.288.186-.502.186-.214 0-.383-.062-.5-.187a.65.65 0 0 1-.171-.46z"/>
</svg>
