
<svg width="24px" height="16px" viewBox="0 0 24 16" version="1.1" xmlns="http://www.w3.org/2000/svg" xmlns:xlink="http://www.w3.org/1999/xlink">
        <path d="M23.28,0.5 C23.4703093,0.498131516 23.6534671,0.57242527 23.7886984,0.706341762 C23.9239296,0.840258255 24.0000092,1.02268154 24,1.213 L24,14.787 C24,15.183 23.68,15.5 23.28,15.5 L6.005,15.5 C5.658,15.5 5.339,15.342 5.125,15.077 L0.14,8.66 C-0.0464695963,8.39960718 -0.0464695963,8.04939282 0.14,7.789 L5.125,0.949 C5.339,0.658 5.685,0.5 6.032,0.5 L23.28,0.5 Z M17.255,10.086 L17.254,10.086 L15.148,8 L17.256,5.914 L15.656,4.329 L13.55,6.415 L11.444,4.329 L9.844,5.914 L11.95,8 L9.843,10.086 L11.443,11.671 L13.55,9.585 L15.655,11.671 L17.255,10.086 Z" id="Path-2" fill-rule="nonzero"></path>
</svg>
