<svg xmlns="http://www.w3.org/2000/svg" width="14" height="14" viewBox="0 0 14 14">
    <g fill="none" fill-rule="nonzero">
        <path fill="#D8D8D8" fill-opacity="0" d="M0 0h14v14H0z"/>
        <path fill="#000" d="M8.379 2.17c.375.107.73.254 1.063.44l1.168-.887c.34-.26.411-.415.802-.128.39.29.693.587.976.96.304.402.163.473-.111.834l-.884 1.17c.186.332.336.688.442 1.062l1.454.203c.444.062.597.011.665.512.065.463.06.886-.012 1.368-.07.48-.232.42-.654.477l-1.45.197a4.959 4.959 0 0 1-.443 1.068l.882 1.169c.274.36.415.43.111.832-.283.374-.586.67-.976.959-.39.289-.462.132-.802-.124l-1.164-.887a4.935 4.935 0 0 1-1.068.443l-.202 1.45c-.062.445-.011.598-.512.666-.463.065-.886.06-1.368-.012-.48-.07-.42-.232-.477-.654l-.197-1.45a4.998 4.998 0 0 1-1.064-.443l-1.173.885c-.36.272-.43.415-.833.11a4.55 4.55 0 0 1-.958-.976c-.289-.39-.132-.462.124-.802l.89-1.169a4.926 4.926 0 0 1-.441-1.065L.712 8.181c-.422-.057-.584.003-.654-.477a4.55 4.55 0 0 1-.012-1.368c.068-.501.22-.45.666-.512.486-.069.973-.136 1.458-.203.108-.373.255-.73.44-1.06-.302-.399-.587-.774-.892-1.17-.256-.34-.413-.412-.124-.804.29-.389.585-.692.958-.975.403-.304.474-.163.833.111.393.295.783.59 1.175.886l-.003.005c.332-.186.69-.335 1.064-.441.066-.497.131-.964.197-1.46.058-.423-.002-.585.478-.655A4.549 4.549 0 0 1 7.664.046c.5.068.45.22.512.666L8.38 2.17zM6.999 4A3 3 0 1 0 7 10a3 3 0 0 0 0-6z"/>
    </g>
</svg>
