<svg xmlns="http://www.w3.org/2000/svg" width="28" height="28" viewBox="0 0 28 28">
    <defs>
        <linearGradient id="a" x1="61.344%" x2="80.499%" y1="47.15%" y2="83.71%">
            <stop offset="0%" stop-color="#EFF7FC"/>
            <stop offset="100%" stop-color="#FFF"/>
        </linearGradient>
    </defs>
    <g fill="none" fill-rule="nonzero">
        <path fill="#37AEE2" d="M28 14c0 7.735-6.265 14-14 14S0 21.735 0 14 6.265 0 14 0s14 6.265 14 14z"/>
        <path fill="#C8DAEA" d="M11.433 20.417c-.455 0-.373-.175-.536-.607l-1.33-4.387 8.26-5.156.968.256-.805 2.194-6.557 7.7z"/>
        <path fill="#A9C9DD" d="M11.433 20.417c.35 0 .502-.164.7-.35.304-.292 4.2-4.084 4.2-4.084l-2.391-.583-2.217 1.4-.292 3.5v.117z"/>
        <path fill="url(#a)" d="M11.667 16.847l5.646 4.165c.642.35 1.109.175 1.272-.595L20.883 9.59c.234-.945-.361-1.365-.98-1.085L6.417 13.708c-.922.374-.91.887-.164 1.109l3.465 1.085 8.015-5.052c.374-.233.724-.105.444.152l-6.51 5.845z"/>
    </g>
</svg>
