<svg xmlns="http://www.w3.org/2000/svg" width="80" height="80" viewBox="0 0 80 80">
    <g fill="none" fill-rule="evenodd">
        <path fill="#D8D8D8" fill-opacity="0" d="M0 0h80v80H0z"/>
        <path fill="#EF4829" d="M40 55.5c6.075 0 11 4.925 11 11s-4.925 11-11 11-11-4.925-11-11 4.925-11 11-11zm0 3a8 8 0 1 0 0 16 8 8 0 0 0 0-16zM77.78 4C79.006 4 80 4.895 80 6v60c0 1.105-.994 2-2.22 2H56.5a1.5 1.5 0 0 1 0-3H77V18.5H3V65h20.5a1.5 1.5 0 0 1 0 3H2.22C.994 68 0 67.105 0 66V6c0-1.105.994-2 2.22-2h75.56zM44.5 65a1.5 1.5 0 0 1 0 3h-9a1.5 1.5 0 0 1 0-3h9zM24 47a2 2 0 0 1 2 2v9a2 2 0 0 1-2 2H9a2 2 0 0 1-2-2v-9a2 2 0 0 1 2-2h15zm47 0a2 2 0 0 1 2 2v9a2 2 0 0 1-2 2H56a2 2 0 0 1-2-2v-9a2 2 0 0 1 2-2h15zm-48 3H10v7h13v-7zm47 0H57v7h13v-7zm-22-3c.828 0 1.5.588 1.5 1.313v4.374c0 .725-.672 1.313-1.5 1.313s-1.5-.588-1.5-1.313V50h-13v2.688c0 .724-.672 1.312-1.5 1.312s-1.5-.588-1.5-1.313v-4.374c0-.725.672-1.313 1.5-1.313h16zm22.938-25c1.139 0 2.062.895 2.062 2v16c0 1.105-.923 2-2.063 2H9.063C7.923 42 7 41.105 7 40V24c0-1.105.923-2 2.063-2h61.874zm-1.032 3H10.094v14h59.812V25zM77 7H3v8.5h74V7zM8.5 10a1.5 1.5 0 1 1 0 3 1.5 1.5 0 0 1 0-3zm5 0a1.5 1.5 0 1 1 0 3 1.5 1.5 0 0 1 0-3zm5 0a1.5 1.5 0 1 1 0 3 1.5 1.5 0 0 1 0-3z"/>
    </g>
</svg>
