<svg xmlns="http://www.w3.org/2000/svg" xmlns:xlink="http://www.w3.org/1999/xlink" width="260" height="216" viewBox="0 0 260 216">
    <defs>
        <linearGradient id="b" x1="50%" x2="50%" y1="100%" y2="0%">
            <stop offset="0%" stop-color="#0080FF"/>
            <stop offset="100%" stop-color="#00AEFF" stop-opacity=".5"/>
        </linearGradient>
        <path id="a" d="M140.43 215.046L220 168.4l-14.33-7.129 34.232-17.86-92.6-45.122L21 168.4l33.5 18.968L73 176z"/>
        <linearGradient id="d" x1="37.5%" x2="62.5%" y1="87.658%" y2="12.342%">
            <stop offset="0%" stop-color="#0082FF"/>
            <stop offset="100%" stop-color="#0065FF"/>
        </linearGradient>
        <linearGradient id="e" x1="-.225%" x2="100.225%" y1="33.297%" y2="66.703%">
            <stop offset="0%" stop-color="#005AFF"/>
            <stop offset="100%" stop-color="#002ED6"/>
        </linearGradient>
        <linearGradient id="f" x1="91.655%" x2="91.655%" y1="58.345%" y2="41.655%">
            <stop offset="0%" stop-color="#0065FF"/>
            <stop offset="100%" stop-color="#002FE8"/>
        </linearGradient>
        <linearGradient id="g" x1="50%" x2="50%" y1="100%" y2="0%">
            <stop offset="0%" stop-color="#FFC000"/>
            <stop offset="3.97%" stop-color="#FFA900"/>
            <stop offset="10.63%" stop-color="#FF8900"/>
            <stop offset="16.21%" stop-color="#FF7500"/>
            <stop offset="20%" stop-color="#FF6E00"/>
            <stop offset="39.02%" stop-color="#FF7300"/>
            <stop offset="62.84%" stop-color="#FF8300"/>
            <stop offset="89.11%" stop-color="#FF9C00"/>
            <stop offset="100%" stop-color="#FFA900"/>
        </linearGradient>
        <linearGradient id="h" x1="0%" y1="47.171%" y2="52.829%">
            <stop offset="0%" stop-color="#FFB300"/>
            <stop offset="100%" stop-color="#FFD800"/>
        </linearGradient>
        <linearGradient id="i" x1=".73%" x2="99.037%" y1="8.696%" y2="87.962%">
            <stop offset="0%" stop-color="#FD7F02"/>
            <stop offset="100%" stop-color="#FDA002"/>
        </linearGradient>
        <linearGradient id="j" x1="23.509%" x2="76.783%" y1="10.048%" y2="90.02%">
            <stop offset="0%" stop-color="#F66500"/>
            <stop offset="86.38%" stop-color="#FC7A02"/>
            <stop offset="100%" stop-color="#FD7E02"/>
        </linearGradient>
        <linearGradient id="k" x1="0%" y1="50%" y2="50%">
            <stop offset="0%" stop-color="#FF5F00"/>
            <stop offset="50.33%" stop-color="#FB4A01"/>
            <stop offset="99.68%" stop-color="#F73102"/>
        </linearGradient>
        <linearGradient id="l" x1="37.5%" x2="62.5%" y1="87.658%" y2="12.342%">
            <stop offset="0%" stop-color="#07A2FF"/>
            <stop offset="100%" stop-color="#0065FF"/>
        </linearGradient>
        <linearGradient id="m" x1="37.5%" x2="91.111%" y1="87.658%" y2="14.228%">
            <stop offset="0%" stop-color="#07A2FF"/>
            <stop offset="100%" stop-color="#0054F8"/>
        </linearGradient>
        <linearGradient id="n" x1="62.5%" x2="37.5%" y1="12.342%" y2="87.658%">
            <stop offset="0%" stop-color="#07A2FF"/>
            <stop offset="100%" stop-color="#0065FF"/>
        </linearGradient>
        <linearGradient id="o" x1="14.302%" x2="74.677%" y1="50%" y2="69.199%">
            <stop offset="0%" stop-color="#0065FF"/>
            <stop offset="100%" stop-color="#002FE8"/>
        </linearGradient>
    </defs>
    <g fill="none" fill-rule="evenodd">
        <path fill="none" d="M0 0h260v216H0z"/>
        <mask id="c" fill="#fff">
            <use xlink:href="#a"/>
        </mask>
        <use fill="url(#b)" opacity=".2" xlink:href="#a"/>
        <g mask="url(#c)">
            <path fill="url(#d)" d="M.969 113.056l17.461 10.03v60.96L.97 173.83z" transform="translate(121.667 31)"/>
            <path fill="url(#e)" d="M18.43 123.087l17.462-10.031v60.774L18.43 184.046z" transform="translate(121.667 31)"/>
            <path fill="url(#f)" d="M9.142 1.458c1.019-.307 1.749-.46 2.191-.458.67.002 1.565-.012 2 0 .793.021 1.382.54 1.94.597.278.029 1.298.83 3.06 2.403l1 8.978h-8.519V9.5 5c0-1.866-.557-3.047-1.672-3.542z" transform="translate(121.667 31)"/>
        </g>
        <g mask="url(#c)">
            <path fill="url(#g)" d="M19.947 27.335c-.54.253-1.906.76-3.176 1.172 1.429-.507 2.414-1.204 2.858-1.615 1.938-1.742 3.113-4.593 3.113-8.204 0-7.412-5.05-15.109-11.307-17.2-1.684-.57-3.97-.601-5.59-.126A27.787 27.787 0 0 1 8.607.538C10.1.19 11.72.158 13.499.76c6.257 2.09 11.308 9.82 11.308 17.2.031 4.56-1.906 7.95-4.86 9.375z" transform="translate(66.667 84)"/>
            <path fill="url(#h)" fill-rule="nonzero" d="M11.466 1.489C5.21-.601.16 3.674.16 11.086c0 7.412 5.05 15.109 11.307 17.2 6.258 2.09 11.308-2.186 11.308-9.598 0-7.412-5.05-15.109-11.308-17.2zm-.19 18.53l-4.447-6.43 4.447-3.422 4.447 6.43-4.447 3.421z" transform="translate(66.667 84)"/>
            <path fill="url(#i)" d="M12.483 19.068l-1.239.919-4.447-6.43 1.461-.602z" transform="translate(66.667 84)"/>
            <path fill="url(#j)" d="M8.29 12.987l3.24-2.471 4.193 6.05-3.209 2.502z" transform="translate(66.667 84)"/>
            <path fill="url(#k)" d="M8.29 12.987l-1.461.601 4.447-3.42.254.38z" transform="translate(66.667 84)"/>
        </g>
        <g>
            <path fill="url(#d)" d="M49.969 104.056l17.461 10.03v70.96L49.97 174.83z" transform="translate(73 30)"/>
            <path fill="url(#l)" d="M49.969 104.056L67.43 93.653l17.462 10.403-17.462 10.03z" transform="translate(73 30)"/>
            <path fill="url(#e)" d="M67.43 114.087l17.462-10.031v70.774L67.43 185.046z" transform="translate(73 30)"/>
            <path fill="url(#d)" d="M67.43 144.551l35.109 20.413v19.897L67.43 165.006z" transform="translate(73 30)"/>
            <path fill="url(#l)" d="M67.43 144.551L84.884 154.7l.01 20.183-17.464-9.876z" transform="translate(73 30)"/>
            <path fill="url(#d)" d="M84.892 134.334L120 154.674l-17.461 10.29-35.109-20.413z" transform="translate(73 30)"/>
            <path fill="url(#l)" d="M84.892 134.334l17.72 10.267-17.709 10.11-17.473-10.16z" transform="translate(73 30)"/>
            <path fill="url(#e)" d="M102.539 164.871L120 154.582v20.155l-17.461 10.03z" transform="translate(73 30)"/>
            <path fill="url(#d)" d="M98.08 133.777l4.459 2.6v20.991l-4.459-2.229z" transform="translate(73 30)"/>
            <path fill="url(#e)" d="M102.539 136.378l4.458-2.6v21.176l-4.458 2.414z" transform="translate(73 30)"/>
            <path fill="url(#l)" d="M102.539 131.362l4.458 2.415-4.458 2.6-4.459-2.6z" transform="translate(73 30)"/>
            <path fill="url(#d)" d="M14.86 114.087L49.97 134.5v19.896l-35.108-19.855z" transform="translate(73 30)"/>
            <path fill="url(#l)" d="M32.508 124.303l17.454 10.149.01 20.183-17.464-9.877z" transform="translate(73 30)"/>
            <path fill="url(#l)" d="M32.322 103.87l17.767 10.294-.12 20.336-35.108-20.413z" transform="translate(73 30)"/>
            <path fill="url(#d)" d="M32.322 103.87l17.72 10.267-17.709 10.109-17.472-10.16z" transform="translate(73 30)"/>
            <path fill="url(#d)" d="M27.864 93.653l4.458 2.6v20.249l-4.458-2.23z" transform="translate(73 30)"/>
            <path fill="url(#e)" d="M32.322 96.254l4.458-2.6v20.433l-4.458 2.415z" transform="translate(73 30)"/>
            <path fill="url(#l)" d="M32.322 91.238l4.458 2.415-4.458 2.6-4.458-2.6z" transform="translate(73 30)"/>
            <path fill="url(#f)" d="M58.142 12.458c1.019-.307 1.749-.46 2.191-.458.67.002 1.565-.012 2 0 .793.021 1.382.54 1.94.597.278.029 1.298.83 3.06 2.403l1 8.978h-8.519V20.5 16c0-1.866-.557-3.047-1.672-3.542z" transform="translate(73 30)"/>
            <path fill="url(#d)" d="M67.984 23.628L68 24.5l-.57 83.03-7.616-4.215v-79.63z" transform="translate(73 30)"/>
            <path fill="url(#m)" d="M16.997 14.398L50.527.743l6.872 2.808-33.343 13.632z" transform="translate(73 30)"/>
            <path fill="url(#n)" d="M0 51.827c.258-7.571.722-12.803 1.393-15.697.915-3.947 2.461-7.331 3.808-9.752.212-.38 3.149-5.383 5.759-7.988 1.285-1.283 3.36-2.645 6.223-4.087l6.966 2.787c-2.695 1.583-4.553 2.883-5.573 3.9-1.804 1.8-3.274 3.702-4.458 5.425-1.604 2.332-2.86 4.513-3.437 6.371-.645 2.083-1.47 4.654-2.043 8.56-.248 1.69-.372 4.229-.372 6.022 0 1.793-.091 4.712-.274 8.759 0 .005-2.664-1.428-7.992-4.3z" transform="translate(73 30)"/>
            <path fill="url(#e)" d="M14.86 52.234l-6.872 3.9c.102-5.023.195-8.433.278-10.23.174-3.754.434-6.104.65-7.164.498-2.433 1.332-4.908 1.672-5.825.782-2.108 1.97-4.358 3.251-6.297a42.516 42.516 0 0 1 3.344-4.385c1.213-1.359 2.338-2.254 2.972-2.786 2.92-2.449 11.238-5.452 14.025-6.594 4.028-1.651 7.612-3.016 10.495-4.18 6.754-2.724 10.387-4.218 10.681-4.365C60 1.986 64.462 2.144 66.223 2.822c1.761.678 3.803 2.833 5.108 4.922.568.909 1.833 2.523 2.502 6.756.239 1.507.395 4.562.469 9.162l-.184 80.15-6.688 3.716c.37-54.426.554-82.413.554-83.961 0-2.323-.255-3.375-.554-4.567-.61-2.432-1.535-3.605-1.95-4.104-.929-1.114-2.043-2.508-5.201-2.508-3.065 0-4.34.913-6.595 1.765-.94.356-4.253 1.797-9.936 4.323-.063.028-15.513 5.396-20.714 8.304-5.201 2.908-7.651 11.154-7.929 12.636-.394 2.106-.476 6.378-.244 12.818z" transform="translate(73 30)"/>
            <path fill="url(#o)" fill-rule="nonzero" d="M50.526.743c1.61-.427 3.499-.609 5.666-.547 1.168.033 2.9.242 4.644.743.474.136 1.46.469 2.229.743.558.199 3.158 1.104 3.158 1.139 0 .035-1.115-.19-3.437-.19-1.02 0-2.878.303-5.572.909L50.526.743z" transform="translate(73 30)"/>
        </g>
        <g>
            <path fill="url(#g)" d="M19.947 27.335c-.54.253-1.906.76-3.176 1.172 1.429-.507 2.414-1.204 2.858-1.615 1.938-1.742 3.113-4.593 3.113-8.204 0-7.412-5.05-15.109-11.307-17.2-1.684-.57-3.97-.601-5.59-.126A27.787 27.787 0 0 1 8.607.538C10.1.19 11.72.158 13.499.76c6.257 2.09 11.308 9.82 11.308 17.2.031 4.56-1.906 7.95-4.86 9.375z" transform="translate(66.667 94)"/>
            <path fill="url(#h)" fill-rule="nonzero" d="M11.466 1.489C5.21-.601.16 3.674.16 11.086c0 7.412 5.05 15.109 11.307 17.2 6.258 2.09 11.308-2.186 11.308-9.598 0-7.412-5.05-15.109-11.308-17.2zm-.19 18.53l-4.447-6.43 4.447-3.422 4.447 6.43-4.447 3.421z" transform="translate(66.667 94)"/>
            <path fill="url(#i)" d="M12.483 19.068l-1.239.919-4.447-6.43 1.461-.602z" transform="translate(66.667 94)"/>
            <path fill="url(#j)" d="M8.29 12.987l3.24-2.471 4.193 6.05-3.209 2.502z" transform="translate(66.667 94)"/>
            <path fill="url(#k)" d="M8.29 12.987l-1.461.601 4.447-3.42.254.38z" transform="translate(66.667 94)"/>
        </g>
    </g>
</svg>
