<svg xmlns="http://www.w3.org/2000/svg" width="124" height="28" viewBox="0 0 124 28">
    <g fill="none" fill-rule="evenodd">
        <path fill="none" d="M0 0h124v28H0z"/>
        <path fill="#1F5AF6" d="M117.413 1.19l6.576 6.576-6.6 6.6-6.576-6.577z"/>
        <g fill="#000" fill-rule="nonzero">
            <path d="M28.925 7.392h-3.648l-.382.343-3.743 13.197h-.024L16.93 7.735l-.382-.343h-3.815l-.382.343L8.18 20.859l-.071-.05-.024-.024L4.34 7.735l-.382-.343H.238L0 7.735l5.842 18.584.406.367H9.92l.405-.367 4.173-13.296h.096L18.79 26.32l.405.367h3.72l.406-.367 5.842-18.584zM70.203 7.392h-3.672l-.406.343-5.127 13.736-.047.024-5.08-13.76-.405-.343h-3.744l-.238.343 7.32 18.584.43.367h3.386l.43-.367 7.392-18.584zM89.137 18.067l.358-.342v-.563c0-3.012-.835-5.608-2.48-7.42C85.369 7.93 83.152 7 80.433 7c-2.623 0-4.817 1.004-6.51 2.963-1.693 1.959-2.528 4.334-2.528 7.027 0 2.865.883 5.265 2.623 7.15 1.741 1.885 4.03 2.84 6.797 2.84 2.003 0 3.72-.49 5.103-1.493 1.383-.98 2.837-2.596 3.338-4.8l-.262-.367H85.56l-.477.367c-.858 1.763-2.17 2.596-4.34 2.596-1.407 0-2.67-.514-3.72-1.518-1.001-.955-1.574-2.106-1.717-3.746l13.83.048zM75.545 14.64c.596-2.278 2.456-3.967 4.888-3.967 3.22 0 4.555 2.35 4.936 3.967h-9.824zM45.522 7.392l-.357.367v1.91l-.072.073c-.477-.636-1.12-1.2-1.884-1.665a11.455 11.455 0 0 0-.548-.293c-1.026-.515-2.194-.76-3.458-.76-2.36 0-4.435.98-6.152 2.89-1.717 1.91-2.576 4.31-2.576 7.125 0 2.816.859 5.216 2.576 7.125 1.717 1.91 3.791 2.89 6.152 2.89 1.264 0 2.409-.245 3.434-.76.19-.097.405-.195.596-.318.74-.465 1.36-.98 1.836-1.591.024-.025.096.024.12 0v1.983l.357.367h3.124l.358-.367V7.735l-.358-.368h-3.148v.025zm-1.931 14.25c-1.05 1.151-2.313 1.714-3.84 1.714-1.478 0-2.575-.563-3.648-1.738-1.073-1.15-1.598-2.694-1.598-4.628 0-1.91.549-3.452 1.598-4.628 1.073-1.15 2.146-1.738 3.649-1.738 1.502 0 2.766.563 3.839 1.714.691.759 1.144 1.665 1.407 2.767v3.722c-.239 1.15-.716 2.08-1.407 2.815zM102.372 15.521s-2.051-.44-3.744-.833c-1.55-.367-2.337-.832-2.337-1.958 0-1.2 1.12-2.204 3.529-2.204 2.36 0 3.672 1.077 3.672 2.032l.406.368h3.434l.262-.343c0-2.522-2.122-5.534-7.679-5.534-5.794 0-7.607 3.501-7.607 5.754 0 1.885.668 4.114 5.104 5.167l3.815.881c1.931.44 2.742 1.126 2.742 2.277 0 1.053-1.025 2.326-3.696 2.326-2.48 0-3.982-1.224-4.054-2.669l-.429-.367h-3.505l-.263.367c.31 3.232 2.647 6.269 8.227 6.269 6.32 0 7.607-3.967 7.607-6.048 0-2.792-1.55-4.604-5.484-5.485z"/>
        </g>
    </g>
</svg>
