<svg xmlns="http://www.w3.org/2000/svg" preserveAspectRatio="xMidYMid meet" viewBox="0 0 1904 300"><defs><linearGradient x1=".0046285%" y1="49.9990596%" x2="100%" y2="49.9990596%" id="a"><stop stop-color="#00B8C4" offset="0%"/><stop stop-color="#00EFFF" offset="100%"/></linearGradient><linearGradient x1="45.9876505%" y1="49.9990596%" x2="54.0127209%" y2="50%" id="b"><stop stop-color="#00EFFF" offset="0%"/><stop stop-color="#49F4FF" offset="100%"/></linearGradient></defs><g fill-rule="nonzero" fill="none"><path d="M408.3229076 239.032086c4.1758867 0 6.3866503-2.459893 6.3866503-6.395722V89.2245989h34.3896561c4.175886 0 6.38665-2.2139037 6.38665-6.3957219V63.39572193C455.485864 59.45989305 453.2751 57 449.099214 57H348.38665036C344.45640398 57 342 59.45989305 342 63.39572193V82.828877c0 4.1818182 2.45640398 6.3957219 6.38665036 6.3957219h34.38965574V232.636364c0 3.935829 2.2107636 6.395722 6.3866504 6.395722h19.1599511zM513.702638 241c29.231208 0 53.303967-23.860963 53.303967-53.379679v-65.1871659c0-3.9358289-2.456404-6.3957219-6.632291-6.3957219h-19.159951c-3.930246 0-6.38665 2.459893-6.38665 6.3957219v65.1871659c0 11.561497-9.579976 21.401069-21.125075 21.401069-11.790739 0-21.370714-9.839572-21.370714-21.401069v-65.1871659c0-3.9358289-2.456404-6.3957219-6.386651-6.3957219h-19.159951c-3.930246 0-6.38665 2.459893-6.38665 6.3957219v65.1871659c0 29.518716 23.827119 53.379679 53.303966 53.379679zm100.712564-1.967914c3.930246 0 6.38665-2.459893 6.38665-6.395722V166.71123c0-11.8074867 9.334335-20.171123 21.125074-20.171123h8.597414c4.175887 0 6.632291-2.2139038 6.632291-6.395722v-17.7112299c0-3.9358289-2.456404-6.3957219-6.632291-6.3957219h-10.808177c-9.579976 0-18.42303 2.2139037-25.546602 7.8716577v-2.2139037c0-3.6898396-1.965123-5.657754-5.404088-5.657754h-13.510222c-3.930247 0-6.386651 2.459893-6.386651 6.3957219V232.636364c0 3.935829 2.456404 6.395722 6.386651 6.395722h19.159951zm123.31148 0c4.175887 0 6.38665-2.459893 6.38665-6.395722v-19.433155c0-4.181819-2.210763-6.395722-6.38665-6.395722h-14.984064c-8.843055 0-15.229705-6.641712-15.229705-15.497327v-47.2299461h31.441971c3.930246 0 6.14101-2.2139037 6.14101-6.1497326v-15.7433155c0-3.9358289-2.210764-6.1497326-6.14101-6.1497326h-31.441971V83.3208556c0-3.9358289-2.456404-6.3957219-6.386651-6.3957219h-19.405591c-3.930246 0-6.38665 2.459893-6.38665 6.3957219V191.064171c0 31.73262 17.931749 47.967915 46.426035 47.967915h15.966626zm71.481356 0c3.930246 0 6.38665-2.459893 6.38665-6.395722v-19.433155c0-4.181819-1.473842-6.395722-5.158448-6.395722h-2.702045c-7.123571 0-12.036379-4.919786-12.036379-13.283423V73.2352941c0-3.9358289-2.456404-6.39572191-6.386651-6.39572191h-19.405591c-3.930246 0-6.38665 2.45989301-6.38665 6.39572191V193.032086c0 32.224598 13.510222 46 43.47835 46h2.210764zM894.445256 241c14.492783 0 31.687611-4.427807 47.408597-16.727273 3.438965-2.459893 3.684606-5.657754.982561-9.101604l-10.808177-12.791444c-2.456404-3.197861-5.404089-3.44385-8.843054-1.475936-7.369212 5.165776-17.194828 9.839573-28.248646 9.839573-13.264582 0-27.020444-7.37968-32.915814-23.122995h86.21978c4.175887 0 6.632291-2.213904 6.386651-6.395722-2.456404-41.3262033-28.248646-67.1550803-62.392662-67.1550803-35.372217 0-63.129582 27.3048129-63.129582 62.2352943 0 35.17647 28.003005 64.695187 65.340346 64.695187zm25.546601-77.97861h-57.725493c2.456404-13.0374328 14.492783-22.3850264 29.231207-22.3850264 15.229705 0 26.037882 10.3315508 28.494286 22.3850264zm82.535174 76.010696c3.930247 0 6.386651-2.459893 6.386651-6.395722V117.513369l81.552612 117.582888c1.719483 2.951871 4.175887 3.935829 7.369212 3.935829h13.755862c4.175887 0 6.632291-2.459893 6.632291-6.395722V63.39572193c0-3.93582888-2.456404-6.39572193-6.632291-6.39572193h-19.159951c-3.930246 0-6.38665 2.45989305-6.38665 6.39572193V179.010695l-82.043893-118.07486612C1002.03575 57.98395722 999.579346 57 996.386021 57H983.12144c-3.930247 0-6.386651 2.45989305-6.386651 6.39572193V232.636364c0 3.935829 2.456404 6.395722 6.386651 6.395722h19.405591zM1204.443439 241c14.492783 0 31.687611-4.427807 47.408597-16.727273 3.438965-2.459893 3.684606-5.657754.982561-9.101604l-10.808177-12.791444c-2.456404-3.197861-5.404089-3.44385-8.843055-1.475936-7.369212 5.165776-17.194828 9.839573-28.248645 9.839573-13.264582 0-27.020444-7.37968-32.915814-23.122995h86.21978c4.175887 0 6.632291-2.213904 6.38665-6.395722-2.456404-41.3262033-28.248645-67.1550803-62.392661-67.1550803-35.372217 0-63.129582 27.3048129-63.129582 62.2352943 0 35.17647 28.003005 64.695187 65.340346 64.695187zm25.546601-77.97861h-57.725493c2.456404-13.0374328 14.492783-22.3850264 29.231207-22.3850264 15.229705 0 26.037882 10.3315508 28.494286 22.3850264zm117.90739 76.010696c4.17589 0 6.38665-2.459893 6.38665-6.395722v-19.433155c0-4.181819-2.21076-6.395722-6.38665-6.395722h-14.984063c-8.843054 0-15.229705-6.641712-15.229705-15.497327v-47.2299461h31.441968c3.93025 0 6.14101-2.2139037 6.14101-6.1497326v-15.7433155c0-3.9358289-2.21076-6.1497326-6.14101-6.1497326h-31.441968V83.3208556c0-3.9358289-2.456404-6.3957219-6.38665-6.3957219h-19.405591c-3.930247 0-6.386651 2.459893-6.386651 6.3957219V191.064171c0 31.73262 17.931749 47.967915 46.426036 47.967915h15.966624zm84.00902 0c3.43896 0 5.89537-1.721926 7.12357-4.919787l24.3184-63.219251 24.07276 63.219251c1.2282 3.443851 3.43896 4.919787 6.87793 4.919787h11.29946c3.43896 0 5.89537-1.721926 7.12357-4.919787l42.98707-110.941176c1.71948-4.4278075-.24564-7.1336898-4.66717-7.1336898h-21.12507c-3.43897 0-5.64973 1.4759358-6.87793 4.9197861L1498.475 186.390374l-24.3184-61.9893045c-.98257-2.7058823-2.94769-3.9358289-5.89537-3.9358289l-10.07126-.2459893c-2.70204 0-4.91281 1.2299466-5.89537 3.9358289l-24.3184 62.2352938-24.56404-65.4331547c-1.2282-3.4438503-3.43896-4.9197861-6.87793-4.9197861h-21.37071c-4.66717 0-6.38665 2.7058823-4.91281 7.1336898l43.47835 110.941176c1.2282 3.197861 3.6846 4.919787 7.12357 4.919787h11.05382zM1627.4362 241c34.88094 0 63.37523-28.534759 63.37523-63.465241 0-34.9304809-28.49429-63.4652403-63.37523-63.4652403-34.88093 0-63.37522 28.5347594-63.37522 63.4652403 0 34.930482 28.49429 63.465241 63.37522 63.465241zm0-32.224599c-17.19482 0-31.19633-14.02139-31.19633-31.240642 0-17.219251 14.00151-30.994652 31.19633-30.994652 17.19483 0 30.95069 13.775401 30.95069 30.994652 0 17.219252-13.75586 31.240642-30.95069 31.240642zm109.80126 30.256685c3.93025 0 6.38665-2.459893 6.38665-6.395722V166.71123c0-11.8074867 9.33434-20.171123 21.12508-20.171123h8.59741c4.17589 0 6.63229-2.2139038 6.63229-6.395722v-17.7112299c0-3.9358289-2.4564-6.3957219-6.63229-6.3957219h-10.80818c-9.57997 0-18.42303 2.2139037-25.5466 7.8716577v-2.2139037c0-3.6898396-1.96512-5.657754-5.40409-5.657754h-13.51022c-3.93024 0-6.38665 2.459893-6.38665 6.3957219V232.636364c0 3.935829 2.45641 6.395722 6.38665 6.395722h19.15995zm86.71106 0c3.93025 0 6.38665-2.459893 6.38665-6.395722v-33.454546l5.64973-6.8877 30.70505 42.802139c1.96513 2.705882 4.42153 3.935829 7.61486 3.935829h24.56404c4.9128 0 6.63229-3.443851 3.6846-7.625669l-46.42603-61.989305 40.03938-45.7540104c3.43897-3.9358289 1.71948-7.6256684-3.68461-7.6256684h-23.58147c-2.94769 0-5.40409.9839572-7.61486 3.4438502l-30.95069 35.6684492V73.2352941c0-3.9358289-2.4564-6.39572191-6.38665-6.39572191h-19.40559c-3.93024 0-6.38665 2.45989301-6.38665 6.39572191V232.636364c0 3.935829 2.45641 6.395722 6.38665 6.395722h19.40559z" fill="#6800FF"/><path fill="#49F4FF" d="M102.0616743 1.5v260.25h-2.2513604V1.5z"/><path d="M149.007884 0v264.410798c-1.796563-.023594-3.536417-.634717-4.955518-1.740624l-66.9886914-56.629973c-1.8050825-1.675089-2.8051615-4.048341-2.745357-6.514909V59.2806951c-.0707788-2.4471082.9482473-4.7986904 2.7800456-6.4154444L144.285275 1.79532978C145.602468.66212265 147.273148.02700304 149.007884 0z" fill="url(#a)" transform="matrix(-1 0 0 1 249.538116 0)"/><path d="M74.6930233 0v263.660798c-1.7965631-.023527-3.5364164-.632917-4.955518-1.735687L2.7488141 205.455769c-1.80508249-1.670338-2.80516145-4.036858-2.74535693-6.496429V59.1125457c-.07077888-2.440167.9482473-4.785079 2.78004555-6.397247L69.9704147 1.79023733C71.2876074.66024455 72.9582872.02692645 74.6930233 0z" fill="url(#b)" transform="translate(26.215372)"/><path d="M94.9936636 73.389637c3.5528775-2.7041795 8.4548864-2.7041795 12.0077644 0l.101339.0792866 39.372126 31.6637264c.094646.029774.199789.016467.285752-.040834l.285005-.175982 40.287939-22.9821737.086465-.0560171c5.786885-3.6966456 14.265018-.329158 14.571401 6.7097771L202 88.9822279l-.00268 125.1986501c-.08415 2.542889-1.271849 4.920329-3.139898 6.413206l-91.336028 77.601817-.436186.237612c-3.99427 2.175876-9.1262982 2.091128-12.6008263-.292535l-.2054526-.140948-91.38622566-77.678747C1.13586126 218.746864.0866402 216.502098 0 213.959514V88.9822279c0-7.1723252 8.38921485-10.7587341 14.2671262-7.3069851l.3992116.248697 40.3075449 22.9918362.2851069.17604c.0712353.047484.1556408.064757.2127193.070797l.0552911.001889zM146.732 190.208502l-39.545231 32.85407-.160798.127881c-.441691.336181-.904233.630569-1.382442.883163l-.004529 63.004886 83.323-70.79-42.23-26.08zm-91.456-.007l-42.221 26.042 82.939 70.498.0043141-62.892508c-.2484252-.146358-.4920412-.304447-.7300772-.474265l-.2500302-.184276-.1599201-.127152L55.276 190.201502zm45.665884-109.1276886h-.031414L61.4486636 112.845245c-.0529527.040183-.1062092.07977-.1597607.118761l-.7950521.639257-.001929 68.333632 40.3488912 33.500957.081851.044056c.064497.021485.134353.021485.19885 0l.074252-.042112 40.333459-33.500957V113.58771l-.690225-.555208-.376192-.271784-39.284404-31.6105353-.079812-.0433759c-.061256-.0240235-.121387-.0329934-.156708-.0329934zm91.411202 9.1670422l-40.470424 23.0843994-.196886.124913c-.167408.100614-.336984.195845-.508508.285693l-.003268 67.814641 41.179 25.43.000086-116.7396464zM9.64491096 90.229191L9.641 206.952502l41.207-25.416.000957-67.797108c-.2181826-.114137-.4332522-.236959-.6447292-.368481l-.0712278-.046411.0112715.006585-.1882715-.120585.17.11L9.64491096 90.229191z" fill="#6800FF"/></g></svg>