<?xml version="1.0" encoding="UTF-8" standalone="no"?>
<svg
   width="40"
   height="40"
   viewBox="0 0 40 40"
   version="1.1"
   id="svg14984"
   sodipodi:docname="waves-block-1.svg"
   inkscape:version="1.1 (c68e22c387, 2021-05-23)"
   xmlns:inkscape="http://www.inkscape.org/namespaces/inkscape"
   xmlns:sodipodi="http://sodipodi.sourceforge.net/DTD/sodipodi-0.dtd"
   xmlns="http://www.w3.org/2000/svg"
   xmlns:svg="http://www.w3.org/2000/svg"
   xmlns:rdf="http://www.w3.org/1999/02/22-rdf-syntax-ns#"
   xmlns:cc="http://creativecommons.org/ns#"
   xmlns:dc="http://purl.org/dc/elements/1.1/">
  <metadata
     id="metadata14990">
    <rdf:RDF>
      <cc:Work
         rdf:about="">
        <dc:format>image/svg+xml</dc:format>
        <dc:type
           rdf:resource="http://purl.org/dc/dcmitype/StillImage" />
      </cc:Work>
    </rdf:RDF>
  </metadata>
  <defs
     id="defs14988" />
  <sodipodi:namedview
     pagecolor="#ffffff"
     bordercolor="#666666"
     borderopacity="1"
     objecttolerance="10"
     gridtolerance="10"
     guidetolerance="10"
     inkscape:pageopacity="0"
     inkscape:pageshadow="2"
     inkscape:window-width="2560"
     inkscape:window-height="1377"
     id="namedview14986"
     showgrid="true"
     inkscape:zoom="11.8"
     inkscape:cx="-11.90678"
     inkscape:cy="9.7881356"
     inkscape:window-x="-8"
     inkscape:window-y="-8"
     inkscape:window-maximized="1"
     inkscape:current-layer="svg14984"
     inkscape:pagecheckerboard="0">
    <inkscape:grid
       type="xygrid"
       id="grid12325" />
  </sodipodi:namedview>
  <g
     fill="none"
     fill-rule="evenodd"
     id="g14982">
    <path
       fill="none"
       d="M0 0h40v40H0z"
       id="path14974" />
  </g>
  <path
     d="m 19.381297,8.7725311 c 0.354408,-0.270845 0.843396,-0.270845 1.197804,0 l 0.01011,0.0079 3.923935,3.1700379 c 0.01028,0.0046 0.02238,0.0037 0.03204,-0.0027 l 0.02843,-0.01763 4.018821,-2.3018519 0.107134,-0.06083 c 0.5702,-0.276423 1.32616,0.06141 1.355025,0.7272539 l 8.48e-4,0.0395 -2.67e-4,12.53966 c -0.0084,0.254691 -0.12687,0.492811 -0.313213,0.642334 l -9.110995,7.772452 -0.04351,0.0238 c -0.398439,0.217931 -0.910371,0.209443 -1.256964,-0.0293 l -0.0205,-0.01412 -9.116002,-7.780157 C 10.018749,23.331236 9.914087,23.106405 9.905444,22.851745 V 10.334256 c 0,-0.7183669 0.836845,-1.0775749 1.423181,-0.7318539 l 0.03982,0.02491 4.020778,2.3028189 0.02844,0.01763 c 0.0071,0.0048 0.01553,0.0065 0.02122,0.0071 l 0.0066,2.73e-4 0.002,-0.0027 0.993,-0.803 z m 5.160147,11.6998659 -3.943855,3.291093 -0.01604,0.01281 c -0.03254,0.02487 -0.06622,0.04745 -0.100818,0.06776 l -2.87e-4,6.298337 8.274,-7.058 z m -9.123,-0.001 -4.212,2.608 8.274,7.061 0.001,-6.299 -0.0977,-0.0651 -0.01595,-0.01273 z M 19.974647,9.5421641 h -0.0031 L 16.0351,12.72433 c -0.0019,0.0015 -0.0039,0.0029 -0.0058,0.0044 l -0.08941,0.07151 -1.92e-4,6.844167 4.024902,3.355393 c 0.0146,0.0066 0.02157,0.0066 0.028,0.0044 L 20,23 24.023362,19.644607 v -6.84592 l -0.07788,-0.06229 -0.02849,-0.02053 -3.918717,-3.1660509 c -0.01407,-0.0068 -0.02007,-0.0076 -0.02359,-0.0076 z m 9.118494,0.9181529 -1.316713,0.754109 -2.720312,1.557981 -0.01964,0.01251 c -0.01654,0.01 -0.03329,0.01943 -0.05023,0.02835 l -8.02e-4,6.79213 4.107,2.547 z m -18.225593,-0.0012 -0.0011,11.690248 4.111,-2.546 v -6.791 l -0.09057,-0.0526 0.02059,0.01319 z"
     fill="#6800ff"
     id="path1702"
     style="fill:#9ba6b2;fill-opacity:1"
     sodipodi:nodetypes="cccccccccccccsscccscccccccccccccccccccccccccccccccccccccccccccccccccccccc" />
  <path
     style="fill:#6800ff;fill-opacity:1;stroke-width:0.0847458"
     d="M 26.970339,20.789172 25,19.557279 l 0.0026,-3.359148 0.0026,-3.359148 1.979308,-1.122881 c 1.088619,-0.617585 2.002683,-1.122882 2.031253,-1.122882 0.02857,0 0.05195,2.574153 0.05195,5.720339 0,3.146187 -0.0286,5.717452 -0.06356,5.713923 -0.03496,-0.0035 -0.950212,-0.560768 -2.033898,-1.23831 z"
     id="path2479" />
</svg>
