<?xml version="1.0" encoding="UTF-8" standalone="no"?>
<svg
   xmlns:dc="http://purl.org/dc/elements/1.1/"
   xmlns:cc="http://creativecommons.org/ns#"
   xmlns:rdf="http://www.w3.org/1999/02/22-rdf-syntax-ns#"
   xmlns:svg="http://www.w3.org/2000/svg"
   xmlns="http://www.w3.org/2000/svg"
   xmlns:sodipodi="http://sodipodi.sourceforge.net/DTD/sodipodi-0.dtd"
   xmlns:inkscape="http://www.inkscape.org/namespaces/inkscape"
   width="40"
   height="40"
   viewBox="0 0 40 40"
   version="1.1"
   id="svg14984"
   sodipodi:docname="waves-block-1.svg"
   inkscape:version="0.92.4 (5da689c313, 2019-01-14)">
  <metadata
     id="metadata14990">
    <rdf:RDF>
      <cc:Work
         rdf:about="">
        <dc:format>image/svg+xml</dc:format>
        <dc:type
           rdf:resource="http://purl.org/dc/dcmitype/StillImage" />
      </cc:Work>
    </rdf:RDF>
  </metadata>
  <defs
     id="defs14988" />
  <sodipodi:namedview
     pagecolor="#ffffff"
     bordercolor="#666666"
     borderopacity="1"
     objecttolerance="10"
     gridtolerance="10"
     guidetolerance="10"
     inkscape:pageopacity="0"
     inkscape:pageshadow="2"
     inkscape:window-width="1600"
     inkscape:window-height="837"
     id="namedview14986"
     showgrid="true"
     inkscape:zoom="11.8"
     inkscape:cx="4.7129883"
     inkscape:cy="9.7649665"
     inkscape:window-x="-8"
     inkscape:window-y="-8"
     inkscape:window-maximized="1"
     inkscape:current-layer="svg14984">
    <inkscape:grid
       type="xygrid"
       id="grid12325" />
  </sodipodi:namedview>
  <g
     fill="none"
     fill-rule="evenodd"
     id="g14982">
    <path
       fill="none"
       d="M0 0h40v40H0z"
       id="path14974" />
  </g>
  <path
     style="opacity:1;fill:none;fill-opacity:1;stroke:#101313;stroke-width:0.45967868;stroke-linecap:round;stroke-linejoin:round;stroke-miterlimit:3.29999995;stroke-dasharray:none;stroke-dashoffset:0;stroke-opacity:1;paint-order:stroke fill markers"
     d="m 10.40911,11.412523 1.93153,-2.871194 2.296955,-2.035937 0.482617,0.24823 1.195125,1.634976 0.149386,0.596461 -2.088143,2.923397 -0.339322,0.135227 -3.288821,-0.0047 z"
     id="path13352-0"
     inkscape:connector-curvature="0"
     sodipodi:nodetypes="cccccccccc" />
  <path
     style="opacity:1;fill:none;fill-opacity:1;stroke:#101313;stroke-width:0.45967868;stroke-linecap:round;stroke-linejoin:round;stroke-miterlimit:3.29999995;stroke-dasharray:none;stroke-dashoffset:0;stroke-opacity:1;paint-order:stroke fill markers"
     d="M 15.812174,6.348781 16.125395,5.59183 c 0,0 1.451612,-0.596914 2.21865,-0.730848 0.934583,-0.163184 1.901406,-0.175957 2.84509,-0.07831 0.747293,0.07733 1.502291,0.225449 2.192551,0.522036 0.219503,0.09432 0.574239,0.287117 0.600341,0.391524 0.02611,0.104408 0.130508,0.73085 0.130508,0.73085 L 23.016264,8.019288 22.363718,8.384713 17.456584,8.358593 17.143363,8.17588 Z"
     id="path13354-6"
     inkscape:connector-curvature="0"
     sodipodi:nodetypes="ccsssccccccc" />
  <path
     style="opacity:1;fill:none;fill-opacity:1;stroke:#101313;stroke-width:0.45967868;stroke-linecap:round;stroke-linejoin:round;stroke-miterlimit:3.29999995;stroke-dasharray:none;stroke-dashoffset:0;stroke-opacity:1;paint-order:stroke fill markers"
     d="m 24.950727,6.558408 0.60907,-0.03693 1.753391,1.661105 1.605732,2.104067 0.664444,1.033577 -0.166107,0.682897 -3.377583,0.05537 -2.32555,-3.082276 -0.110739,-0.609071 z"
     id="path13356-4"
     inkscape:connector-curvature="0"
     sodipodi:nodetypes="cccccccccc" />
  <path
     style="opacity:1;fill:none;fill-opacity:1;stroke:#101313;stroke-width:0.45967868;stroke-linecap:round;stroke-linejoin:round;stroke-miterlimit:3.29999995;stroke-dasharray:none;stroke-dashoffset:0;stroke-opacity:1;paint-order:stroke fill markers"
     d="m 15.224027,12.021599 2.122523,-2.953075 5.297085,-0.05537 2.288633,3.008444 0.05537,0.590619 -2.428282,2.97954 -4.948142,-0.02265 -2.442562,-2.919991 z"
     id="path13358-4"
     inkscape:connector-curvature="0"
     sodipodi:nodetypes="ccccccccc" />
  <path
     style="opacity:1;fill:none;fill-opacity:1;stroke:#101313;stroke-width:0.45967868;stroke-linecap:round;stroke-linejoin:round;stroke-miterlimit:3.29999995;stroke-dasharray:none;stroke-dashoffset:0;stroke-opacity:1;paint-order:stroke fill markers"
     d="m 9.704363,12.952526 0.913561,-0.261017 3.393229,0.0522 2.296954,2.923393 0.104407,0.704748 -2.192547,2.975601 -5.194248,-0.01478 -0.495933,-0.402853 0.31322,-3.210513 z"
     id="path13360-6"
     inkscape:connector-curvature="0"
     sodipodi:nodetypes="cccccccccc" />
  <path
     style="opacity:1;fill:none;fill-opacity:1;stroke:#101313;stroke-width:0.45967868;stroke-linecap:round;stroke-linejoin:round;stroke-miterlimit:3.29999995;stroke-dasharray:none;stroke-dashoffset:0;stroke-opacity:1;paint-order:stroke fill markers"
     d="m 17.508788,16.293548 h 5.063746 L 24.94779,19.425761 25,20 l -2.401359,3.080006 -5.115949,0.02612 -2.37526,-3.053905 0.0522,-0.704748 z"
     id="path13362-9"
     inkscape:connector-curvature="0"
     sodipodi:nodetypes="ccccccccc" />
  <path
     style="opacity:1;fill:#81d742;fill-opacity:1;stroke:#101313;stroke-width:0.45967868;stroke-linecap:round;stroke-linejoin:round;stroke-miterlimit:3.29999995;stroke-dasharray:none;stroke-dashoffset:0;stroke-opacity:1;paint-order:stroke fill markers"
     d="m 26.03851,12.725371 -2.421905,2.993943 0.0261,0.626438 2.270845,3.053907 5.054306,-0.132713 0.635883,-0.337119 -0.365428,-3.288818 -0.88746,-2.688483 -0.829698,-0.29823 z"
     id="path13364-0"
     inkscape:connector-curvature="0"
     sodipodi:nodetypes="cccccccccc" />
  <path
     style="opacity:1;fill:none;fill-opacity:1;stroke:#101313;stroke-width:0.45967868;stroke-linecap:round;stroke-linejoin:round;stroke-miterlimit:3.29999995;stroke-dasharray:none;stroke-dashoffset:0;stroke-opacity:1;paint-order:stroke fill markers"
     d="m 8.529786,20.548136 0.571283,-0.490024 5.171101,0.0202 2.192548,3.027803 0.0261,0.626442 -2.323055,3.027802 -3.680348,-0.02612 L 9.834872,26.525425 8.947413,24.071859 8.634192,21.957617 Z"
     id="path13366-0"
     inkscape:connector-curvature="0"
     sodipodi:nodetypes="ccccccccccc" />
  <path
     style="opacity:1;fill:#81d742;fill-opacity:0;stroke:#101313;stroke-width:0.45967868;stroke-linecap:round;stroke-linejoin:round;stroke-miterlimit:3.29999995;stroke-dasharray:none;stroke-dashoffset:0;stroke-opacity:1;paint-order:stroke fill markers"
     d="m 23.590502,23.132209 2.218651,-3.027802 5.142041,-0.07831 0.652541,0.652543 -0.234913,2.401362 -0.495936,1.827122 -0.443729,1.592208 -0.861358,0.339322 c 0,0 -3.471527,0.156611 -3.549836,0.02612 -0.07831,-0.130508 -2.479667,-3.158313 -2.479667,-3.158313 z"
     id="path13368-0"
     inkscape:connector-curvature="0"
     sodipodi:nodetypes="ccccccccccc" />
  <path
     style="opacity:1;fill:none;fill-opacity:1;stroke:#101313;stroke-width:0.45967868;stroke-linecap:round;stroke-linejoin:round;stroke-miterlimit:3.29999995;stroke-dasharray:none;stroke-dashoffset:0;stroke-opacity:1;paint-order:stroke fill markers"
     d="m 15.081325,26.99527 c 0.0522,-0.130509 2.381739,-3.223765 2.381739,-3.223765 l 5.083367,-0.03895 2.296948,3.132211 0.02611,0.443731 -2.270851,3.132207 -5.089846,0.02611 -2.427464,-3.10611 z"
     id="path13370-6"
     inkscape:connector-curvature="0"
     sodipodi:nodetypes="ccccccccc" />
  <path
     style="opacity:1;fill:none;fill-opacity:1;stroke:#101313;stroke-width:0.45967868;stroke-linecap:round;stroke-linejoin:round;stroke-miterlimit:3.29999995;stroke-dasharray:none;stroke-dashoffset:0;stroke-opacity:1;paint-order:stroke fill markers"
     d="m 10.40911,28.039342 0.298231,-0.415426 3.31243,-0.06575 c 0,0 2.392743,2.882516 2.392743,3.013025 v 0.600341 l -1.174579,1.644408 h -0.73085 c 0,0 -2.375259,-2.114243 -2.427461,-2.218645 -0.0522,-0.104411 -1.670514,-2.557975 -1.670514,-2.557975 z"
     id="path13372-9"
     inkscape:connector-curvature="0"
     sodipodi:nodetypes="cccscccscc" />
  <path
     style="opacity:1;fill:none;fill-opacity:1;stroke:#101313;stroke-width:0.45967868;stroke-linecap:round;stroke-linejoin:round;stroke-miterlimit:3.29999995;stroke-dasharray:none;stroke-dashoffset:0;stroke-opacity:1;paint-order:stroke fill markers"
     d="m 26.032953,27.715538 -2.311943,2.855669 v 0.495935 l 1.22678,1.670512 0.652547,0.0522 2.427461,-2.218651 1.566104,-2.375256 -0.285445,-0.551489 z"
     id="path13374-4"
     inkscape:connector-curvature="0"
     sodipodi:nodetypes="ccccccccc" />
  <path
     style="opacity:1;fill:none;fill-opacity:1;stroke:#101313;stroke-width:0.45967868;stroke-linecap:round;stroke-linejoin:round;stroke-miterlimit:3.29999995;stroke-dasharray:none;stroke-dashoffset:0;stroke-opacity:1;paint-order:stroke fill markers"
     d="m 15.916581,33.233587 c 0.130509,-0.31322 1.618309,-2.114242 1.618309,-2.114242 l 5.083936,-0.03792 1.545915,2.047759 -0.130508,0.548136 c 0,0 -0.949557,0.502839 -1.461699,0.652544 -0.844457,0.24684 -1.730463,0.380124 -2.610183,0.391527 -0.780176,0.01012 -1.571536,-0.07737 -2.323054,-0.287125 -0.532659,-0.148674 -1.513902,-0.678645 -1.513902,-0.678645 z"
     id="path13376-8"
     inkscape:connector-curvature="0"
     sodipodi:nodetypes="cccccsssccc" />
  <path
     style="opacity:1;fill:#81d742;fill-opacity:0;stroke:#101313;stroke-width:0.02725536;stroke-linecap:round;stroke-linejoin:round;stroke-miterlimit:4;stroke-dasharray:none;stroke-dashoffset:0;stroke-opacity:1;paint-order:stroke fill markers"
     d="m 26.342874,26.642396 c -0.155477,-0.01645 -0.239509,-0.07211 -0.356669,-0.236232 -0.0843,-0.118092 -0.613845,-0.79723 -1.17677,-1.509197 -1.018902,-1.288668 -1.02328,-1.295458 -0.974759,-1.511411 0.03207,-0.14269 0.400343,-0.696653 1.076164,-1.618742 l 1.027424,-1.401815 2.446321,-0.04318 2.446322,-0.04318 0.25504,0.25504 0.255039,0.255039 -0.116323,1.13229 c -0.106434,1.036018 -0.151596,1.260758 -0.531174,2.643247 -0.228169,0.831028 -0.426612,1.565767 -0.440985,1.632755 -0.03703,0.172594 -0.622655,0.367136 -1.20734,0.401074 -0.687441,0.03991 -2.467945,0.0691 -2.70229,0.0443 z"
     id="path1417"
     inkscape:connector-curvature="0" />
  <path
     style="opacity:1;fill:none;fill-opacity:1;stroke:none;stroke-width:0.02725536;stroke-linecap:round;stroke-linejoin:round;stroke-miterlimit:4;stroke-dasharray:none;stroke-dashoffset:0;stroke-opacity:1;paint-order:stroke fill markers"
     d="m 26.252233,26.571471 c -0.104989,-0.04251 -0.670258,-0.737235 -1.916891,-2.355888 -0.51792,-0.672481 -0.521611,-0.682175 -0.373007,-0.979726 0.09845,-0.197132 1.21226,-1.775756 1.886797,-2.674197 l 0.116453,-0.155108 2.411496,-0.04506 2.411496,-0.04506 0.255069,0.244068 0.255069,0.244066 -0.0988,0.950028 c -0.109957,1.057262 -0.241938,1.696244 -0.694362,3.361747 l -0.307831,1.133218 -0.343822,0.138422 c -0.296907,0.119531 -0.490522,0.144942 -1.418927,0.186234 -1.351978,0.06013 -2.029551,0.05928 -2.182736,-0.0027 z"
     id="path1419"
     inkscape:connector-curvature="0" />
</svg>
