<?xml version="1.0" encoding="UTF-8" standalone="no"?>
<svg
   xmlns:osb="http://www.openswatchbook.org/uri/2009/osb"
   xmlns:dc="http://purl.org/dc/elements/1.1/"
   xmlns:cc="http://creativecommons.org/ns#"
   xmlns:rdf="http://www.w3.org/1999/02/22-rdf-syntax-ns#"
   xmlns:svg="http://www.w3.org/2000/svg"
   xmlns="http://www.w3.org/2000/svg"
   xmlns:sodipodi="http://sodipodi.sourceforge.net/DTD/sodipodi-0.dtd"
   xmlns:inkscape="http://www.inkscape.org/namespaces/inkscape"
   width="124"
   height="28"
   viewBox="0 0 124 28"
   version="1.1"
   id="svg19607"
   sodipodi:docname="waves-124.svg"
   inkscape:version="0.92.4 (5da689c313, 2019-01-14)">
  <metadata
     id="metadata19613">
    <rdf:RDF>
      <cc:Work
         rdf:about="">
        <dc:format>image/svg+xml</dc:format>
        <dc:type
           rdf:resource="http://purl.org/dc/dcmitype/StillImage" />
      </cc:Work>
    </rdf:RDF>
  </metadata>
  <defs
     id="defs19611">
    <linearGradient
       id="linearGradient4353"
       osb:paint="solid">
      <stop
         style="stop-color:#000000;stop-opacity:1;"
         offset="0"
         id="stop4351" />
    </linearGradient>
    <linearGradient
       id="linearGradient1925"
       osb:paint="solid">
      <stop
         style="stop-color:#000000;stop-opacity:1;"
         offset="0"
         id="stop1923" />
    </linearGradient>
  </defs>
  <sodipodi:namedview
     pagecolor="#ffffff"
     bordercolor="#666666"
     borderopacity="1"
     objecttolerance="10"
     gridtolerance="10"
     guidetolerance="10"
     inkscape:pageopacity="0"
     inkscape:pageshadow="2"
     inkscape:window-width="1600"
     inkscape:window-height="837"
     id="namedview19609"
     showgrid="false"
     inkscape:zoom="12.225806"
     inkscape:cx="84.495732"
     inkscape:cy="16.281332"
     inkscape:window-x="-8"
     inkscape:window-y="-8"
     inkscape:window-maximized="1"
     inkscape:current-layer="svg19607" />
  <text
     xml:space="preserve"
     style="font-style:normal;font-weight:normal;font-size:32px;line-height:1.25;font-family:sans-serif;letter-spacing:0px;word-spacing:0px;fill:#000000;fill-opacity:1;stroke:none"
     x="-1.6358845"
     y="27.672825"
     id="text20164"><tspan
       sodipodi:role="line"
       id="tspan20162"
       x="-1.6358845"
       y="27.672825"
       style="font-style:normal;font-variant:normal;font-weight:normal;font-stretch:normal;font-size:32px;font-family:'Microsoft Yi Baiti';-inkscape-font-specification:'Microsoft Yi Baiti';letter-spacing:-2.04999995px;word-spacing:0.88999999px;baseline-shift:baseline;fill:#076600;fill-opacity:1"
       dx="1.4300001"
       dy="-0.15000001">Turtle<tspan
   style="fill:#000000;fill-opacity:1"
   id="tspan1080">Network</tspan></tspan></text>
  <path
     style="opacity:1;fill:#000000;fill-opacity:1;stroke:none;stroke-width:0;stroke-linecap:round;stroke-linejoin:round;stroke-miterlimit:3.29999995;stroke-dasharray:none;stroke-dashoffset:0;stroke-opacity:1;paint-order:stroke fill markers"
     d="m 98.515911,18.415073 0.730242,-1.085482 0.868367,-0.769704 0.18246,0.09384 0.45184,0.61812 0.0566,0.225496 -0.78945,1.105217 -0.128274,0.05112 -1.243366,-0.0018 z"
     id="path13352-0"
     inkscape:connector-curvature="0"
     sodipodi:nodetypes="cccccccccc" />
  <path
     style="opacity:1;fill:#000000;fill-opacity:1;stroke:none;stroke-width:0;stroke-linecap:round;stroke-linejoin:round;stroke-miterlimit:3.29999995;stroke-dasharray:none;stroke-dashoffset:0;stroke-opacity:1;paint-order:stroke fill markers"
     d="m 100.55858,16.50068 0.11844,-0.286173 c 0,0 0.54879,-0.225668 0.83876,-0.276304 0.35332,-0.0617 0.71884,-0.06653 1.0756,-0.0296 0.28252,0.02924 0.56798,0.08525 0.82893,0.197361 0.083,0.03566 0.21709,0.108547 0.22698,0.148018 0.0107,0.03948 0.0492,0.276306 0.0492,0.276306 l -0.41445,0.601946 -0.2467,0.138154 -1.8552,-0.0099 -0.11841,-0.06906 z"
     id="path13354-6"
     inkscape:connector-curvature="0"
     sodipodi:nodetypes="ccsssccccccc" />
  <path
     style="opacity:1;fill:#000000;fill-opacity:1;stroke:none;stroke-width:0;stroke-linecap:round;stroke-linejoin:round;stroke-miterlimit:3.29999995;stroke-dasharray:none;stroke-dashoffset:0;stroke-opacity:1;paint-order:stroke fill markers"
     d="m 104.01349,16.579931 0.23027,-0.01394 0.6629,0.627996 0.60706,0.795462 0.2512,0.390752 -0.0627,0.258177 -1.27693,0.02094 -0.8792,-1.165281 -0.0418,-0.230267 z"
     id="path13356-4"
     inkscape:connector-curvature="0"
     sodipodi:nodetypes="cccccccccc" />
  <path
     style="opacity:1;fill:#000000;fill-opacity:1;stroke:none;stroke-width:0;stroke-linecap:round;stroke-linejoin:round;stroke-miterlimit:3.29999995;stroke-dasharray:none;stroke-dashoffset:0;stroke-opacity:1;paint-order:stroke fill markers"
     d="m 100.33624,18.64534 0.80243,-1.116437 2.00261,-0.02093 0.86525,1.137371 0.0209,0.223288 -0.91803,1.126442 -1.87069,-0.0086 -0.92343,-1.10393 z"
     id="path13358-4"
     inkscape:connector-curvature="0"
     sodipodi:nodetypes="ccccccccc" />
  <path
     style="opacity:1;fill:#000000;fill-opacity:1;stroke:none;stroke-width:0;stroke-linecap:round;stroke-linejoin:round;stroke-miterlimit:3.29999995;stroke-dasharray:none;stroke-dashoffset:0;stroke-opacity:1;paint-order:stroke fill markers"
     d="m 98.249474,18.997286 0.34538,-0.09868 1.282855,0.01973 0.868381,1.105214 0.0396,0.266437 -0.828921,1.124953 -1.963729,-0.0055 -0.187492,-0.152301 0.118415,-1.213764 z"
     id="path13360-6"
     inkscape:connector-curvature="0"
     sodipodi:nodetypes="cccccccccc" />
  <path
     style="opacity:1;fill:#000000;fill-opacity:1;stroke:none;stroke-width:0;stroke-linecap:round;stroke-linejoin:round;stroke-miterlimit:3.29999995;stroke-dasharray:none;stroke-dashoffset:0;stroke-opacity:1;paint-order:stroke fill markers"
     d="m 101.2,20.260391 h 1.9144 l 0.89798,1.184159 0.0197,0.217096 -0.90787,1.164425 -1.93413,0.0099 -0.89799,-1.154557 0.0197,-0.266435 z"
     id="path13362-9"
     inkscape:connector-curvature="0"
     sodipodi:nodetypes="ccccccccc" />
  <path
     style="opacity:1;fill:#000000;fill-opacity:1;stroke:none;stroke-width:0;stroke-linecap:round;stroke-linejoin:round;stroke-miterlimit:3.29999995;stroke-dasharray:none;stroke-dashoffset:0;stroke-opacity:1;paint-order:stroke fill markers"
     d="m 104.42474,18.911407 -0.9156,1.131887 0.0107,0.236831 0.85852,1.154558 1.91083,-0.05016 0.2404,-0.127452 -0.13816,-1.243366 -0.33551,-1.016405 -0.31366,-0.112751 z"
     id="path13364-0"
     inkscape:connector-curvature="0"
     sodipodi:nodetypes="cccccccccc" />
  <path
     style="opacity:1;fill:#000000;fill-opacity:1;stroke:none;stroke-width:0;stroke-linecap:round;stroke-linejoin:round;stroke-miterlimit:3.29999995;stroke-dasharray:none;stroke-dashoffset:0;stroke-opacity:1;paint-order:stroke fill markers"
     d="m 97.805419,21.868875 0.215975,-0.185259 1.954981,0.0075 0.828915,1.144689 0.0107,0.236832 -0.878255,1.144687 -1.391383,-0.0099 -0.246697,-0.07893 -0.335515,-0.927591 -0.118415,-0.79931 z"
     id="path13366-0"
     inkscape:connector-curvature="0"
     sodipodi:nodetypes="ccccccccccc" />
  <path
     style="opacity:1;fill:#000000;fill-opacity:1;stroke:none;stroke-width:0;stroke-linecap:round;stroke-linejoin:round;stroke-miterlimit:3.29999995;stroke-dasharray:none;stroke-dashoffset:0;stroke-opacity:1;paint-order:stroke fill markers"
     d="m 103.49926,22.845806 0.83878,-1.144689 1.94399,-0.0296 0.24671,0.246701 -0.0888,0.907856 -0.1875,0.690759 -0.16777,0.60195 -0.32565,0.128283 c 0,0 -1.31242,0.05922 -1.34203,0.0099 -0.0295,-0.04934 -0.93746,-1.194027 -0.93746,-1.194027 z"
     id="path13368-0"
     inkscape:connector-curvature="0"
     sodipodi:nodetypes="ccccccccccc" />
  <path
     style="opacity:1;fill:#000000;fill-opacity:1;stroke:none;stroke-width:0;stroke-linecap:round;stroke-linejoin:round;stroke-miterlimit:3.29999995;stroke-dasharray:none;stroke-dashoffset:0;stroke-opacity:1;paint-order:stroke fill markers"
     d="m 100.28228,24.306271 c 0.0197,-0.04934 0.90042,-1.218774 0.90042,-1.218774 l 1.92184,-0.01473 0.86838,1.184162 0.0107,0.167757 -0.85853,1.184159 -1.92424,0.0099 -0.91772,-1.174293 z"
     id="path13370-6"
     inkscape:connector-curvature="0"
     sodipodi:nodetypes="ccccccccc" />
  <path
     style="opacity:1;fill:#000000;fill-opacity:1;stroke:none;stroke-width:0;stroke-linecap:round;stroke-linejoin:round;stroke-miterlimit:3.29999995;stroke-dasharray:none;stroke-dashoffset:0;stroke-opacity:1;paint-order:stroke fill markers"
     d="m 98.515911,24.700993 0.11275,-0.157056 1.2523,-0.02483 c 0,0 0.904589,1.089761 0.904589,1.139101 v 0.226964 l -0.44405,0.621683 h -0.27631 c 0,0 -0.897993,-0.799308 -0.917726,-0.838778 -0.01973,-0.03948 -0.631557,-0.967065 -0.631557,-0.967065 z"
     id="path13372-9"
     inkscape:connector-curvature="0"
     sodipodi:nodetypes="cccscccscc" />
  <path
     style="opacity:1;fill:#000000;fill-opacity:1;stroke:none;stroke-width:0;stroke-linecap:round;stroke-linejoin:round;stroke-miterlimit:3.29999995;stroke-dasharray:none;stroke-dashoffset:0;stroke-opacity:1;paint-order:stroke fill markers"
     d="m 104.42265,24.578575 -0.87405,1.079612 v 0.187493 l 0.46378,0.631551 0.24672,0.01973 0.91773,-0.838779 0.59208,-0.897989 -0.10794,-0.208495 z"
     id="path13374-4"
     inkscape:connector-curvature="0"
     sodipodi:nodetypes="ccccccccc" />
  <path
     style="opacity:1;fill:#000000;fill-opacity:1;stroke:none;stroke-width:0;stroke-linecap:round;stroke-linejoin:round;stroke-miterlimit:3.29999995;stroke-dasharray:none;stroke-dashoffset:0;stroke-opacity:1;paint-order:stroke fill markers"
     d="m 100.59804,26.664722 c 0.0495,-0.118415 0.61183,-0.799308 0.61183,-0.799308 l 1.92203,-0.01434 0.58446,0.774174 -0.0495,0.207226 c 0,0 -0.359,0.190104 -0.55261,0.246702 -0.31926,0.09331 -0.6542,0.14371 -0.98679,0.148018 -0.29497,0.0038 -0.59414,-0.02925 -0.87826,-0.108547 -0.20136,-0.0562 -0.57236,-0.256568 -0.57236,-0.256568 z"
     id="path13376-8"
     inkscape:connector-curvature="0"
     sodipodi:nodetypes="cccccsssccc" />
</svg>
