<svg xmlns="http://www.w3.org/2000/svg" preserveAspectRatio="xMidYMid meet" viewBox="0 0 240 30"><defs><linearGradient x1=".0046285%" y1="49.9990596%" x2="100%" y2="49.9990596%" id="a"><stop stop-color="#00B8C4" offset="0%"/><stop stop-color="#00EFFF" offset="100%"/></linearGradient><linearGradient x1="45.9907807%" y1="49.9990596%" x2="54.0095905%" y2="50%" id="b"><stop stop-color="#00EFFF" offset="0%"/><stop stop-color="#49F4FF" offset="100%"/></linearGradient></defs><g fill="none" fill-rule="nonzero"><path fill="#49F4FF" d="M10.48232422.1500506V26.105957H9.7V.1500506z"/><path d="M14.9 0v26.45c-.1796468-.0023602-.3536229-.0634932-.4955256-.1741212l-6.69851467-5.6649077c-.1804987-.1675655-.28050131-.4049707-.27452117-.6517107V5.9300694c-.00707751-.24479337.09481971-.48003093.27798985-.64176086l6.71833569-5.108715C14.5594764.0662346 14.7265356.00270123 14.9 0z" fill="url(#a)" transform="matrix(-1 0 0 1 24.931092 0)"/><path d="M7.46890714 0v26.3749747c-.17964681-.0023536-.35362293-.0633131-.49552557-.1736273l-6.6985147-5.6488392c-.1804987-.1670902-.2805013-.403822-.27452117-.6498621V5.91324879c-.00707751-.24409902.09481971-.47866932.27798985-.63994052L6.99667126.17908413C7.12838357.06604673 7.29544271.00269355 7.46890714 0z" fill="url(#b)" transform="translate(2.6)"/><path d="M9.47585307 7.30313413c.35440834-.27084551.84339583-.27084551 1.19780423 0l.0101088.0079412 3.9239349 3.17003797c.0102849.0045902.0223751.0037175.0320366-.0027488l.02843-.017626 4.0188216-2.30185113.1071343-.0608258c.5701993-.27642316 1.3261596.06141441 1.3550241.72725383L20.15 8.86485858l-.0002673 12.53966022c-.0083942.254691-.1268701.4928109-.3132127.6423347l-9.1109948 7.7724513-.0435106.0237988c-.3984384.2179317-.91037087.2094435-1.25696366-.0292997l-.0204944-.0141172-9.11600221-7.7801564C.11330497 21.8618394.00864257 21.6370079 0 21.3823475V8.86485858c0-.71836654.83684495-1.07757448 1.42318116-.73185382l.03982234.02490902 4.02077737 2.30281892.02844012.0176318c.0071059.0047559.01552556.0064859.02121928.0070908l.00655591.0002729L5.542 10.483l.993-.803zM14.636 19.003l-3.9438545 3.2910926-.01604.0128083c-.0325411.0248685-.0662168.0474537-.1008188.0677554L10.575 28.673l8.274-7.058-4.213-2.612zm-9.123-.001L1.301 21.61l8.274 7.061.001-6.299-.09769868-.0650991-.01595243-.0127353L5.513 19.002zm4.5562028-10.92923327h-.0031337L6.1296563 11.2549333a1.00193272 1.00193272 0 01-.00584041.0044164l-.08940453.0715052-.00019243 6.8441675 4.02490177 3.3553926c.0145985.0065645.0215669.0065645.0280006.0044125l.0074068-.0042178 4.0233624-3.3553926v-6.8459199L14.04 11.267l-.0284872-.0205328-3.9187165-3.16605146c-.0140719-.00675061-.0200701-.00764901-.0235935-.00764901zm9.1184937.91815363l-4.037025 2.31208984-.0196399.012511c-.0165369.0099794-.0332861.01943-.0502259.0283519L15.08 18.136l4.107 2.547.0006965-11.69207964zM.96210374 8.98975205L.961 20.68l4.111-2.546v-6.791l-.09057184-.0525969.02058704.0131912L.96210374 8.98975205z" fill="#6800FF"/><g fill="#6800FF"><path d="M41.65081403 26.7433155c.54468088 0 .83304135-.3208556.83304135-.8342246V7.20320856h4.48560732c.5446808 0 .8330413-.28877006.8330413-.8342246V3.8342246C47.802504 3.3208556 47.5141435 3 46.9694627 3H33.83304135C33.32040052 3 33 3.32085561 33 3.8342246v2.53475936c0 .54545454.32040052.8342246.83304135.8342246h4.48560728V25.9090909c0 .513369.28836046.8342246.83304135.8342246h2.49912405zM55.3959963 27c3.8127662 0 6.9526913-3.1122995 6.9526913-6.9625668v-8.50267384c0-.51336899-.3204005-.8342246-.8650814-.8342246h-2.4991241c-.5126408 0-.8330413.32085561-.8330413.8342246v8.50267384c0 1.5080213-1.249562 2.7914438-2.7554445 2.7914438-1.5379225 0-2.7874845-1.2834225-2.7874845-2.7914438v-8.50267384c0-.51336899-.3204005-.8342246-.8330413-.8342246h-2.4991241c-.5126408 0-.8330414.32085561-.8330414.8342246v8.50267384C48.443305 23.8877005 51.5511901 27 55.3959963 27zm13.1364213-.2566845c.5126409 0 .8330414-.3208556.8330414-.8342246v-8.5989305c0-1.5401069 1.217522-2.631016 2.7554444-2.631016h1.1214019c.5446809 0 .8650814-.2887701.8650814-.8342246v-2.31016044c0-.51336899-.3204005-.8342246-.8650814-.8342246H71.832543c-1.249562 0-2.4030039.28877005-3.3321654 1.02673797v-.28877006c0-.48128342-.2563204-.73796791-.7048812-.73796791h-1.7622028c-.5126409 0-.8330414.32085561-.8330414.8342246V25.9090909c0 .513369.3204005.8342246.8330414.8342246h2.499124zm16.0841061 0c.5446809 0 .8330414-.3208556.8330414-.8342246v-2.5347593c0-.5454546-.2883605-.8342246-.8330414-.8342246h-1.9544432c-1.1534418 0-1.9864832-.8663102-1.9864832-2.0213904v-6.1604278h4.1011267c.5126408 0 .8010013-.2887701.8010013-.8021391v-2.0534759c0-.51336899-.2883605-.80213904-.8010013-.80213904h-4.1011267V6.43315508c0-.51336898-.3204005-.8342246-.8330413-.8342246h-2.5311641c-.5126409 0-.8330414.32085562-.8330414.8342246V20.486631c0 4.1390374 2.3389238 6.2566845 6.0555698 6.2566845h2.0826034zm9.3236551 0c.5126409 0 .8330414-.3208556.8330414-.8342246v-2.5347593c0-.5454546-.1922403-.8342246-.6728411-.8342246h-.3524406c-.9291615 0-1.5699625-.6417113-1.5699625-1.7326204V5.11764706c0-.51336899-.3204005-.8342246-.8330414-.8342246h-2.5311641c-.5126408 0-.8330413.32085561-.8330413.8342246V20.7433155c0 4.2032086 1.7622028 6 5.6710892 6h.2883604zM105.0580769 27c1.890363 0 4.1331667-.5775401 6.18373-2.1818182.4485607-.3208556.4806008-.7379679.1281602-1.1871658l-1.4097623-1.6684492c-.3204005-.4171123-.7048811-.4491978-1.1534419-.1925133-.9612015.6737968-2.2428036 1.2834224-3.6846059 1.2834224-1.7301628 0-3.5244057-.9625668-4.293367-3.0160427h11.2460582c.5446809 0 .8650815-.2887701.8330414-.8342246-.3204005-5.3903744-3.684606-8.75935833-8.1381732-8.75935833-4.6137675 0-8.2342934 3.56149733-8.2342934 8.11764703C96.535423 23.1497326 100.187989 27 105.0580769 27zm3.3321654-10.171123h-7.5294122c.3204005-1.7005348 1.890363-2.9197861 3.8127661-2.9197861 1.9864833 0 3.3962456 1.3475936 3.7166461 2.9197861zm10.7654574 9.9144385c.5126409 0 .8330414-.3208556.8330414-.8342246V10.89304813l10.6372972 15.33689837c.2242804.3850268.5446809.513369.9612016.513369h1.7942431c.544681 0 .865081-.3208556.865081-.8342246V3.8342246c0-.51336899-.3204-.8342246-.865081-.8342246h-2.4991242c-.5126409 0-.8330414.32085561-.8330414.8342246v15.0802139L119.34794 3.51336898C119.0916196 3.12834225 118.7712191 3 118.3546984 3h-1.7301628c-.5126408 0-.8330413.32085561-.8330413.8342246v22.0748663c0 .513369.3204005.8342246.8330413.8342246h2.5311641zM145.492622 27c1.890364 0 4.133167-.5775401 6.18373-2.1818182.448561-.3208556.480601-.7379679.128161-1.1871658l-1.409763-1.6684492c-.3204-.4171123-.704881-.4491978-1.153441-.1925133-.961202.6737968-2.242804 1.2834224-3.684606 1.2834224-1.730163 0-3.524406-.9625668-4.293367-3.0160427h11.246058c.544681 0 .865081-.2887701.833041-.8342246-.3204-5.3903744-3.684606-8.75935833-8.138173-8.75935833-4.613768 0-8.234293 3.56149733-8.234293 8.11764703 0 4.5882353 3.652566 8.4385027 8.522653 8.4385027zm3.332166-10.171123h-7.529412c.3204-1.7005348 1.890363-2.9197861 3.812766-2.9197861 1.986483 0 3.396245 1.3475936 3.716646 2.9197861zm15.379225 9.9144385c.544681 0 .833041-.3208556.833041-.8342246v-2.5347593c0-.5454546-.28836-.8342246-.833041-.8342246h-1.954443c-1.153442 0-1.986484-.8663102-1.986484-2.0213904v-6.1604278h4.101127c.512641 0 .801001-.2887701.801001-.8021391v-2.0534759c0-.51336899-.28836-.80213904-.801001-.80213904h-4.101127V6.43315508c0-.51336898-.3204-.8342246-.833041-.8342246h-2.531164c-.512641 0-.833041.32085562-.833041.8342246V20.486631c0 4.1390374 2.338923 6.2566845 6.055569 6.2566845h2.082604zm10.957698 0c.44856 0 .768961-.2245989.929161-.6417112l3.171965-8.2459893 3.139925 8.2459893c.160201.4491978.448561.6417112.897122.6417112h1.473842c.448561 0 .768961-.2245989.929162-.6417112l5.607009-14.47058826c.22428-.5775401-.03204-.93048128-.608761-.93048128h-2.755445c-.44856 0-.736921.19251337-.897121.64171123l-3.204005 8.53475931-3.171965-8.08556145c-.128161-.35294118-.384481-.51336898-.768962-.51336898l-1.313642-.03208557c-.35244 0-.640801.16042781-.768961.51336899l-3.171965 8.11764701-3.204005-8.53475931c-.160201-.44919786-.448561-.64171123-.897122-.64171123h-2.787484c-.608761 0-.833042.35294118-.640801.93048128l5.671089 14.47058826c.1602.4171123.4806.6417112.929161.6417112h1.441803zM200.665592 27c4.549687 0 8.266333-3.7219251 8.266333-8.2780749 0-4.5561497-3.716646-8.27807483-8.266333-8.27807483s-8.266333 3.72192513-8.266333 8.27807483c0 4.5561498 3.716646 8.2780749 8.266333 8.2780749zm0-4.2032086c-2.242804 0-4.069087-1.828877-4.069087-4.0748663 0-2.2459893 1.826283-4.0427807 4.069087-4.0427807 2.242804 0 4.037046 1.7967914 4.037046 4.0427807 0 2.2459893-1.794242 4.0748663-4.037046 4.0748663zm14.321903 3.9465241c.512641 0 .833042-.3208556.833042-.8342246v-8.5989305c0-1.5401069 1.217521-2.631016 2.755444-2.631016h1.121402c.544681 0 .865081-.2887701.865081-.8342246v-2.31016044c0-.51336899-.3204-.8342246-.865081-.8342246h-1.409762c-1.249563 0-2.403004.28877005-3.332166 1.02673797v-.28877006c0-.48128342-.25632-.73796791-.704881-.73796791h-1.762203c-.512641 0-.833041.32085561-.833041.8342246V25.9090909c0 .513369.3204.8342246.833041.8342246h2.499124zm11.310139 0c.51264 0 .833041-.3208556.833041-.8342246v-4.3636364l.736921-.8983957 4.005007 5.5828877c.25632.3529412.57672.513369.993241.513369h3.204005c.640801 0 .865082-.4491979.480601-.9946524l-6.05557-8.0855615 5.222529-5.96791443c.448561-.51336899.22428-.99465241-.480601-.99465241h-3.075845c-.384481 0-.704881.12834225-.993242.44919786l-4.037046 4.65240638V5.11764706c0-.51336899-.320401-.8342246-.833041-.8342246h-2.531165c-.51264 0-.833041.32085561-.833041.8342246V25.9090909c0 .513369.320401.8342246.833041.8342246h2.531165z"/></g></g></svg>