<?xml version="1.0" encoding="UTF-8" standalone="no"?>
<svg
   width="40"
   height="40"
   viewBox="0 0 40 40"
   version="1.1"
   id="svg14350"
   sodipodi:docname="waves-block-2.svg"
   inkscape:version="1.1 (c68e22c387, 2021-05-23)"
   xmlns:inkscape="http://www.inkscape.org/namespaces/inkscape"
   xmlns:sodipodi="http://sodipodi.sourceforge.net/DTD/sodipodi-0.dtd"
   xmlns="http://www.w3.org/2000/svg"
   xmlns:svg="http://www.w3.org/2000/svg"
   xmlns:rdf="http://www.w3.org/1999/02/22-rdf-syntax-ns#"
   xmlns:cc="http://creativecommons.org/ns#"
   xmlns:dc="http://purl.org/dc/elements/1.1/">
  <metadata
     id="metadata14356">
    <rdf:RDF>
      <cc:Work
         rdf:about="">
        <dc:format>image/svg+xml</dc:format>
        <dc:type
           rdf:resource="http://purl.org/dc/dcmitype/StillImage" />
      </cc:Work>
    </rdf:RDF>
  </metadata>
  <defs
     id="defs14354" />
  <sodipodi:namedview
     pagecolor="#ffffff"
     bordercolor="#666666"
     borderopacity="1"
     objecttolerance="10"
     gridtolerance="10"
     guidetolerance="10"
     inkscape:pageopacity="0"
     inkscape:pageshadow="2"
     inkscape:window-width="1363"
     inkscape:window-height="1081"
     id="namedview14352"
     showgrid="true"
     inkscape:zoom="16.68772"
     inkscape:cx="36.433977"
     inkscape:cy="27.415369"
     inkscape:window-x="2830"
     inkscape:window-y="122"
     inkscape:window-maximized="0"
     inkscape:current-layer="svg14350"
     inkscape:pagecheckerboard="0">
    <inkscape:grid
       type="xygrid"
       id="grid10937" />
  </sodipodi:namedview>
  <g
     fill="none"
     fill-rule="evenodd"
     id="g14348">
    <path
       fill="none"
       d="M0 0h40v40H0z"
       id="path14342" />
  </g>
  <path
     d="m 19.381297,8.772531 c 0.354408,-0.270845 0.843396,-0.270845 1.197804,0 l 0.01011,0.0079 3.923935,3.170038 c 0.01028,0.0046 0.02238,0.0037 0.03204,-0.0027 l 0.02843,-0.01763 4.018821,-2.301852 0.107134,-0.06083 c 0.5702,-0.276423 1.32616,0.06141 1.355025,0.727254 l 8.48e-4,0.0395 -2.67e-4,12.53966 c -0.0084,0.254691 -0.12687,0.492811 -0.313213,0.642334 l -9.110995,7.772452 -0.04351,0.0238 c -0.398439,0.217931 -0.910371,0.209443 -1.256964,-0.0293 l -0.0205,-0.01412 -9.116002,-7.780157 C 10.018749,23.331236 9.914087,23.106405 9.905444,22.851745 V 10.334256 c 0,-0.718367 0.836845,-1.077575 1.423181,-0.731854 l 0.03982,0.02491 4.020778,2.302819 0.02844,0.01763 c 0.0071,0.0048 0.01553,0.0065 0.02122,0.0071 l 0.0066,2.73e-4 0.002,-0.0027 0.993,-0.803 z m 5.160147,11.699866 -3.943855,3.291093 -0.01604,0.01281 c -0.03254,0.02487 -0.06622,0.04745 -0.100818,0.06776 l -2.87e-4,6.298337 8.274,-7.058 z m -9.123,-0.001 -4.212,2.608 8.274,7.061 0.001,-6.299 -0.0977,-0.0651 -0.01595,-0.01273 z M 19.974647,9.542164 h -0.0031 L 16.0351,12.72433 a 1.0019327,1.0019327 0 0 1 -0.0058,0.0044 l -0.08941,0.07151 -1.92e-4,6.844167 4.024902,3.355393 c 0.0146,0.0066 0.02157,0.0066 0.028,0.0044 L 20,23 24.023362,19.644607 v -6.84592 l -0.07788,-0.06229 -0.02849,-0.02053 -3.918717,-3.166051 c -0.01407,-0.0068 -0.02007,-0.0076 -0.02359,-0.0076 z m 9.118494,0.918153 -4.037025,2.31209 -0.01964,0.01251 c -0.01654,0.01 -0.03329,0.01943 -0.05023,0.02835 l -8.02e-4,6.79213 4.107,2.547 z m -18.225593,-0.0012 -0.0011,11.690248 4.111,-2.546 v -6.791 l -0.09057,-0.0526 0.02059,0.01319 z"
     fill="#6800ff"
     id="path1702"
     style="fill:#9ba6b2;fill-opacity:1" />
  <path
     style="fill:#6800ff;stroke-width:0.0599243"
     d="m 10.906223,16.299411 c 0,-3.164004 0.01036,-5.752734 0.02302,-5.752734 0.01266,0 0.909278,0.506678 1.992483,1.125951 l 1.969463,1.125951 v 3.408854 3.408853 l -1.96447,1.217929 c -1.080459,0.669861 -1.977076,1.217929 -1.992483,1.217929 -0.01541,0 -0.02801,-2.58873 -0.02801,-5.752733 z"
     id="path2882" />
</svg>
