<svg xmlns="http://www.w3.org/2000/svg" width="40" height="40" viewBox="0 0 40 40">
    <g fill="none" fill-rule="evenodd">
        <path fill="none" d="M0 0h40v40H0z"/>
        <path fill="#A5AEB9" fill-rule="nonzero" stroke="#A5AEB9" stroke-width=".2" d="M11.519 18.925c-.132-.1-.34-.1-.497.016l-6.524 3.772c-.136.068-.248.259-.248.44v7.142c0 .166.097.322.263.448l6.56 3.86c.051-.02.084-.01.179.022a.555.555 0 0 0 .29-.062l6.47-3.828c.136-.068.248-.259.248-.44v-7.141c0-.163-.093-.316-.275-.456l-6.466-3.773zm5.178 4.234l-5.47 3.049-5.413-3.051 5.47-3.171 5.413 3.173zM5.295 29.742v-5.685l5.465 3.046v6.01l-5.342-3.157-.123-.214zm6.51-2.64l5.41-2.988v5.881l-5.41 3.172v-6.065z"/>
        <path fill="#1F5AF6" fill-rule="nonzero" stroke="#1F5AF6" stroke-width=".2" d="M29.008 18.814c-.131-.099-.34-.099-.497.017l-6.51 3.764a.74.74 0 0 1-.13.073c-.078.073-.131.207-.131.375v7.14c0 .167.097.323.262.45l6.496 3.811a.808.808 0 0 0 .274.085.794.794 0 0 0 .26-.076l6.47-3.828c.136-.069.248-.26.248-.441v-7.141c0-.163-.093-.316-.275-.456l-6.467-3.773zm5.067 4.18l-5.358 2.992-5.362-2.995 5.419-3.116 5.301 3.118zm-5.825 3.943v6.12l-5.466-3.229v-5.937l5.466 3.046zm1.045-.056l5.41-2.989v5.936l-5.41 3.232v-6.179z"/>
        <path fill="#A5AEB9" fill-rule="nonzero" stroke="#A5AEB9" stroke-width=".2" d="M26.978 15.736V8.595c0-.166-.098-.322-.263-.449l-6.48-3.78c-.13-.1-.34-.1-.496.016l-6.523 3.772c-.137.068-.249.26-.249.44v7.142c0 .166.098.322.263.448l6.496 3.812a.808.808 0 0 0 .274.084.794.794 0 0 0 .259-.076l6.47-3.827c.137-.069.249-.26.249-.441zm-1.614-7.19l-5.476 2.992-5.303-2.997L20 5.427l5.363 3.12zm-5.886 3.998v6.061l-5.466-3.168v-5.94l5.466 3.047zm1.044-.056l5.41-2.988v5.936l-5.41 3.172v-6.12z"/>
    </g>
</svg>
