<?xml version="1.0" encoding="UTF-8" standalone="no"?>
<svg
   xmlns:dc="http://purl.org/dc/elements/1.1/"
   xmlns:cc="http://creativecommons.org/ns#"
   xmlns:rdf="http://www.w3.org/1999/02/22-rdf-syntax-ns#"
   xmlns:svg="http://www.w3.org/2000/svg"
   xmlns="http://www.w3.org/2000/svg"
   xmlns:sodipodi="http://sodipodi.sourceforge.net/DTD/sodipodi-0.dtd"
   xmlns:inkscape="http://www.inkscape.org/namespaces/inkscape"
   width="40"
   height="40"
   viewBox="0 0 40 40"
   version="1.1"
   id="svg14350"
   sodipodi:docname="waves-block-2.svg"
   inkscape:version="0.92.4 (5da689c313, 2019-01-14)">
  <metadata
     id="metadata14356">
    <rdf:RDF>
      <cc:Work
         rdf:about="">
        <dc:format>image/svg+xml</dc:format>
        <dc:type
           rdf:resource="http://purl.org/dc/dcmitype/StillImage" />
      </cc:Work>
    </rdf:RDF>
  </metadata>
  <defs
     id="defs14354" />
  <sodipodi:namedview
     pagecolor="#ffffff"
     bordercolor="#666666"
     borderopacity="1"
     objecttolerance="10"
     gridtolerance="10"
     guidetolerance="10"
     inkscape:pageopacity="0"
     inkscape:pageshadow="2"
     inkscape:window-width="1600"
     inkscape:window-height="837"
     id="namedview14352"
     showgrid="true"
     inkscape:zoom="8.34386"
     inkscape:cx="32.736529"
     inkscape:cy="20.251656"
     inkscape:window-x="-8"
     inkscape:window-y="-8"
     inkscape:window-maximized="1"
     inkscape:current-layer="svg14350">
    <inkscape:grid
       type="xygrid"
       id="grid10937" />
  </sodipodi:namedview>
  <g
     fill="none"
     fill-rule="evenodd"
     id="g14348">
    <path
       fill="none"
       d="M0 0h40v40H0z"
       id="path14342" />
  </g>
  <path
     style="opacity:1;fill:none;fill-opacity:1;stroke:#101313;stroke-width:0.45967868;stroke-linecap:round;stroke-linejoin:round;stroke-miterlimit:3.29999995;stroke-dasharray:none;stroke-dashoffset:0;stroke-opacity:1;paint-order:stroke fill markers"
     d="m 10.06624,11.770127 1.93153,-2.871194 2.29695,-2.035937 0.48262,0.24823 1.19512,1.634977 0.14939,0.59646 -2.08814,2.923397 -0.33933,0.135227 -3.28882,-0.0047 z"
     id="path13352-0"
     inkscape:connector-curvature="0"
     sodipodi:nodetypes="cccccccccc" />
  <path
     style="opacity:1;fill:none;fill-opacity:1;stroke:#101313;stroke-width:0.45967868;stroke-linecap:round;stroke-linejoin:round;stroke-miterlimit:3.29999995;stroke-dasharray:none;stroke-dashoffset:0;stroke-opacity:1;paint-order:stroke fill markers"
     d="m 15.4693,6.706385 0.31322,-0.756951 c 0,0 1.45161,-0.596914 2.21865,-0.730848 0.93459,-0.163184 1.90141,-0.175957 2.84509,-0.07831 0.7473,0.07733 1.50229,0.225449 2.19255,0.522036 0.21951,0.09432 0.57424,0.287118 0.60034,0.391525 0.0261,0.104407 0.13051,0.730849 0.13051,0.730849 L 22.67339,8.376893 22.02085,8.742318 17.11371,8.716198 16.80049,8.533486 Z"
     id="path13354-6"
     inkscape:connector-curvature="0"
     sodipodi:nodetypes="ccsssccccccc" />
  <path
     style="opacity:1;fill:none;fill-opacity:1;stroke:#101313;stroke-width:0.45967868;stroke-linecap:round;stroke-linejoin:round;stroke-miterlimit:3.29999995;stroke-dasharray:none;stroke-dashoffset:0;stroke-opacity:1;paint-order:stroke fill markers"
     d="m 24.60785,6.916012 0.60907,-0.03693 1.7534,1.661106 1.60573,2.104066 0.66444,1.033577 -0.16611,0.682897 -3.37758,0.05537 -2.32555,-3.082275 -0.11074,-0.609072 z"
     id="path13356-4"
     inkscape:connector-curvature="0"
     sodipodi:nodetypes="cccccccccc" />
  <path
     style="opacity:1;fill:none;fill-opacity:1;stroke:#101313;stroke-width:0.45967868;stroke-linecap:round;stroke-linejoin:round;stroke-miterlimit:3.29999995;stroke-dasharray:none;stroke-dashoffset:0;stroke-opacity:1;paint-order:stroke fill markers"
     d="m 14.88115,12.379203 2.12253,-2.953074 5.29708,-0.05537 2.28864,3.008443 0.0554,0.590619 -2.42829,2.97954 -4.94814,-0.02265 -2.44256,-2.919991 z"
     id="path13358-4"
     inkscape:connector-curvature="0"
     sodipodi:nodetypes="ccccccccc" />
  <path
     style="opacity:1;fill:#81d742;fill-opacity:1;stroke:#101313;stroke-width:0.45967868;stroke-linecap:round;stroke-linejoin:round;stroke-miterlimit:3.29999995;stroke-dasharray:none;stroke-dashoffset:0;stroke-opacity:1;paint-order:stroke fill markers"
     d="m 9.36149,13.31013 0.91356,-0.261017 3.39323,0.0522 2.29695,2.923393 0.10441,0.704748 -2.19255,2.975601 -5.19424,-0.01478 -0.49594,-0.402853 0.31322,-3.210513 z"
     id="path13360-6"
     inkscape:connector-curvature="0"
     sodipodi:nodetypes="cccccccccc" />
  <path
     style="opacity:1;fill:none;fill-opacity:1;stroke:#101313;stroke-width:0.45967868;stroke-linecap:round;stroke-linejoin:round;stroke-miterlimit:3.29999995;stroke-dasharray:none;stroke-dashoffset:0;stroke-opacity:1;paint-order:stroke fill markers"
     d="m 17.16591,16.651152 h 5.06375 l 2.37526,3.132213 0.0522,0.574239 -2.40136,3.080006 -5.11595,0.02612 -2.37526,-3.053905 0.0522,-0.704748 z"
     id="path13362-9"
     inkscape:connector-curvature="0"
     sodipodi:nodetypes="ccccccccc" />
  <path
     style="opacity:1;fill:none;fill-opacity:1;stroke:#101313;stroke-width:0.45967868;stroke-linecap:round;stroke-linejoin:round;stroke-miterlimit:3.29999995;stroke-dasharray:none;stroke-dashoffset:0;stroke-opacity:1;paint-order:stroke fill markers"
     d="m 25.69564,13.082975 -2.42191,2.993943 0.0261,0.626438 2.27085,3.053907 5.054303,-0.132713 0.635883,-0.337119 -0.365428,-3.288818 -0.88746,-2.688483 -0.829698,-0.29823 z"
     id="path13364-0"
     inkscape:connector-curvature="0"
     sodipodi:nodetypes="cccccccccc" />
  <path
     style="opacity:1;fill:none;fill-opacity:1;stroke:#101313;stroke-width:0.45967868;stroke-linecap:round;stroke-linejoin:round;stroke-miterlimit:3.29999995;stroke-dasharray:none;stroke-dashoffset:0;stroke-opacity:1;paint-order:stroke fill markers"
     d="m 8.18691,20.90574 0.57129,-0.490024 5.1711,0.0202 2.19254,3.027803 0.0261,0.626442 -2.32305,3.027802 -3.68035,-0.02612 L 9.492,26.883029 8.60454,24.429463 8.29132,22.315221 Z"
     id="path13366-0"
     inkscape:connector-curvature="0"
     sodipodi:nodetypes="ccccccccccc" />
  <path
     style="opacity:1;fill:#81d742;fill-opacity:0;stroke:#101313;stroke-width:0.45967868;stroke-linecap:round;stroke-linejoin:round;stroke-miterlimit:3.29999995;stroke-dasharray:none;stroke-dashoffset:0;stroke-opacity:1;paint-order:stroke fill markers"
     d="m 23.24763,23.489813 2.21865,-3.027802 5.142041,-0.07831 0.652541,0.652543 -0.234913,2.401362 -0.495936,1.827122 -0.443729,1.592208 -0.861354,0.339322 c 0,0 -3.47153,0.156611 -3.54984,0.02612 -0.0783,-0.130508 -2.47967,-3.158313 -2.47967,-3.158313 z"
     id="path13368-0"
     inkscape:connector-curvature="0"
     sodipodi:nodetypes="ccccccccccc" />
  <path
     style="opacity:1;fill:none;fill-opacity:1;stroke:#101313;stroke-width:0.45967868;stroke-linecap:round;stroke-linejoin:round;stroke-miterlimit:3.29999995;stroke-dasharray:none;stroke-dashoffset:0;stroke-opacity:1;paint-order:stroke fill markers"
     d="m 14.73845,27.352874 c 0.0522,-0.130509 2.38174,-3.223765 2.38174,-3.223765 l 5.08337,-0.03895 2.29695,3.132211 0.0261,0.443731 -2.27085,3.132207 -5.08985,0.02611 -2.42747,-3.10611 z"
     id="path13370-6"
     inkscape:connector-curvature="0"
     sodipodi:nodetypes="ccccccccc" />
  <path
     style="opacity:1;fill:none;fill-opacity:1;stroke:#101313;stroke-width:0.45967868;stroke-linecap:round;stroke-linejoin:round;stroke-miterlimit:3.29999995;stroke-dasharray:none;stroke-dashoffset:0;stroke-opacity:1;paint-order:stroke fill markers"
     d="m 10.06624,28.396946 0.29823,-0.415426 3.31243,-0.06575 c 0,0 2.39274,2.882516 2.39274,3.013025 v 0.600341 l -1.17458,1.644408 h -0.73085 c 0,0 -2.37526,-2.114243 -2.42746,-2.218645 -0.0522,-0.104411 -1.67051,-2.557975 -1.67051,-2.557975 z"
     id="path13372-9"
     inkscape:connector-curvature="0"
     sodipodi:nodetypes="cccscccscc" />
  <path
     style="opacity:1;fill:none;fill-opacity:1;stroke:#101313;stroke-width:0.45967868;stroke-linecap:round;stroke-linejoin:round;stroke-miterlimit:3.29999995;stroke-dasharray:none;stroke-dashoffset:0;stroke-opacity:1;paint-order:stroke fill markers"
     d="m 25.69008,28.073142 -2.31194,2.855669 v 0.495935 l 1.22678,1.670512 0.65254,0.0522 2.42747,-2.218651 1.5661,-2.375256 -0.28545,-0.551489 z"
     id="path13374-4"
     inkscape:connector-curvature="0"
     sodipodi:nodetypes="ccccccccc" />
  <path
     style="opacity:1;fill:none;fill-opacity:1;stroke:#101313;stroke-width:0.45967868;stroke-linecap:round;stroke-linejoin:round;stroke-miterlimit:3.29999995;stroke-dasharray:none;stroke-dashoffset:0;stroke-opacity:1;paint-order:stroke fill markers"
     d="m 15.57371,33.591191 c 0.13051,-0.31322 1.61831,-2.114242 1.61831,-2.114242 l 5.08393,-0.03792 1.54592,2.047759 -0.13051,0.548136 c 0,0 -0.94956,0.502839 -1.4617,0.652544 -0.84446,0.24684 -1.73046,0.380124 -2.61018,0.391527 -0.78018,0.01012 -1.57154,-0.07737 -2.32306,-0.287125 -0.53266,-0.148674 -1.5139,-0.678645 -1.5139,-0.678645 z"
     id="path13376-8"
     inkscape:connector-curvature="0"
     sodipodi:nodetypes="cccccsssccc" />
  <path
     style="opacity:1;fill:#81d742;fill-opacity:0;stroke:#101313;stroke-width:0.02725536;stroke-linecap:round;stroke-linejoin:round;stroke-miterlimit:4;stroke-dasharray:none;stroke-dashoffset:0;stroke-opacity:1;paint-order:stroke fill markers"
     d="m 26,27 c -0.15548,-0.01645 -0.23951,-0.07211 -0.35667,-0.236232 -0.0843,-0.118092 -0.61384,-0.79723 -1.17677,-1.509197 -1.0189,-1.288668 -1.02328,-1.295458 -0.97476,-1.511411 0.0321,-0.14269 0.40035,-0.696653 1.07617,-1.618742 l 1.02742,-1.401815 2.44632,-0.04318 2.446324,-0.04318 0.25504,0.25504 0.255039,0.255039 -0.116323,1.13229 c -0.106434,1.036018 -0.151596,1.260758 -0.531174,2.643247 -0.228169,0.831028 -0.426612,1.565767 -0.440985,1.632755 -0.03703,0.172594 -0.622651,0.367136 -1.207341,0.401074 -0.68744,0.03991 -2.46794,0.0691 -2.70229,0.0443 z"
     id="path1417"
     inkscape:connector-curvature="0" />
  <path
     style="opacity:1;fill:none;fill-opacity:1;stroke:none;stroke-width:0.02725536;stroke-linecap:round;stroke-linejoin:round;stroke-miterlimit:4;stroke-dasharray:none;stroke-dashoffset:0;stroke-opacity:1;paint-order:stroke fill markers"
     d="m 25.90936,26.929075 c -0.10499,-0.04251 -0.67026,-0.737235 -1.91689,-2.355888 -0.51792,-0.672481 -0.52161,-0.682175 -0.37301,-0.979726 0.0984,-0.197132 1.21226,-1.775756 1.8868,-2.674197 l 0.11645,-0.155108 2.4115,-0.04506 2.411494,-0.04506 0.255069,0.244068 0.255069,0.244066 -0.0988,0.950028 c -0.109957,1.057262 -0.241938,1.696244 -0.694362,3.361747 l -0.307831,1.133218 -0.343822,0.138422 c -0.296907,0.119531 -0.490517,0.144942 -1.418927,0.186234 -1.35198,0.06013 -2.02955,0.05928 -2.18274,-0.0027 z"
     id="path1419"
     inkscape:connector-curvature="0" />
</svg>
